<svg xmlns="http://www.w3.org/2000/svg" width="216" height="90" viewBox="0 0 216 90">
  <defs>
    <style>
      .a {
        fill: #009ac7;
      }

      .b {
        fill: #cbb677;
      }

      .c {
        fill: #67652f;
      }
    </style>
  </defs>
  <path class="a" d="M50,45.821,39.677,24.008H22.447v2.368c3.493.06,5.448.533,5.448,3.553V56.808c0,4.085-2.665,5.507-5.8,5.563v2.37h13.2v-2.37c-3.554-.056-4.078-1.478-4.078-5.563V28.389h.118L44.294,55.453Z"/>
  <path class="a" d="M93.524,43.7,86.948,29.956H86.9l-.7,11.6c-.077,1.317.9,1.6,2.062,1.652V43.7H82.9v-.491c1.883,0,2.114-.412,2.243-2.761l.619-10.031c.1-1.7.053-2.166-1.546-2.268v-.464h3.893l6.214,13,6.192-13H104.3v.464c-1.263.1-1.753.129-1.7,1.007l.827,11.68c.152,2.373.359,2.373,2.241,2.373V43.7H99.042v-.491c1.213,0,2.4-.335,2.3-1.7l-.748-11.555h-.052L94.117,43.7Z"/>
  <path class="a" d="M119.9,37.462a5.079,5.079,0,0,1-4.564,2.683c-3.1,0-4.332-2.94-4.332-4.978a5.877,5.877,0,0,1,5.931-5.827c1.623,0,2.889.645,2.889,1.47a.755.755,0,0,1-.749.773c-1.264,0-1.573-1.573-3.016-1.573-1.781,0-3.328,2.115-3.328,4.591,0,2.578,1.547,4.486,3.637,4.486a3.726,3.726,0,0,0,3.145-1.857Z"/>
  <path class="a" d="M141.073,31.891a6.011,6.011,0,0,0-5.88-3.971c-4.306,0-6.988,3.121-6.988,7.453,0,4.667,3.354,8.1,7.273,8.1a6.833,6.833,0,0,0,6.293-3.814h.49a17.557,17.557,0,0,1-1.653,3.764c-1.649-.234-2.784.7-5.828.7-5.231,0-9-3.456-9-8.225,0-5,3.867-8.613,9.257-8.613,3.249,0,4.644,1.031,5.44,1.031.285,0,.413-.078.465-.155h.386l.232,3.739Z"/>
  <path class="a" d="M166.964,27.662v.49c-1.728.025-2.346.721-2.346,2.372v6.963c0,3.2-2.035,6.627-7.634,6.627-4.924,0-7.454-2.81-7.454-6.5v-7.53c0-1.65-.462-1.909-2.217-1.934v-.49h6.628v.49h-.234c-1.415,0-2.033.386-2.033,1.883V37.2c0,3.482,2.033,5.57,5.877,5.57,2.915,0,5.88-1.213,5.88-5.6V31.169c0-2.475-.386-2.915-2.527-3.017v-.49Z"/>
  <path class="a" d="M188.394,43.881,175.035,29.905V40.968c0,1.856.411,2.244,2.606,2.244V43.7h-5.985v-.491h.1c1.6,0,2.112-.542,2.112-1.729V28.8a3.762,3.762,0,0,0-2.164-.644v-.49h4.049L187.9,40.323V30.061c0-1.573-.465-1.857-2.528-1.909v-.49h6.035v.49c-1.933,0-2.348.336-2.348,1.34V43.881Z"/>
  <path class="a" d="M207.423,37.9h-.49c-.207-1.831-.7-2.038-1.752-2.038h-4.359v5.493c0,1.187.438,1.419,1.393,1.419h3.972c1.8,0,2.344-.7,2.991-2.913h.463l-.412,3.843H195.535v-.491h.723c2.061,0,2.422-.567,2.422-2.115V30.215c0-1.444-.334-2.063-2.064-2.063h-.564v-.49H208.43l.206,3.584h-.465c-.334-2.191-.981-2.656-1.907-2.656h-5.442v6.344h4.616c.927,0,1.367-.439,1.5-1.934h.49Z"/>
  <path class="b" d="M90.111,6.2a7.2,7.2,0,0,0-4.786-1.36C66.429,6.453,45.67,67.07,28.639,80.775c-7.579,6.1-16.152,3.524-17.331-2.883-.7-3.83.1-7.659,4.838-8.465a3.413,3.413,0,0,0-.01-.772c-7.79.46-8.444,5.264-8.4,8.627s2.686,9.5,14.325,7.935C36.031,83.334,50.249,58.876,59.955,41v17.69c0,2.914-1.4,3.782-5.243,3.782v2.331H73.724V62.474c-4.254,0-5.652-.868-5.652-3.782V30.044c.162-3.953,1.094-4.283,5.347-4.283V23.869H69.542C74.019,17.585,78.6,7.654,85.267,6.085c2.387-.562,3.577.842,4.081,2.65S88,13.572,88,13.572l-.085.252.028.087C93.038,11.727,91.875,7.461,90.111,6.2Z"/>
  <path class="c" d="M89.663,49.154A2.571,2.571,0,0,0,85.4,51.16a2.542,2.542,0,0,0,4.259,1.953v.95a3.491,3.491,0,0,1-1.7.456A3.344,3.344,0,0,1,84.6,51.186a3.4,3.4,0,0,1,3.435-3.4,3.12,3.12,0,0,1,1.629.437Z"/>
  <polygon class="c" points="103.062 50.525 103.062 47.921 103.867 47.921 103.867 54.381 103.062 54.381 103.062 51.279 99.986 51.279 99.986 54.381 99.181 54.381 99.181 47.921 99.986 47.921 99.986 50.525 103.062 50.525"/>
  <path class="c" d="M114.577,52.761l-.737,1.62h-.866l3.084-6.734,3.084,6.734h-.866l-.736-1.62Zm1.481-3.349-1.149,2.612h2.3Z"/>
  <path class="c" d="M132.328,54.381h-.978l-1.9-2.734h-.334v2.734h-.8v-6.46h.976a3.41,3.41,0,0,1,1.7.3,1.783,1.783,0,0,1,.849,1.542,1.758,1.758,0,0,1-1.551,1.808Zm-3.214-3.4h.258c.822,0,1.713-.154,1.713-1.181,0-1.011-.96-1.157-1.757-1.157h-.214Z"/>
  <rect class="c" x="141.563" y="47.921" width="0.805" height="6.46"/>
  <polygon class="c" points="153.941 54.381 153.138 54.381 153.138 48.658 151.604 48.658 151.604 47.921 155.476 47.921 155.476 48.658 153.941 48.658 153.941 54.381"/>
  <path class="c" d="M164.97,52.761l-.738,1.62h-.864l3.084-6.734,3.084,6.734h-.864l-.737-1.62Zm1.482-3.349L165.3,52.024h2.3Z"/>
  <path class="c" d="M178.635,47.921h.788c1.218,0,2.366.317,2.366,1.773a1.4,1.4,0,0,1-.695,1.227v.016a1.665,1.665,0,0,1,1.3,1.636c0,1.294-1.107,1.808-2.245,1.808h-1.509Zm.806,2.862h.2c.762,0,1.387-.155,1.387-1.08,0-.908-.616-1.062-1.369-1.062h-.223Zm0,2.877h.617c.746,0,1.524-.222,1.524-1.139s-.925-1.1-1.645-1.1h-.5Z"/>
  <polygon class="c" points="192.719 53.645 194.681 53.645 194.681 54.381 191.915 54.381 191.915 47.921 192.719 47.921 192.719 53.645"/>
  <polygon class="c" points="203.839 47.921 207.31 47.921 207.31 48.658 204.646 48.658 204.646 50.465 207.232 50.465 207.232 51.202 204.646 51.202 204.646 53.645 207.31 53.645 207.31 54.381 203.839 54.381 203.839 47.921"/>
  <polygon class="c" points="85.756 59.367 85.756 61.184 88 61.184 88 61.92 85.756 61.92 85.756 65.09 84.95 65.09 84.95 58.631 88.078 58.631 88.078 59.367 85.756 59.367"/>
  <path class="c" d="M103.018,61.859a3.384,3.384,0,0,1-6.768,0,3.384,3.384,0,0,1,6.768,0Zm-.806,0a2.579,2.579,0,1,0-5.157,0,2.579,2.579,0,1,0,5.157,0Z"/>
  <path class="c" d="M112.176,58.631v3.812c0,1.053.318,2.031,1.559,2.031s1.56-.978,1.56-2.031V58.631h.807v4.087a2.369,2.369,0,1,1-4.73,0V58.631Z"/>
  <polygon class="c" points="124.821 58.322 129.672 63.403 129.672 58.631 130.476 58.631 130.476 65.355 125.628 60.274 125.628 65.09 124.821 65.09 124.821 58.322"/>
  <path class="c" d="M139.242,58.631h1.336c1.979,0,3.623,1.044,3.623,3.2,0,2.2-1.61,3.264-3.648,3.264h-1.311Zm.8,5.723h.284c1.646,0,3.067-.618,3.067-2.495s-1.421-2.492-3.067-2.492h-.284Z"/>
  <path class="c" d="M153.609,63.471l-.736,1.619h-.867l3.084-6.734,3.084,6.734h-.864l-.738-1.619Zm1.481-3.35-1.149,2.612h2.3Z"/>
  <polygon class="c" points="167.454 65.09 166.649 65.09 166.649 59.367 165.116 59.367 165.116 58.631 168.987 58.631 168.987 59.367 167.454 59.367 167.454 65.09"/>
  <rect class="c" x="177.282" y="58.631" width="0.804" height="6.459"/>
  <path class="c" d="M193.293,61.859a3.384,3.384,0,0,1-6.768,0,3.384,3.384,0,0,1,6.768,0Zm-.805,0a2.579,2.579,0,1,0-5.157,0,2.579,2.579,0,1,0,5.157,0Z"/>
  <polygon class="c" points="201.681 58.322 206.528 63.403 206.528 58.631 207.335 58.631 207.335 65.355 202.486 60.274 202.486 65.09 201.681 65.09 201.681 58.322"/>
</svg>
