<svg aria-hidden="true" viewBox="0 0 822.1 1012.2" preserveAspectRatio="xMidYMid slice">
<path d="M1.9 675.5h-.3l-.6-.6-.3-.8-.2-1.1.2-1.1.6-.8.6-.5.5.1.8.4.7.8.2.7v.8l-.3.7-.5.8-.6.5-.5.2-.3-.1M3.9 673.9l-.9-.3" class="st0"/><path d="M489.4 349l-1.2.1-3 .9-6.1 2.6-1.5.3-3.2.2-2.2.6-5.1 2.6-4.4 3.3-.7.4-.9.1-2.1-.3-2.1-.8-1.5-1.2-2.7-3.2-1.2-1.2-1.5-.8-1.8-.5h-1.8l-1.3.6-1.4 1.1-2.9 3-1.3.9-1.5.5-3.1-.4-.9.2-.8.5-1.5 1.7-.7.4-.6-.1-.6-.2-5.4-3.4-3.6-1.8-2.1-.7-2.1-.1-1.5.3-1.2.5-.9.6-.8.7-.7 1-.8 1.5-1.6 4.3-.7 1.4-1.1 1.4-1.6.9-1.5.3H401l-3.1.5h-2l-4-.8-4.8-1.7-.9-.1-.6.1-1.5.9-2.9 2.8-1.1 1.4-1.5 2.9-.8.9-.9.7-1.2.4-.9-.1-1.3-.5-3.5-2.5-1.3-.7-1.2-.4-1.2.2-1.1.7-1.2 1.4-1 1.8-1.9 4.7-1.3 2.9-.9 1.4-1.8 2-.7 1.1-.4 1.8-.3 5.3-.3 2.2-.5 1.5-.9 1.3-1.1.8-1.3.5-4.2.8-6 1.4-3.3.2-5.5-.5h-.9l-.4.2-.2.2-.3.4-.1 2.2-.2 1.2-.3.7-.7.8-1.5.9-4.9 2.2-4.5 2.6-1.8 1.2-1.4 1.3-1.7 2.2-1.8 3.1-1.8 3.3-.5 1.8v.9l.1.7.4.7.8 1.2 2.1 1.9 6.7 4.8 2.8 2.2 1.4 1.6 1.5 1.8 1.3 1.9 1 1.8.7 1.6.4 1.1-.2.8-.3.3-1.1.8-3.9 1.4-1.7.8-1.7 1.5-.6.8v.7l.6.8 4.3 2.9 3.1 2.7 1.2 1.5.3.7.2.8-.2.7-.7.8-8.5 4.8-1.5 1.1-1 .8-.6.8-.4.8-1.1 2.9-1 1.6-2.1 1.8-4 2.2-1.2 1.2-.6 1.5-.2 1.1.1.8.3.7.6.6.8.5 1 .3 2.3.3 6.9.3 3 .5 2.5.7 2 .8 1.9.8 1.2.9.6.7v.4l-.3.3-.6.8-1 .7-5.3 3.1-1.1 1.1-.9 1.1-.1.7.2 1.1 2.2 4.6.4 1.1.2 1.1-.2 1-.4.8-2 2.7-.3.8-.1.7.1.4.6.7 1.1.7 1.8.6 2.2.6 2.2.3h5.1l9.1-1.1 2.8.2.6.2.3.4v.8l-.6 1.1-2.3 3.5-4.5 5.1-6.3 6.4-.8 1.1-.3 1.1.2.7.6.8.9.8 1.3.9 2.1.9 10.7 4.1.7.5.5.7v.7l-.5 1.2-1.1 1.4-1.2 1.4-1.7 1.2-4.5 2.3-2.4 1.5-1.6 1.5-.4.7-.2.8.2.8.6.7 1.1.7 3.5 1.7.9.8.7.9.4 1.1.3 1.2.1 4.1.2 1.9.3 1.1.5.8.3.3.9.5 3.4 1 .8.5.4.6.5 1.2.2 1.1v5.2l.2 1.1.4.7.8.7 1.5.4 2.4.2 1.8-.3 1.5-.9 3.3-3.4 1.9-1.7 2.1-1.5 2.3-1.3 2-.9 5.9-1.7 2.1-.3h.8l.4.3.2.4v.7l-.7 2.3-1.3 3-2.5 4.9-.8 2.2-.3 1.5-.1 1.9.1 1.5.2 1.5.6 1.4.9.8 4.2 1.7.9.5.6.6.3.7v1l-1.8 4.9-.2 1.5.3 1.1.5.6.7.5 4.2 1.5 1 .6.9.8.8.9.5 1.2 1.3 4.2.5 1.2.7.9 1.2.5h.9l1.2-.2 2.5-1.3 1.7-1.5 4.3-4.1 3.9-3.3 1.2-.8.9-.2.6.2.8.6 1.5 1.9.7 1.5 1.9 5.2.7 1.2.8.9 1.5.8 4.1.9 3 1 .9.1.6-.3.9-.7.9-1.3 1.4-2.7 1.4-3.1.9-2.4.4-1.9.7-4.8.3-1.5 1.5-4.3.9-3.1.6-1.5.6-.9.6-.6h.7l1.2 1.3 2 3.1 2.1 5.7 3.8 6.3.9 1.8 2.3 6 1.2 2.3 1.5 2.3 1.8 2 .9.6.9.4 2.4.5 3.6.2 1.4-.2 1-.4.6-.5.6-.9.2-1 .2-1.6.2-7.1.2-2.3.6-1.8.4-.7.5-.3.8-.1h.9l2.3.6 2.6 1.1 8.6 4.6 1.8.6h1.3l.8-.3 2.2-1.2 1.3-.7 6.3-1.9 1.2-.8.7-.9.3-.7.1-.8-.1-2.2-.7-2.6-1.3-3.8-.2-1.1v-.8l.1-.7.6-.8.6-.2h1l5.4 1.3 3.9.5 6.9.2.9-.1.6-.4.5-.9.7-2 .5-1 .7-1.1 2-1.9.5-.7.1-.8.1-1.2-.2-1.1-2-6-.4-1.5-.1-1.8v-1.9l.4-1.1.8-1.5.9-.8.9-.2 1.2.2 6.4 3.2 3.5 1.4 1.9.3 1.5-.2 3.3-2.1 1.2-.4 1.2-.2h3l4.8.9 2.4.2 1.8-.1 1.3-.5.5-.6.3-.8-.3-1.4-1.2-2.6-2.4-3.8-.5-1.1-.2-.8-.1-2.6-.4-3.4.1-1 .3-.8.4-.5.7-.3 3.7-1.2 1.3-.7.3-.4.3-.7.3-3.4.3-.8.4-.7 1.3-1.1 3.6-2.2 1.5-1.2 1.3-1.5 1.6-2.6.9-.9 2.2-1 3.2-.7 1.6.1 2.4 1 .9.1.6-.4.3-.4.3-.8.2-1.2.3-1.4-.1-1.5-.2-1.1-.5-1.1-.9-1.2-.8-.8-3.8-2.6-.6-.7-.1-.4.1-.6.5-.5 2-1.5 1.3-1.2.8-1.1.3-.7v-.8l-.3-.7-1.9-2.6-.6-1.2-.3-1.1-.1-2.2-.3-.8-.6-.4-.6-.1-1.9.2-1.9.6-3.8 1.7-1.2.3-1.6.2-1.5-.2-1.5-.4-1-.7-.4-.8.6-3v-1.2l-.3-1.4-.8-2.3v-1.1l.4-.8.6-.7 2.7-2.2.4-.8.1-.8-.1-.7-.6-1.2-3.6-5.2-.3-.8v-.7l.5-1.1 3.3-3.8 1.5-1.3 4.3-3.5.8-1 .6-.9.5-1.5v-1.5l-.3-2.6-.8-1.9-1.2-1.6-1.4-1.1-1.7-.7-2.5-.5-2.8-.1h-3l-2.9.3-4.9 1h-.6l-.6-.1-.3-.6-.1-.7.5-3 .8-3 1.8-4.9.4-1.9-.1-1.1-.1-.7-.5-.9-.7-.9-.9-.9-1.1-.7-1.2-.5-1.6-.5-2.6-.4-7.1-.3-3.5-.2-3.3-.6-.7-.4-.2-.5.2-.7.5-.8 1-1.1 1.3-1.1 10.2-7.8 5.3-3.1 2.1-1.5 1.1-1.1.3-.8-.3-1.1-2.2-3.8-.6-1.5v-.7l.2-.7 1-3.1.1-1.5-.6-1.4-1.9-2.3-.5-1.2-.2-1.4.3-3.7V407l-.5-1.1-.6-.7-1.2-.5-1.9-.2h-2.3l-7.8.3-1.5-.2-1-.4-.9-.9-.5-1.1-.6-3.1-.6-4.9-.3-.9-.6-.4h-1.2l-5.1 1.1-3.1.1-2.6-.1-1.8-.2-1.1-.5-.6-.6-.2-.3.1-.8.4-1.5 4.8-10.9.6-1.8.1-1.9-.6-3.4v-1.5l1.7-9.7.4-3.7-.2-1.5-.4-.8-.6-.7-3.5-3-1-.5-1.2-.4-4.2-.7h-2.1l-1.8.5-3 1.6-1.5.3-1.2-.5-2.1-1.8-1.2-.6-1.8-.3-1.2.2" class="st1"/><path d="M430 442.3h-1.6l-7.9.9-5.4.7-2.8.6-2.1.7-1.3.8-1.3 1.2-1.9 2.5-2.9 5-3.3 6.7-2.8 4.8-.5 1.2v.7l.3 1.2 1.7 2.2.8 1.7.6 2.1.3 2.9.3 1.1.6 1.6.9 1.5 3.8 4.9 2.1 2.2 1.8 1.5 4.2 2.5 1.8 1.6 1.4 1.7 1.3 2.4 1.3 2.9.8 2.1.6 2.2.4 2.6.2 1.8-.1 1.5-.3 1.5-.7 2.7-.2 1.1.1.7.3.6.6.6 1.3.6 5 1.5 5.2 2.1 1.7.4h1.8l3.1-.4 1.7-.4 4-1.3 3-.3 2.2.2 2.2.3 6.4 1.8 1.5.8 1.5.9 1.4 1 1.3 1.3 2 2.5 2.5 4.7 1.3 1.9 2.6 2.9 1 .5h.6l.6-.4.4-.6 1.6-3.7 2.4-4 .7-1.5.1-.7v-1.1l-.6-3.8v-2.2l.3-1.1.4-1.2 2.6-4.5.9-2.3.3-1.4.1-2.3v-2.3l-.2-1.4-.4-1.1-.5-.7-.6-.5-1-.3-2.5-.6-7.1-.6-2.9-.4-3.3-.8-3.3-1.2-2.5-1.2-2.4-1.5-2-1.7-1.3-1.8-.7-1.4-.5-1.3-.3-1.5-.1-1.8.3-3.7 1-5.3.5-1.9.6-1.2.8-1 2-1.9 1-1.1.6-1.1.3-1.1-.2-.8-.5-.6-.9-.4-2.4-.2-.9-.4-.9-.7-.7-1.1-.5-1.5-.3-2.2-.2-3.2-.1-5.5-.3-1.1-.4-.7-1-1.1-1.8-1.5-2.2-1.5-2.2-1.2-3.3-1.5-2.3-.9-2.2-.6-2.1-.3-2.7-.1-1.6.1" class="st1"/><path d="M434.3 416.9h-.8l-1.9.3-8.4 2.5-12.4 2.2-12.6 3.3-3.4 1.2-1.1.6-1.2 1-1.6 1.7-2.8 4-4.6 6.7-1.4 2.2-.5 1.1-.3 1.5-.3 5.3-.3 1.5-.3 1.1-.7 1.5-.9 1.3-3.3 3.6-.8 1.1-.4 1.2-.1 1.4.5 2.3 2.6 8.8.6 1.5.8 1.3 2.5 3.2 2.1 3.1.5.7.9.6 3 1.5 1.4.8 2.6 2.1 2.5 2.6 4.6 6.2 1.2.9 3.3 2.2 2.2 2 1.9 2.4 1.7 2.9.5 1.8.1 1.5-.2 1.8-.8 3.1-1.1 3.7-.9 2.4-1.2 2.2-1.9 2.5-.3.8v.4l.6.4 1.2.3 7.3.3 3.3.4 3.6.8 3.3 1.1 2 1 1.6 1.3 1.2 1.5 1.8 3.1.6.5.6.2 1.2-.2 1.3-.3 3.4-2.2 1.7-.9 8.1-2.3 1.8-.3 1.5.2 1.8.4 1.6.7 1.9 1.1 1.6 1.5 1.2 1.5 3 4.3 1.3 2.1 5.8 10.1.9 1.9 1.4 3.4.5 1.1.6.8.9.3 1.3-.5 3.3-2.2 3.7-2.2 1.2-1 1.1-1.2.9-1.6 1.4-3.8 1-1.8 1.4-1.6 4.9-4.4 2.6-1.6 2.8-1.2 10.5-3 1-.5.3-.4.1-.8-.2-1.5-1.4-3-5.2-9-.6-1.5-.1-1.1.1-.7.3-1.1 1.1-2.3 3.6-5.8 3.6-5.1.3-.7v-.8l-.3-.7-.6-.8-1.1-1.1-3.7-3.4-1.5-1.4-1.2-2-1.6-3.5-.8-.8-1-.6-1-.3-1.5-.2-6 .2-5.1-.4-6 .2-2.5-.2-2-.6-5.1-2.1-.9-.7-.6-1-.2-.8.1-1.1.8-2.7 6.5-15.7.6-1.8.2-1.2-.2-1.1-2-3-.3-.9-.1-1 .2-.8.4-.9 2.5-4.3.9-1.9.3-1.5-.2-.7-.3-.8-2.3-3.2-1-.9-.9-.7-1.7-.8-3.4-1-1.3-.6-1.4-1-2.4-2.3-1.5-1-8.7-4.3-1.8-1.1-1.2-1.2-2.1-3.7-.7-.9-.8-.6-2.1-1-3.6-.9-5.5-.5h-.9M817 169.1l-.1.1-1.5 2.1-2 3.4-2.6 2.8-1.2 2.1-.5.7-1.2.7-2.8.3-1.7.5h-2.5l-3 .3-.8.2-1.7 1.4-3.2 1.7-1.2 1.7-1.8 1.7-.4.7-.1 1 .1.6.2.6 3.5 3 1.5 2.4 1.5 1.5.6.5 2.7.7 2.1 1.5 2.4.7 3.3 1.4 4 .5 5.1-.1 1.3.4M161 824.7l-.6.2-.6.7-.2.5-.4 1.8.2 2.7.3 1.1.4.7.9 1.1 1.2.8 1.5.4 1.5-.1.7-.3.3-.4.3-.8v-.7l-.2-1.3-1.2-4-.4-1.1-.8-1-.9-.5h-1.4l-.6.2" class="st1"/><path d="M448.2 404.4l-1 .1-5.7 1.7-2.9.5-3.1-.1-4.8-.6-1.8.1-5.1 1.8-2.7.7-3.9.5-7.3.5-2.3.5-10.6 3.2-7.5 1.6-1.5.7-.8.9-.7 1-2.6 6.4-.9 1.8-1.1 1.6-2.1 2.1-4.7 3.9-3.7 3.3-1.1 1.1-.8 1.1-.2.8.1 1.2 2.2 7.1.2 1.5-.1 1.5-.4 1.1-.7 1.1-4 4.1-1.1 1.5-.8 1.5-.2 1.6.1 1.1.4 1.5 2.9 6.7.8 2.6.1 1.2v1.1l-.9 3.7.1.7.4 1 .6.7 3 2.5.9 1.1 1.7 2.7.7.8 1.1.9 1.1.7 1.2.5 3.6 1 1.5.6 1.5.7 1.3 1 1.4 1.6 4.7 6.1 1.8 1.6 4.6 3.5 1 1.2.8 1.5.4 1.5-.1 1.5-1 4.5-.6 1.8-1 1.6-1.3 1.5-4.9 4.4-1.8 2-.5.7-.4.7v.8l.2.6.7.9 3.1 3.2.9.6.9.4 2.5.1h5.1l6.3-.4 3.3.2 1.8.2 1.8.5 1.6.7 1.1.8.8.9.6 1 .4 1.2.3 1.5.1 2.9-.6 5.7-.1 3.7.2 2 .4.6.3.1h.6l.9-.3 3.3-1.6 1.2-.7 1.5-1.7 2.8-4.7 1.2-1.6 1.1-.9 2.6-1.5 3.4-2.3 2.8-1.1 3-.8 2.1.1 1.2.4.9.4 1.8 1.4 2.1 2.5 3.9 6 1.7 3 1.6 3.4 3 8.2 2.3 5.6 1.7 4.8.5 1.2.7.8.9.6.8.1.9-.3.6-.5.7-1.1 1.5-4.1.6-1.5 1.2-1.5 1.5-1.7 1.8-1.5 1.5-.8 1.5-.6 3.3-.6.7-.3.6-.4.8-1.6 1.3-4.9.9-2.2.7-1.6 1.1-1.3 2.3-2 2.4-2.3 1.5-.9 2.6-1.1 2.8-.9 2.8-.7 5.4-.8 6-.1 1.2-.1.9-.6.7-.7.7-1.6.3-1.4.1-1.2-.1-1.4-.3-1.1-.6-1.6-1.4-2.4-3.5-5.2-2-3.6-1.4-3-.3-1.2-.1-1.1.2-1.4.5-1.5 1-1.8 1-1.4 1.7-1.6 3.2-1.8 1.2-.8.9-.9.7-1.1.4-1.5V503l-.4-1.9-.8-1.7-1.4-1.4-4.6-3.2-4.3-4.3-.9-1-.6-1.1-.3-1.2-.7-2.6-.3-.7-.6-.9-1.2-.7-4.3-1.8-2.3-.6-2.5-.2-5.4.5-2.1-.1-10.2-1.3-1.6-.5-.4-.4-.2-.4v-.8l.3-1.4 3.7-9.4 1.3-2.3 2.6-3.2.7-1.7.2-1.1-.2-1.1-1.1-2.6-.2-.8.1-.8.1-.7.8-1.5 1.3-2.3 5.4-8.2.5-1.5v-.7l-.2-.6-.6-.8-.9-.9-7.9-5.4-3.1-1.7-4.5-2-1.6-1-1.2-1-2.7-3.4-1.7-1.8-2.5-1.7-5.7-3.2-1.8-1.1-1.5-1.6-2.3-3.6-1.2-1.4-1.6-1.2-1.8-.5-1.5-.2-.9.1" class="st1"/><path d="M487.5 356h-.8l-11.1 2.9-2.5 1.1-7.2 4.3-2.1.8-1.8.3-1.8-.2-5.4-1.4-1.5-.9-2.1-2.3-1.2-.9-1.5-.5h-1.6l-2 .7-3.7 2.1-3.9 1.7-1.2 1-2.9 3.3-.6.6-1 .2-.6-.1-.9-.5-3.6-3.3-2.7-1.7-1.5-.7-1.8-.5-1.5-.3h-1.2l-1.7.5-1.3 1-1.1 1.2-2.7 4.2-1.9 2.5-1.2 1.2-1.2.6-1.9.3h-2.6l-3.1-.5-5.4-.9-2.4-.3h-2.4l-1.8.4-1.4.7-1.1.9-.9 1.1-1.2 2.4-.8 1.2-1.2 1.1-1.5.8-1.8.6-1.8-.1-1.4-.3-2.8-1.1-1.2-.3-1.1.2-.9.7-1.1 1.3-1.4 2.3-4.2 7.5-.6 1.8-.7 5.3-.8 2.1-1.2 1.8-2 2-1.4.8-2.1.7-9.1 1.5-5.6 1.3-1.8 1-2.4 2.4-1.6 1.1-1.8.7-4.5 1.4-2 .8-2.5 1.8-1.8 2.1-1.5 2.2-1 1.8-.8 1.9-.3 1.1v.8l.1.7.4.8.7.7 1.3 1.1 3.2 2 1.8 1.4 3.9 3.4 1.8 1.8 2.7 3.7 2.2 3.4.6 1.6.5 1.9.1 1.8-.3.7-.3.4-1.5 1.2-3.5 1.5-.7.5-.2.6.2.4.5.7 3.3 3.1 1.9 2.5.6 1.5.3 1.1v1.2l-.3 1.1-.6.6-.8.6-7.4 3.4-2.4 1.4-1.7 1.2-1.3 1.6-2 4.1-2.4 3.2-.5 1.1v.4l.2.4.8.4 6.9 1.9 3 1.2 6.3 3.3 1.6 1 1.1 1.2.1.4-.2.7-.4.8-.7.7-1.5 1.1-5.1 3.4-1.2 1.1-.6.8-.2.7v1.2l1 4.1.4 3.8.3 1.1.7.7 1.1.4 1.5.3h2.1l2.5-.1 3.5-.6 4.5-.3 6.4-.8 2.1-.1 2.4.2 2.6.4 1 .5.4.5v.4l-.3.7-.7 1.1-2.6 3.1-3.6 3.8-2.9 3.7-1.5 1.4-3.9 3.1-1.9 1.8-1.8 1.9-.6 1.1.2.7.4.4 5.9 3.4 2.7.8 5.4.6 1.9.3 1.6.8.4.5.2.4v.7l-.6 1.1-2.7 4-2.6 4-1.8 1.8-3.9 2.7-.7.9-.2.9.2 1.1 1.1 3.4.5 4.5.4 1.6.4.7.5.4 3.2 1.5.9.6.6.7.8 1.8.7 4 .3.7.3.6.3.2.6.2 1.2-.3 5-3.7 3.8-2.2 2-.9 6.3-1.7 4.6-.8 7.1-2.3h1.4l.3.3.2.5.2 1.4-.4 3.1-.8 2.6-.6 1.5-.8 1.5-3.9 5.3-1.2 1.8-.8 1.9-.3 1.8.1.8.2.8.4.7.6.6 1.5 1 4.5 2.4.7.6.6.7.4 1.1.1 1.1-.1 1.5-.5 2.6v1.2l.3 1.1.8 1.1 4.7 6.5.9.6.9.1 1.3-.4 1.1-.9 6.6-5.9 1.8-1.4 1-.5.9-.3h.9l.8.1.9.6 1.2.8 2.3 2.6 1.7 2.6 1.7 3.9 1 1.3.9.6.9.4 2.7.4 1.2-.1.8-.6.8-1 .8-1.7.8-2.8 1-6.4.9-3.4 2.5-7.8 2-4.6 1.5-3.1 1.2-2 1.6-1.6.6-.3h.6l.7.9.7 1.8 1.3 5.9.6 1.8 2 3.8 2 4.8 2.6 4.5 1.2 2.3 3.5 9.1 1.2 1.9 1.4 1.7 1.3.9 1.3.3.6-.1.8-.3.4-.5.4-.6.3-1.5.4-4.9.8-3.4.7-2 .7-1.6.7-.9.8-.6.6-.2h.9l2.8.7 5.4 2.1 6.9 3.7 1.8.4 1.5-.1 6.3-2.1.9-.5.6-.8.2-.7.1-1.1-.2-1.1-1.1-4.2-.1-1.5v-1.4l.3-2.3.6-1.9.6-1.4.8-.9.9-.2 1.2.3 5.4 2.8 1.6.5 1.5.2 2.3.1 3.3-.4 1.6-.4 1.1-.7 1.1-1.3 1.4-1.9.4-1.2.2-1.1-.2-1.5-.5-1.9-2.6-8.3-.2-1.1v-1.1l.2-.7.3-.4 2.7-1.9 1.5-2 .6-.6 1.2-.3 1.5.2 8.5 3.3 2.6.8 1.8.3 2.2-.1 5.1-1.7 4.6-.7 1.1-.4.4-.5v-.9l-.9-3.5-.2-1.8.2-1.1.6-2.8-.1-4.3.1-.8.4-.7.7-.8.6-.5 3.5-1.5 1-.8 1.6-2.8 1.1-1.4 1.5-1.4 3.4-2.7 1.1-1.2.6-1.1 1.1-3.1.8-1 1.4-.9 3.6-1.5.9-.7.4-.7-.2-.7-.6-.9-3.2-1.7-1.1-.9-.9-1.1-.6-1.1-.2-1.1.3-.8.4-.8 1.4-1.4.5-1.1.1-1.2-.4-.7-1.4-.7-4.4-.8-2.4-.8-5.1-2.6-.9-.7-.3-.4.1-.7.4-.8 2.7-2.8.7-1v-1.1l-.3-.7-1.1-2.3-.3-.8v-.7l.6-1.5 2.2-3.4.4-1.1-.1-1.1-.5-1.1-2.4-3.4-.8-1.5-.3-1.1v-.8l.4-.7.5-.8 4.7-4.5 1.9-2.2 1.3-1.9.7-1.5.5-1.5v-1.5l-.5-1.1-.8-.7-1.3-.6-2-.3h-2.2l-2.4.3-4.8 1.9-2.4.7-2.7.2-1.8-.4-.5-.4-.2-.3-.1-.4.2-.7 1.7-4.6.5-2.2.9-4.5 1.3-3.8.3-1.1v-1.5l-.3-.7-.6-.7-.6-.4-.8-.4-2.7-.5h-5.4l-8.5.4-2.7-.1-2.1-.3-2.4-.6-1.1-.5-.7-.7v-.4l.3-.7 1.3-1.5 6.8-6.4 6.8-5.6 6.9-6.8 1.2-1.4.2-.8v-.7l-.4-1.1-.9-2-.3-1.1v-1.1l.4-2.6-.1-1.2-1.1-3.8-.4-4.4-.3-.7-.6-.9-.8-.5-1.2-.2-7.3-.2-1.5-.1-1.2-.4-1-.6-.8-1-.6-1.4-1.5-4.8-.6-1.1-.6-.6-.7-.3-.8-.1h-6l-4.9-.5-1.2-.4-1.1-.5-1.2-.8-.8-1-.2-.7.2-1.1.7-1.6 2-3.3 1-2.3 1.8-5.3 1.2-3 .2-1.5-.1-1.1-.8-2.6-.4-1.9-.9-7.2-.4-1.8-.4-.9-.6-.8-1-.6-1.2-.4-1.8-.3-1.9-.1-6 .4-1.5-.1-1.4-.6-2-1.7-1.1-.6-1.4-.4-.8.1" class="st1"/><path d="M461 306.9l-1.4.1-2.1.4-3.6 1.3-3 .6-1.2.6-.5.6-.2.9.1 1.2 1 4.4.1 2.3-.1 1.5-.3 1.4-.3 1.1-.4.6-.3.2-.6-.2-2.1-2-.9-.7-.9-.4-1.2.2-1 .3-2.6 1.8-4 2.2-1 .9-1.3 1.9-.3.3-.6.1-1.3-.3-2.7-1.6-2.4-.9-1.8-1.5-1.1-.6-1.9-.3-2.4-.6-7.9-1.1-4.4-1.4h-1.3l-1.2.2-3.1 1.8-4.9 2.3-1 .8-.5.8-.1.6.3 3.5.1 1.4-.3 1.6-.4 1.1-.3.3-.6.3-3.3.2-.9.3-.8.4-1 1.1-1.2 2.6-.6.7-1.4.3-3.4-.1-1.5.1-3.9 1-4.4.7-4.6 1.2-.9.6-.4.8-.2 1.2v2.5l-.2.6-.5.6-.9.4-1.5.2h-1.7l-2.4-.3-4-.9h-.9l-.8.3-.5.6-.4 1.1-.2 4.6-.2 1.1-.3.7-.9 1.1-2.8 2.9-2.8 4.2-.7.6-.6.2-3.6-.3-1.3.2-.9.5-.5.4-.6.7-.6 1.2-1.4 3.1-.4.8-.7.5-3.6 1.5-2.8.7h-2.3l-4.8-1-2.1-.2-1.2.1-.9.3-1.8 1.1-2.1 2-1.9 2.3-3 4-.5.9-.4 1.1-.1 1.1.2 1.2 1.7 4.4 1.1 3.8.1 1.5-.2.7-.3.8-1.1 1.2-3.4 2.4-2.5 2.4-1 .6-2.2.9-.9.8-1 1.4-.3 1.2-.5 2.5-.4 1.1-.5.9-1.2 1.5-3.2 2.7-1.7 1.8-1.6 2.4-1.1 2.4-.6 1.9-.2 1.9.4 1.5.8 1.8.4 1.2.1 1.5-.2 3.3-.3 1.6-1.5 2.6-.5 1.5-.1 1.1-.1 7.1-.3 3.4-.2 1.1-1.1 3.3-.4 3.1.1 1.2.4 1 .6.5 1.7.7.5.6v1.6l-.3 3-.5 1.5-1 1.2-3.4 2.8-3.1 1.8-1.1.9-.9 1.5-.6 1.6v1.4l.9 3.8v4.5l.6 3 .4 1.1.6 1 .8.9 2.3 2.2.5.8.3.8v.3l-.1.4-2.1 1.5-.5.7-.3.8.1 1.1 2.4 4.9.9 1.1 2.3 1.9.4.8.2.7-.1 2.1-.3 1.4-.5.4-1.6.4-.9.5-1.7 3.1-.5 1.1-.1.7.3 1.9v.8l-1.1 2.9-.2 1.2-.1 1.9.3 1.8 1.1 3.7 1 2.3 1 1.9 1 1.5 1.8 2.1 1 2 .8 1.1 2 2.2 2.8 1.4.7.6.1.7-.3 1.9.2 1.1.4.9 1.6 1.8.5 2.2.3 1.1.6.7.6.5.9.3 1.8.3.4.3.3.5v2.3l.8 2.3 1.7 3 2.7 4.4 1.1 1.4 1 1.1 1.1.8 2.3 1.5 3.1 1 4.6 1 .8.3.2.4.1.4-.3.8-1.1 1.1-4.7 3.7-1.7 1.5-.8 1.2-.1 1.1.2.7 1 1.1 1.2.6 1.5.6 1.1.3h1.3l4.4-.5.7.2.4.3.7 3.2 2 4.3 1 1.6 3.4 3.7.4.7-.1.4-2.7 1.5-1 .8-.8 1.1-.3 1.1v1.1l.3 2 .6 2.5 1.3 2.6 1.6 2.3 1.2 1.2 1 .6.9.5 1.5.3.6.4.3.5.6 2.1.5.8.7.6 2.2 1.3 2.5 1.2 2.3.8 3.5.9 3.4 1.4 1.7.5 1.9-.1 3.2-1.2 1-.1.3.4.1.3.3 2.6.4 1.1.6.8 1.1.6 2.9.6 1.2.1 1.2-.1 1.8-.8 2.4-1.8h.9l.6.7 1.3 3.3.4.6.5.5 1.1.5 3.7.9 1.5.6 1.5.9 2.4 2.1.9.4.6-.1.3-.3 1.5-2.4.9-.9.9-.6h.6l.3.4.7 3 .8 1.9.9 1.2.6.5.9.3 2.4.3 3-.3 2.4-.6 3.7-1.6 1.1-.3 1.4.3 2.6 1.3 1.5.2 1.3-.4 2.6-1.2.7-.1.5.4.3.7.8 3.2.4 1 .5.8.8.6 1.7.8 3.9 1.2 1.5.2 2.5-.4h.6l.5.5.3 2 .2.8.4.6.9.8.9.4 1 .2h2.7l.7.3 1.4 1.7 1.2.8 1.2.4h1.4l1.6-.7 2-2.1.7-.4.6-.1 1.8.1.9-.1.9-.3 1-.6.7-.8.4-.7.1-.8v-1.7l.2-.4.3-.2 1.5-.3 5.1.3.9-.2.9-.5 1.1-.8 1-1.1.8-1.2 1.1-2.1.8-.8h.9l4.3.6 2.4-.1 1.5-.5 1.2-.6.9-.8 1.4-1.7.7-.4.9-.1 3.3 1.2 1.8.1 1.2-.5 1.8-1.8.7-.3.5.3 2.2 2.3 1.4.8 2.4.5 1.5-.1 1.2-.1 1.9-.7 1.5-.9 1.7-1.5 1.9-2 .9-1.1.6-1.2.5-1.2.9-3.1.4-.6.2-.2 1-.2 3 1.2 1.5.2 1.2-.4 1.8-1.1.6-.3.6.1 1.8.8h.9l4.3-1.1 1.1-.4 1.2-.9 2.3-2.5 2.7-2.1 5-4.3 2.7-1.7.5-.6.9-1.9.4-.6.6-.2 2.1.8.9.1 1.5-.3 1.3-.7 2.3-1.8 2.1-1 1.9-1.4 2-.8.8-.5 2.2-2.7 2.5-1.5.8-.9.3-.8v-.7l-.1-2.3v-.8l.3-.6.4-.3.9.1 1.6.5 5.7 2.7.9.3 1.2.1 4.8-.5 2.1-.4 4.1-1.6 1.3-.7 1.3-1 1.4-1.5 1.1-1.6.8-1.8.6-2.3.2-3v-4.1l-.2-2.4-.7-4 .1-5.2-.5-3.4v-1.1l.1-.8.3-.7 1.9-3.8.3-1 .2-.9-.1-1.4-.4-1.2-.6-1.1-1.8-2.3-.4-.7-.1-.8.7-.5 1.2-.3 7.8.7 1.2-.1 1-.4 1.3-1.1 1.7-2.3 3.4-5.3 3.8-5.6 1.7-2.8.8-2.1.1-1.5-.3-2.3v-.7l1.7-4.9.5-1.9.2-2.2-.2-1.5-.5-1.1-.7-.9-1.9-1.4-.3-.5-.1-.6.4-.8 4.6-4.9.6-1.1.2-.9v-1.3l-.1-1.5-.3-1.5-.4-1.1-1.4-2.5-3.6-5.6-1-1.3-1.2-.9-4.6-2.5-1.7-1.1-.2-.4v-.7l1.4-5.6v-1.5l-.1-.8-.5-.9-2.2-2.3-.4-.7-.3-1 .2-1.5.4-1.4.4-1 .6-.7 2.7-2.2.7-1 .8-1.1.7-1.5.5-1.6.5-1.8.2-1.5.1-2.3-.5-2.6-.7-2.2-1.4-3.1-1.2-2-1.1-1.6-1.3-1.3-1.5-1-1.2-.6-1.5-.4-5.2-.4-.5-.2-.1-.3.4-1.6.1-1.4-.1-1.1-.3-1.2-.6-1.2-1.3-2-.4-.9-.8-3.6-.9-2.8-.8-1.1-1.8-1.8-.4-.7-.2-.5V431l-.7-1.9-1.2-1.9-1.8-1.7-.9-.5-2.3-.8-1.2-.7-.9-.8-.4-.7-.3-1.4.1-4.2-.2-1.1-.3-.8-.6-.8-.9-.9-4.1-3.2-.7-.7-.4-.7-.1-.9.2-.7 1.1-2.4.5-1.7.3-1.5.2-1.9-.2-2.2-.3-1.9-.6-1.5-.9-1.6-1.5-1.7-2-1.7-3.7-2.4-2.8-1.4-1.5-.6-1.1-.2-6.3-.2-1.2-.2-.6-.2-.5-.6v-.8l.3-4.9-.1-1.8-.4-2-.6-1.4-.9-1.2-.9-.6-4.6-1.4-1.1-.6-.8-.7-.1-.4.2-.8 1-1.8.5-1.1.2-1.2.1-1.8.3-.8 5.2-5.7 1.1-1.7.8-1.6.5-1.5.2-1.5-.1-1.2-.5-1.1-.9-1.1-1.4-1-7.2-3.5-1.1-.7-.7-.7-.2-.5-.2-.7.8-3.3v-1.2l-.3-1.3-.6-1.3-.9-1.1-1.3-1.2-1.5-1.1-2.7-1.3-3.1-.7-1.7-.2h-4l-1.7-.1-9.4-2-1.5-.1-2.3.2-1-.1-.9-.5-1.7-2-1-.6-1.3-.3-3.6-.5-1.1-.4-.3-.3-.2-.5-.1-2.2-.5-1.5-.6-.9-.7-.8-.8-.6-.7-.3-.9-.1-1 .1-2.9 1.1-3.9 1.8-3.7 2.2-1.2.3-.9-.5-1.7-2.3-1.1-1-1.1-.5-1.5-.3-.9-.3-3-2.7-1.2-.7-1.5-.4-3-.5H461M447.2.1l-2.3 1.8-1.1.8-1.8.8-2.5.9-3.4 1.7-2.9 1.4L429 9l-4 2.5-5.9 3.2-6.7 2.3-1.3.5-.9.7-1.3 1.2-2.3 2.9-3.5 3.9-.8 1.1-.6 1.2-.4 1.1-.8 3.7.1.8.4 1 .7.9.8.6 3.3.8h1.5l1.5-.3 1.1-.5 1.9-1 3.3-2.3 1.8-1.5 2.4-.4.9-.4.6-.7.3-.7.9-3 .4-.8 2.1-1.5.6-.7 1.5-2.2 1-1 2.2-1.5.9-1 1.2-1.7 1.2-1 1.5-.9 1.8-.7 4.2-1 1.8-.7 5.1-3.4 4.9-2.3 1.3-.9 1.5-1.4 1.5-2.3.7-1.5M494.3 75l-1.6.2-4.3 1.8-2.4.9-1 .8-.8.7-.1.5-.1.6.4 1.1 1.2 1.6 1.4 1.5 1.2.6 1.2.5 1.4.1 1.6-.1 4.7-1.3.6-.3.4-.3.4-1.1.9-6v-1l-.2-.5-.6-.3-2.6-.1-1.7.1M817 169.1l.7-.6 2.2-1.1.9-.8.6-.7M4.7 647.5l-1.1-.4-1.5-.3-2.1-.1m0-45.5l.7.1 1.5.6 2.6 1.6" class="st1"/><path d="M4.7 647.4l1.4.5 1.8.8 3.4 1.7.8.5.4.6.2.5-.2 1.1-.6 1.2-1.5 1.9-.2.7v.8l.3.7 1.1 1.8.3.9v1.4l-.3 2.6.1.9.4.6.6.6 1.5.6 1.5 1.3.6.1 1.2-.4.7-.2.8.2 1.3.5 2.2 1.2 1.9 1.7.8.9.5.9 1 3.5.7 1.7.6.9 4.1 5.3.7 1.2.6 1.5 1.4 3.7.6 2.3.4 2.1v1.6l-.3 1.1-.6.8-.8.4-1.6.7-.5.4-.4.7-.2 1.1.4 1.1 1.1 2.6.5.8 1.9 1.8.7 1 .6 1.3 1.1 4.2.6 3.3.3.8 1.1 1.1 2 1.3 2.9 1.5 1.1 1 1.3 1.4 1.8 2.2 2.4 1.8 1.2 1.3 5.1 6.7 1.7 1.7 1 .8 1.5.6h1.5l1.2-.4 2.1-1.1 3-1.1 1.2-.2 1.5.3 1.5.6 2.2 1.2 6 4.3 4.6 3.1 1.8 1.7 1.3 1.8.8 1.8 1.5 4 1.8 2.9.8 1.3.3 1.4.2 1.2-.3 3.1-.4 1.4-.4 1.1-2.4 3.8-1.9 2.5-1.4 1.6-.4.8-1.3 4.9-.6 3v1.1l.3 1.9.5 2.2.4 1.2.6 1.1 1.1 1.5 2.8 3.4.6 1.1v.7l-.6.8-1.7 1.2-.9.9-1 1.6-.6 1.5-.3 1.5-.1 2.6.1 1.1.3 1.6-.1.9-.7 4.3-.8 1.9-1.1 1.5-3.8 3.4-.6.4-3 1-.9-.1-2.1-.9-1.8-.1-.7-.2-2.3-2-.5-1.2-.6-2.7-.3-2.1-.3-.8-1.2-1.8-2.5-3.1-1.8-3.4-1.2-1.8-.7-.6-1.2-.6-1.3-2-.4-.3-.6-.3-.6-.1-1.9.5-1.5.2-.8.3-.6.4-.5.6-.5 1.9-.6 1.1-1.8 1.5-2.7 3.7-1.5 1.2-1.2.7-3.3 1h-4.3l-3.2-.7-1.5-.7-1.2-.8-.7-1-2.2-6-1.1-2.2-1.7-2.1-4.8-5.1-1.9-3-.7-1.5-.5-1.5v-.7l.3-2.3V787l-.3-.7-.6-.1-6.6 2.4-2.4.1-1.4.2M431.9 411.1h-.9l-1.5.4-3.6 1.5-2.7.7-13 2.4-10.8 2.9-6.2.9-1.3.3-1.1.8-1.3 1.5-2.8 4.6-1.5 2.3-1.9 2.1-4.3 4.8-2.6 3.3-.8 1.2-.2.7-.2 1.1 1.1 5.7v1.8l-.3 1.5-.5 1.3-.8 1.3-3.5 3.8-1.1 1.5-.6 1.5-.2 1.5.5 2.2 2 5.3.8 2.6.4 2.3.2 3.3.3.8.6.9 2.5 2.8 2.2 3.4 1.3 1.3 1.6.9 3.3.9 1.2.5 1.5.9 1.5 1.2 1.5 1.8 3 4.1 1.6 1.9 1.7 1.5 3.9 2.7 1.6 1.4 1.4 1.9 1.2 2.3.4 1.4v1.9l-1.6 6-.6 1.8-.8 1.6-1.4 1.7-4.2 4.3-1 1.1-.3 1.1.1.8.5.7.6.4.8.4 1.2.3 3.1.3 8.3-.3 3.7.2 2.1.4 2.1.5 1.9.7 1.5.8.9.7.8.9.6 1.1.6 1.5.4 1.9.2 2.6.1 5.1.2.7.3.2.3-.1.6-.5 2-2.9 1.8-1.9 1.7-1 3.2-1.6 2.8-2 1.5-.8 2-.8 5.4-1.4h2.1l1.9.6 1.5 1.1 1.5 1.5 2.5 3 1.9 2.9 4.1 6.9 1.2 2.3 1.1 2.2 3.4 8.9.9 2 .6 1 .6.8.4.2.4-.1.9-.7 3.1-3.5 2.3-2.1 2.2-1.4 3.4-1.4 1.1-.7 1.1-1.7 1.7-3.4 1.4-3.5.6-1.1.9-1.2 5.4-4.5 2.4-1.5 3.3-1.1 4.6-1.2 9.2-1.8 1.2-.8.3-.4.3-.7v-.7l-.1-.7-.5-1.6-7.3-12.3-1.1-2.3-.2-1.1v-.8l.2-1.4.9-1.9 1.4-2.7 1.8-2.6 1.7-1.9 3.3-2.2 1-1.1.3-.8.1-.7-.2-1.1-.5-.8-1-1.2-3.3-2.6-5.2-4.8-1.4-1.9-1.2-3.1-.5-1.1-1.1-1.1-1.6-.9-1.6-.6-1.9-.3h-1.8l-5.4.4-5.7-.7-5.7.1-1.9-.2-1.4-.4-1.8-.8-1.1-.8-.6-1-.1-.8.1-.7.6-2.2 5.3-12.4 2.8-5.3.2-.7-.1-.8-.3-.7-1.6-2.2-.2-.8.1-.8.7-1.5 4.9-8.9.4-1.5-.1-.8-.1-.5-1.2-1.4-3.4-3-1.5-1.1-2.7-1.4-4.7-1.6-1.4-.6-1.1-1-2.7-3-2.2-1.8-2.1-1.2-5.1-2.5-1.8-1.1-.8-.8-.7-.8-1.8-3.7-.9-1.2-1.2-1-1.8-.5-2.4-.3h-7l-6.2-.4h-1" class="st1"/><path d="M445.3 377.3l-.4.2-1.2 1-4.2 5.4-1.7 1.7-1.7 1.3-1.8.6-1.1.2h-1.6l-2.4-.5-2.4-1.4-3.6-2.8-.6-.3-.6-.1-.6.2-.6.4-2 2.6-1.3 1.2-1.5.9-1.5.5-2.7.3-4.5-.5-1.9-.1-2.1.3-4.2 1.2-1.8.4h-1.4l-2.8-.5-.9.2-.9.4-2.4 2.2-1.7.9-4 1.3-5.4 1.1-1.3.5-1.3 1.1-1.4 1.9-1 2-.6 1.8-1.5 6.4-.9 2.6-2.2 3.8-.6.8-.7.6-5.1 3-1.6.7-2 .4-2.1.2h-2.1l-1.8-.3-3.9-.9h-1.2l-.9.2-1.5.7-3.7 2.3-3.6 2-1.1 1.1-.3.8v.7l.4.8.7 1.1 6.2 7.6 1.5 1.4 3.5 2.6 2.1 2.1 1.3 2 .4 1.1.2 1.2v.8l-.3 1.1-3.2 6.7-.5 1.9.1 1.8 1.4 5.3 1 4.9.2 2.6-.3 1.5-.4.8-.5.7-2.1 1.9-3 1.7-4.4 1.8-.6.6v.4l.6.7 1 .8 10.4 5.7.9.6.7.8.2.3.1.8-.2 1.1-.6 1.6-2.2 4.4v.7l.1.4.4.3 1.1.5 3.9.9 6.6 1 6.9 1.5 6.1 1.8 2.1 1.1 1.5 1.1 4 3.8.6.8.3.7v.8l-.2.8-.8 1.1-1.1 1.1-2.8 2.2-5.4 3.1-1.9 1.4-1.4 1.2-2.4 2.7-2.2 2.1-.6.8-.1.4v.3l.4.4 2.7 1.6 1.5 1.3 2.8 3.6 3 3.7.7 1.1.6 1.1.2 1.1.1 1.1-.3 1.6-.6 1.1-.7 1.1-1 1-2 1.6-5.1 3-.9.8-1.1 1-.7 1.2-.8 1.8-.3 1.6.1.8.6.3h.9l5.7-1.5 3-.5h2.2l3.3.6 1.5-.1 1.5-.6 6.9-4 6-3.3 2.1-1 2.1-.6 2.2-.4 1.8.1 1.2.4.5.5.5.6.3 1.6-.1 1.8-1 5.3-.6 2.6-1.7 5.3-2.7 10.4-2.2 6-.3 1.6.2 1.1.7 1.5 1.8 2.2 1.3 1.8.9.8.9.2 1.1-.1 4.6-1.1 1.7-.3 1.7.4 3.5 1.6 1.8.3.9-.2.6-.4.7-.7.8-1.3 1.2-2.1.8-1.6 1.6-5.5 1.1-2.6.8-1.2.8-1.1 2.9-2.6 1-1.2.8-1.4 1-3.1.7-1.4 2.6-2.7 3.1-3.7 1.7-1.8.9-.7 1-.3.9-.1.9.1.9.5.9.8.7 1 .8 1.4 3.3 7.8 1.9 5.5.5 1.9.4 2.3.2 7.8.2 2.6.8 2.7.5 1.2.6.8.6.4.9.3.9-.3 2.1-1.1 1.5-.5 2.4-.3 2.4.2 2.8.6 4.2 1.8 5.1 1.9 1.1.2.7-.2.4-.4.3-.8 1.1-3.8 1.8-4.5 1.6-4.8.6-1.2.9-1.1 1.2-.7 1.4-.7 1.2-.3 1.2-.1 1.6.1 1.7.3 4.6 1.6h.8l.6-.4.2-.6.1-1.2-.8-5.2v-1.1l.2-1.5.6-3.4.6-2.3.7-1.4.9-1 .9-.7 2.1-.9.6-.3.7-.7 1.2-1.9.9-.7 1.4-.6 1.5-.3 2.4.2 3.1.5 5.3 1.5 5.8 2.2 1.4.2.9-.2.6-.5.5-.8.9-2.4.6-3.4.3-4.5.3-1.1.4-.9.8-1.1 1.4-1.3 1.6-1.1 2.6-1.6 1.5-1.1 1.4-1.9.5-1.2-.1-.7-.4-1.1-3.9-6.4-2.4-4.7-1.1-1.6-3.5-3.4-1-1.5-.4-1.2v-.7l.2-.8.6-1.1 1.1-1.1 3.5-3 .8-1 .5-.9.4-1.7.6-5.8v-1.4l-.1-1.2-.3-1.1-1.5-3.5-.5-1.5-.4-1.8-.2-3.1-.4-1.3-.7-.8-1-.7-7.2-4-1-.9-.7-1.1-.2-1.1.2-1.6 3.5-9 .3-1.4-.2-.8-.5-.4-.9-.1-4 .6-2.1.1-6-.8-2.5-.5-4.1-1.7-2.2-.7-2.9-.4h-4.2l-.6-.2-.3-.5-.1-1 .3-1.5 1.5-4.9.6-2.6.6-1.2.9-1.1 4.9-4.8 1.8-1.3 3.8-2.5 2.1-1.8 1-1.2 2.7-4.1 3-3.1.7-.8.6-1.4v-1.5l-1.2-4.5-.4-1.1-.6-1-1.3-1.2-2.6-1.9-1.2-1.2-1.1-1.1-2.1-2.8-1.2-1.1-1.3-.8-1.6-.4-2-.2-4.4-.1-1.7-.3-1.1-.8-1.9-2.4-1.5-1.2-1.8-.9-3.9-1.1-1.5-.7-.8-.8-1.8-2.5-.6-1.1-.3-.8v-.7l.3-1.1.6-1 .7-1 2.6-2.6 1-1.1.8-1.5.3-1.1-.2-1.1-1.1-1.9-.4-1-.1-.9-.2-2.5-.3-.8-.5-.4-1-.3-7.1-.1-6.9-.8-2.8-.3-3.3.2-6.6 1h-3l-2.1-.4-3.6-1-3.6-.6-3.1-.9h-.8l-.5.1" class="st1"/><path d="M445 371.4l-.7.2-1.7 1.1-1.3 1.4-3.3 4.3-2.2 2-1.7 1.2-1.5.5h-1.9l-1.5-.6-1.8-1.5-2.8-3.2-1.1-1-1.2-.6-1.2-.2-1.5.2-1.5.9-1 1.2-1.6 2.9-.9 1.3-1.1 1.1-1.4.6-2.1.3-6.4-.3-5.7.5-1.4-.3-2.8-1-.9-.1-.9.1-.9.5-.7.5-3.5 3.9-1.2 1-1.2.7-1.5.7-1.8.4-6.1 1.1-1.2.4-1.1 1-2.3 2.8-1.5 2.6-.6 2.3-1.2 6-.6 1.6-.7 1.4-.7 1.1-1.2 1.2-3.9 2.8-2.1 1-2.7.5-3.3.1-5.7-.6-1.2.1-1.2.2-1.6.9-3 2.3-1.5 1.1-1.7.9-4.7 1.9-1.2.7-.9.9-.6 1-.2 1.1.1.8.6 1.1 1.1 1.1 2.9 2.8 5.6 6.6 5.9 6 1.4 1.8.5 1.1.3.8-.1 1.2-.6 1.8-.9 1.9-1.9 3-.3.7-.2.8.2 1.1 1.7 4.5.7 3 .2 1.9v1.9l-.2 1.4-.4 1.2-.5.7-.8.7-1.7 1.2-2.4 1-5.1 1.3-1.7.5-1.6.9-.4.5-.2.6.1.9.4.8.9 1 1.5 1.2 1.9 1.3 2.3 1.4 7.4 3.8 1.4.9.7 1.1.1.8-.1.8-.4 1.1-.8 1.5-1.6 2.2-3 3-1.2 1.5-.6 1.1.1.8.3.4.8.3 2 .5 2.2-.1 4.8-.7 2.1-.2 9.9 1.3 6.9 1.6 4.2 1.4 1.5.7 1.1.8.8.9.4.9v.9l-.3.6-1.2 1.4-6.5 5-3.2 3.6-1.2.9-6.3 4.5-1.7 1.9-1 1.5-.1.7.2.5.3.3.7.3 1.6.5 5.5.9 1.7.6 1.1.7 1.5 1.5 2.4 3.4.8 1.5.3 1.5-.1 1.1-.2.7-.4.8-.7.6-1.2 1-5.3 3.3-1.3 1.1-1.2 1.5-1.7 3.4-2.3 3.4-.5 1.1-.1 1.1.1.7.4.8.8 1.2 1 1 .8.6.9.4h.9l1.5-.4 10.5-3.3 1.8-.2 3.7.3 1.8-.2 2.5-1.1 6.6-3.8 5.9-2.9 2.7-.9h1.1l.7.3.5.5.3 1v1.1l-.1 1.6-.4 1.8-1.3 4.7-1.2 5-2.5 7.9-1.2 2.7-2.1 3.7-.4.8-.1.7.1.8.3.7 3.4 4.1 1.1 1.9.4 1.9-.1 3.7.3 1.2.3.3.3.2.9-.1 1.2-.7 2.8-1.9 2-1 2.8-.9 2.1-.2 1.8.4 3 1.5 2.3 1.3 2.5 2.1.6.2.5-.2.4-.5 2.1-4.8 3.1-7.4 1.6-5.4 1-2.1 1.2-1.5 2.8-2.5 1.3-1.4 1-1.7 1.3-3.6 1.5-2 1.8-1.9 1.4-1.2 1.2-.7 1 .1.9.6 1 1.4 1.1 2.2 1.2 3.2 2 6 .4 1.5.1 2.3v4.9l.2 1.4.4 1.9 1.2 3.8 1.1 2.6 1.2 2 1.5 1.8 1.2.8.9.1.9-.4 2.4-2.2 1.6-.9 1.7-.6 2.4.1 1.6.2 1.5.5 8 3.5 3.7 1.7 1.2.5.9.1.5-.2.3-.3.5-.7.1-1.2.2-3.7.3-1.9.4-1.5 1.2-3.1 1.2-3.6 1-2 .6-.7.9-.7.9-.5.9-.3h.9l1.2.3 3.1 1.2 5.3 3.1 1.3.6.9.2h.9l.6-.3.3-.5.3-.8v-1.1l-1.4-6-.9-4.9-.1-2.2.1-1.9.3-1.5.6-1.4.8-.8.9-.7 2.7-1.2.7-.8 1.1-2.1.6-.8 1.1-.6 1.3-.3 2.7.2 3.3.8 11.1 4.3 2.1.2.9-.2.7-.3.6-.7.5-.9 1.3-4.4.5-2.7.6-5.3.3-1.1.3-.8.8-1 1-.8 5-3.2 3-2.4.9-1 .7-.9.3-.7.1-1.2-.2-2.7-.7-2.5-.7-1.4-2.2-3.8-1.7-3.8-.6-.8-.9-.7-3.4-2.1-1.4-1-1.1-1.4-.4-1.1v-.8l.8-1.1 1.3-1.1 2.8-1.9.9-.9.5-1.1.4-1.7-.1-4.2.6-4.4v-1.2l-.2-.8-.3-1.1-2.2-4.1-.4-1.1-.2-1.2-.1-1.1.2-1.1.3-1.1 1.1-2.7v-.3l-.2-.5-.8-.6-4.7-1.5-3.9-1.8-1.9-1.2-.6-.8-.3-.6v-1.3l.6-2.2 1-2.7 2-4.4.6-1.9.3-1.9-.1-.8-.2-.8-.6-.6-.8-.5-2.1-.3-2.4.2-6 1.2h-1.8l-2.1-.3-3.3-.7-5-1.6-5.3-1.3-1.1-.6-.5-.6v-1.1l.8-1.9 1.4-2.7 1.4-1.8 2.7-2.5 4.7-2.8 2.8-2.2 1.7-1.7 3.3-4.3 3.8-3.4 1.3-1.4.8-1.2.6-1.5.3-1.5-.1-1.8-.3-3.1-.5-2.5-.4-1.6-.6-1.1-.7-.7-.6-.5-4.8-1.7-1.3-.6-.8-.6-1.3-1.5-2.2-4.5-1.1-1.3-1.2-.7-1.7-.3h-2.2l-4.7.3-1.9-.3-1.1-.8-1.7-2-1.1-1-1.5-.9-3.9-2.1-.8-.5-.4-.6-.2-.4v-.7l.4-1.1 3.1-5 3.2-4.4.5-1.1.3-.8v-.7l-.2-.8-1.5-2-.4-.9-.2-5.3-.3-1.5-.6-1-.9-.7-1.4-.1-5.7 1-2.4.1-6.7-1.1-3.5-.1-5.5.7-7.5 1.6-3.3.2-2.1-.2-6.3-1.3-1.5-.6-3.1-1.5-1.4-.2-.8.2M214.8.1l.1.2 1.6 2.4.5 1.2.5 1.7.2 2.2-.3 2.7-.7 2.6-1 2.5-1 1.4-2.5 2.8-1.3 1.7-.6 1.3-.4 1.4.2 1.2.6 1.1 6.1 5.1 1.5 1.5.7 1 .8 1.3.9 2.2.6 1.8.5 2 .2 2-.2 2.3-.3 2.3-.5 2.3-.6 1.5-.7 1.4-2.2 2.7-.6 1-.2.7-.3 1.2-.2 1.8V64l-.1 2-.9 5.9-1 6.4-.4 4.8-.5 3.4-.1 6v2.6l.5 2.3.8 2.2 1.2 2.3 3.2 5 3.3 5.9 1.2 2.4.5 1.9.8 5.8.9 5.1.5 2 1.3 4.2.4 2.1.2 1.9v4.2l-.2 2.3-.7 4.3-.4 1.4-.9 2.1v.8l.6.7 4.6 3 .7.3.8.3 1.9-.3 4-1.6 1.4-.4 9-1.3 6.1-2.2 3.4-2.4 1.5-.8 1.6-.5 3-.3 1.3-.5.7-.8.3-.7.1-2.3.1-.8 2.6-4.4.6-.5 2.2-1 1-.8 1.9-2.7 2.8-2.6 2-2.6.9-.4 2.2-.7.9-.4 1.2-1 1-1.2.8-2.3.9-4.1.4-2.6 1-6 .5-4.9-.2-3.4-.3-1.1-1.2-2.6-.6-1.8-.6-3.8V91l.5-1 .4-.6.8-.4 2.6-1 1.3-.7 1-.9 1.4-2 3.5-2.1 1.5-1.6 1-1.6 1.5-3.5.9-3.7 2.2-2.7.4-1.1.5-1.8.2-1.1.1-1.1-.7-3.5-.4-6 .1-1.1 1-2.6.4-2.3.2-1.4.1-2.3.3-2.2-.1-2.3.4-1.8.2-2.6-.2-2.7.1-1.9-.9-2.3-1.1-3.7v-.7l.1-.8.5-1.1 1.4-3 .5-2.2.7-1.9 1.4-4.5 1.1-2.7 1.3-4.1.4-2.2V.1" class="st1"/><path d="M449.4 389.3l-.6.1-1.3.5-.9.8-2.9 2.9-1.9 1.4-2 1.2-2.4.8-2.2.3h-2l-5.8-.9-1.5-.1-1.5.2-5.7 1.9-3 .7-3 .1-5.1-.5-2.2.1-4.6 1.1-11 3.4-5.7 1.1-1.2.3-1.3.8-.6.7-.5.8-5 14.7-1.1 1.7-1.5 1.4-8 5.5-1.3.6-1.2.4-2.1.3h-2.4l-3-.5-4.8-1.1H349l-.7.3-.1.3.1.8.3.7.6.7 1.7 1.6 4.9 3.7 1.2 1.1 1.3 1.6 1.3 1.8 1 1.9.8 1.8.4 1.6v1.1l-.4 1.1-4.1 5.7-.7 1.4-.5 1.5-.1 2.3.5 2.6 1 3 2.1 5.6.3 1.1.1 1.2-.2 1.1-.5 1.1-.8 1.2-1.9 2.2-.4.8-.2.7.1.4.7.7 2.4 1.5 1.1.8 1.2 1.2 1.1 1.4.6 1.2.3 1.1v.7l-.4 1.9v.7l.3.7.4.6 1 .6 1.8.8 10.9 2.7 1.8.7 1.4.7 1.3 1 1 1 2.6 3.6 1.1 1.1 5.2 4.1.8 1 .4.9.1 1.1-.3 1.6-.7 1.4-1 1.3-3.1 3.3-3.1 2.8-2.6 2.1-3.8 2.8-.8.9-.2.7v.8l.2 1.1.5 1.1.6.9.9 1.1 4 3.2 1 1.2.7 1.1.3 1.2.2 1.1-.1 4 .3 1.4.3.4.6.2 1.5-.2 1.5-.7 3.3-2 1.8-.8 2.4-.8 2.7-.3 7-.4 2.6.2 1.2.3 1.1.5.7.8.5.9.3 1 .1 1.5-.1 4.1-.3 2.3-.9 4-.4 4.2-.7 2.2-1.8 4.2-1.4 4.9-1.8 8.2-.2 1.5.3.7.5.3.6.1 2.9-1 1.3-.1 1.2.1 2.1.8.6-.1.3-.2.8-1.2 1.5-4 1.3-2.6 1.2-1.8 3.1-4.2.7-1.3 1.4-3.2 1.1-1.8 3.6-3.1 1.6-1.7 1.7-2.3 2.7-3.9 1.3-1.3 1.5-1 1.4-.7 2.8-.6 1.5-.2.9.2 1.2.5 1.5 1 1.2 1.1 1.8 2.4 1.9 3.6 1 2.3 1.3 4 2.1 4.7 1.5 4.3 1 4.2.7 6 .5 1.3.6.5.9.4 6 1.3 5.4 2.1 1.2.1.9-.7.8-1.7 1-2.5 2.2-7.2.8-1.9.9-1.2.9-.7 1.2-.4 4.2.2 2.4-.4 1.4-.6 1.1-.9.8-1.7.6-1.8.3-1.5.3-3 .6-2.6.7-1.8.9-1.1 2.7-1.9 2-2.2 1.1-.8 2.3-1 3-.8 2.4-.3 2.1-.1 2.1.3 3.9 1 2.4.4h2.7l1.3-.3.5-.4.2-.5.9-3.2 1.5-3.8.8-1.7 1.7-2.8.5-1.1.1-.8-.2-1.1-1.2-3-2.3-4.1-3.5-5.3-1.8-2.9-1-2-.3-1.5v-.7l.1-.7.8-1.5 1.5-1.5 3.9-2.9 1.3-1.2 1-1.4.7-1.7.3-2.6-.2-2.2-1.4-4.5-.7-3.4-.5-1.2-.6-.7-1-.8-4.2-2.2-1.3-.9-1.1-.9-1.2-1.6-.9-1.5-.4-1.4-.1-1.9.2-3.8-.3-1-.6-.5-1.3-.6-6.4-1.8-4.3-1.9-1.4-.4-2.3-.2-6 .6H493l-2.7-.6-.6-.4-.4-.7v-.7l.4-1.1 2.5-5.3 1.5-4.4.7-3.4.2-3.8.5-1.5.7-1.1.9-1.1 2.9-3.1 3-3.4 3.7-3.5 1.7-2 .7-1.5.2-1.6-.3-1.4-.8-1.2-2.8-2.9-2.3-3.1-1.1-.9-1.3-.6-3.4-.9-1.2-.4-1.4-.9-2-2.2-1.1-.9-1.5-.7-4.6-1.1-1.2-.6-1.1-.9-1-1.5-1.6-3.4-1-1.7-1-1.2-3.3-3.4-.8-1.1-.5-1-.4-1.3-.1-1.2.2-1.1.7-2.2.1-.7-.3-.8-.4-.4-1.4-.7-6.4-2.3-1.8-.4-2.1-.3-6.2-.1-5.5-.4h-.6" class="st1"/><path d="M446.9 383.1l-.5.1-.9.6-4 4.9-2 2-1.8 1.1-1.9.7-2.4.3-2.4-.1-2.1-.6-3.5-1.5-1.3-.2-.9.3-4 2-3.8 1.1-2.7.3-5.1-.7h-1.5l-1.6.2-10.2 2.4-7.1 2.5-5.5 1.3-1.5.4-1 .6-.9.8-.9 1.2-.9 1.5-.7 2.1-1.3 4.7-2.7 7.5-.7 1.4-1 1.1-7.3 4.4-1.5.7-1.3.4-2.1.3-2.7-.1-2.4-.4-4.2-1.1-1.5-.1-.9.2-1.2.5-1.3.9-1 .9-.6 1.1-.1.7.4 1.1 1 1.5 1.6 2.1 1.5 1.5 4.8 3.6 1.9 1.9 1.4 1.7.9 1.2.5 1.1.2 1.1-.1 2-.4 1.8-.5 1.1-1.6 2.9-.7 1.7-.7 1.8-.3 1.5.1 1.1.3 1.6 2.8 11.2.1 1.1v.8l-.6 1.2-.9 1.3-3.7 3-.8.9-.3.7v.4l.2.7.6.8 1 .7 5.6 3 .9.8.5.6.2.9-.1 1.1-1.1 2.9-.4 1.6.2 1.1.6.8.7.4 1.2.4 3.7.9 3.9 1.1 8.5 1.8 2.4.9 1.5 1 1.5 1.2 3.1 3.5 4 3.4.6.7.4.7v1.2l-.6 1.5-1.1 1.5-1.7 1.8-2 2-2.4 1.8-1.8 1.1-3.3 1.7-1.3.9-1.2 1.2-.5.8-.2.7-.1 1.1.4 1.1.9 1.9 1 1.9 2.3 2.9 2.6 2.3 1 1 .7 1.3.3 1.1.1 1.1-.1 1.1-.2 1.3-.5 1.4-1.2 2.2-2.6 3.4-.4 1v.7l.9.8 1.4.5 1.1.1 1.6-.3 2.1-1.1 11.1-6.3 2.4-1.1 2.1-.5 4.5-.3 3 .2 1 .3.9.4.6.7.5.8.3 1.5-.1 2.2-1.8 9-3 9.4-3.7 13.5-.1 1.1.1.7.4 1.2.8 1 .8.9 1.2.3 1.9-.3 3-1.1 1.1-.3 1.6.2 2.4 1.2.9.3h.9l1.1-.8 1-1 .6-1.1 1.8-5.7 1.2-2.6 1.7-2.6 3.3-4 .6-1.3 1-2.6.6-1.1 4-4.1 5.7-7.1.8-.6.6-.3 1.9-.1 3.3.3.8.3 1 .4.7.6.6.8 1.5 2.6.6 1.9 1.3 4.1 2.7 6 .8 2.3.6 1.8.3 2.3.3 3 .3 7.2.2 1.1.3.5.6.3.6.1 4.8-.3 3.3.4 3.1.8 6 2.5 1.1.2.6-.2.4-.3.7-1.2 2.3-5.1 1-4.1.5-1.5.9-1.8 1.2-1.6 1-.6 1.5-.4 7.8-.8.8-.3.5-.5.6-1.3 2.3-10.3.9-2.1.9-1.3 3.3-2 .6-.6 1.2-1.5.9-.8 1.8-.7 2.1-.4 2.4-.1 2.4.3 7.8 1.8 4.2 1.2.9.1.7-.3.6-.7.5-1.2.2-1.4.4-4.6.5-1.5.6-1.3.7-1.3.9-1.1 1.4-1.4 2.6-2 .6-.8.3-.7v-.8l-.1-.7-1.1-2.2-4.4-7.4-4.8-6.8-.7-1.3-.5-1.4-.1-.8.1-.7.3-.8.4-.7 1.2-1.2 3.9-3.3.8-.8.7-1.1.5-1.1.3-1.9.5-2.6v-1.9l-.3-1.9-1.7-4.4-.6-4.2-.8-1.5-.8-.9-1.2-.9-6-3.5-1.1-1.1-.9-1.4-.3-1.5-.1-1.6.4-1.8 1.3-4.1v-.8l-.2-.5-.7-.6-1.2-.4-6-.8-2.8-.6-2.1-.8-3.5-1.5-1.8-.5-2.8-.2-4.2.6-1.8.1-1.2-.3-.5-.5-.1-.3v-.8l.2-1.2 1.5-4.4 1.2-4.2.4-1.8.4-2.9.5-1.3.9-1.1 3-2.6 3.3-3.8 4.7-3.7 1.5-1.5.9-1.1.6-1.1 1.7-3.5.4-1.1.2-1.1-.1-1.1-.3-1.3-.6-1.4-.9-1.4-2.1-2.6-2.1-3.1-1.5-1.5-1-.5-1-.3-2.5-.4-4.5-.2-1.5-.3-1.1-.9-1.9-2.6-1.2-1-2.1-.9-4.3-.9-.9-.5-.7-.6-.7-1-1.6-3.3-.8-1.2-2.1-2.3-.6-1-.2-.8v-1.1l.3-1.5 2.6-4.2.4-1.1.2-.7-.1-1.1-.4-1.1-.5-.8-.8-.6-1.8-.7-9.4-1.8-3.3-.2-8.7-.2-6.3-1-4.6-.4-.6.1" class="st1"/><path d="M492.2 339.4l-.4.1-4.8 2.7-5.1 2.6-1.8.8-1.6.4h-1.2l-1.1-.3-5.2-3.4-.8-.3-.9.1-.6.4-.4.8-.7 3.6-.6 1.3-.8.6-2.4 1.1-.6.5-1.8 2.1-.6.3-.6.2-.6-.2-.9-.5-3.9-3.7-1.5-1.1-2.1-.8-2.7-.6-2.4-.1-.9.2-.9.4-1.6 1.2-3.8 3.9-.9.6-.7.2-.9-.2-.8-.4-3.3-2.7-1.6-.8h-.6l-.6.4-.5.6-1.1 2-.5.4-.6.1-.9-.4-3.3-2.1-3.3-1.6-3.1-.9-.8-.1-.6.2-4.3 2.2-1.1 1.1-.6.8-.5 1-1.5 4.3-.7 1.6-1 1.4-.9.7-.9.2-.8-.1-3.4-1.5-1.2-.1-.6.2-.6.5-1.8 2.4-.6.4-.9.2-.9-.3-.9-.3-6-3.6-1.5-.4h-1.2l-1.3.5-1.1 1-.7 1-1.3 3-1 1.8-1.2 1.6-1.2 1.1-.6.1h-1l-4.1-2.1-1.3-.3-1.2-.2h-1.1l-1.2.3-1.3.5-1.2.8-1.5 1.3-1.2 1.8-.6 1.5-1.5 4.5-1 2.2-.8 1.5-1.2 1.2-2.5 1.3-.8.9-.2.8-.1 1.1.3 4.9v2.2l-.4 1.7-.3.6-.5.4-1.2.3-3-.1-1.2.1-1 .4-2 1.6-1.2.7-1.8.5-1.9.1-1.7-.3-1.8-.7-1.9-.9-3.9-2.6-1.5-.8-1.2-.2-.8.5-.4.5-.4.9-.1 1.8.3 1.9 1.2 3 .5 1.5v1.1l-.3 1.1-.6.8-.9.7-8.8 5.5-1.5 1.1-1.4 1.3-2.6 3.2-3 4.7-1.6 3-.5 1.8.1 1.2.3 1.1.7 1.2 1.1 1.4 2.5 2.4 5.8 4.4 2.1 1.9 2.1 2.2 1.6 2.6.4 1.1v.8l-.2.5-.7.6-1.5 1.2-3.6 2.1-4.3 1.9-.6.5-.3.7v.4l.4.7 1.5 1.5 2.1 1.5 4.4 2.7 1.5 1.1 1 1.1.3.7v.4l-.1.4-.6.7-1.4 1.1-1.8 1.1-3.5 1.6-1.4 1-.7 1.2-.6 3.4-.6 1.3-1.2 1.1-3.9 2.3-1.5 1.4-1.8 2.2-1.6 2.2-.5 1.1-.2 1.2.1.7.4.8 1.4 1.8 1.9 1.7 1.7.9 1.7.3 5.5-.1 3.4.1 2.4.5 1 .4.5.4.1.3-.1.4-.5.8-3.2 2.5-1.1 1.2-.8 1.1-.3 1.2-.1 1.1.3 1.1.7 1.1 2.1 2.7.4.7.1.7-.1.8-.4.7-.8.9-2.5 2.2-.8 1.1v1.1l.2 1 .8 1.2 1.1 1.5 1.1 1.2 1.2.8 1.3.7 1.2.4 2.3.5 4.3.3 5.8.2 1 .3.3.5v.7l-.4 1.1-1.3 2.3-2 2.3-4.8 4.9-1.2 1.4-.6 1.5-.1.8.1 1.2.3.7.5.9.6.6 1.2.7 2.9 1.2 8.5 2.6 1.5.7.3.4v.4l-.5.7-.7.8-6.9 5.1-2.2 2-1.7 1.8-1.3 2-.7 1.5-.1 1.4.3 1.1.6.7 1.2.5 5.1 1.2 4 .6.8.5.6.7.3.7.1 1.2-.5 4.5-.1 1.5.2 1.1.3.6.6.7 1 .5 5 1.2.6.5.6.6.1.8-.1 1.4-.9 5.3-.2 2.2.1 1.1.3.9.4.6.7.5.9.2.9.1 7.5-.2 2.4-.1 1.5-.4 1.2-.7.9-.9 2.8-4 1.7-2 2.1-1.5.9-.3.6.1.1.3v.3l-.7 2.6-.3 2v2.2l.4 6-.1 1.8-.4 2.7v1.1l.4.9.6.4 1 .2 3 .1.7.3.4.3v1.2l-1.1 3.7-.4 1.9-.1 1.9.4 1.6.4.6.6.8.8.5.9.4 2.2.2 4.8-.1.9.2.9.5.6 1 .6 1.4.7 4.5.4 1.6.8 1.3 1.1.9 1.7.5 1.9-.2 2.1-.6 2.6-1.4 1.9-1.1 1.7-1.2 1.9-1.7 3.6-3.8 1-.7.9-.3.6.2.3.3.4.8.5.9.9 3.7 1.1 6 .4.7.3.5.6.2h.6l3.6-1.5 1.1-.2h1l2.1.5 4.5 2.4 1.2.3 1.2-.2.9-.7.9-1.4 2.9-6.3 2.5-6.6 2.5-5.4.9-1.6.6-.3.6.4.5.8 2.8 5.3.9 1.9 1.5 3.8 1.4 2.7 3.1 4.8 1.2 1.5 1.2 1.2.9.6.9.2 4.8-.2 5.7.7h1.2l1.2-.2 1.3-.4.9-.8.8-.9.5-1.2.2-1.3.2-1.9.1-7.4.3-1.4.5-.6 1-.2 1.2.4 7.4 4 4.6 2.7 1.2.4.9.1.6-.2.6-.4 2.4-2.6 1.6-1.2 1.7-.6 4.3-.8 2-.6 1.5-.7 1.2-1 .8-1.5.3-1.8-.3-2.7-1.1-4.8.1-1.1.4-.5.9-.1 1.4.2 7.4 1.9 2.3 1 3.5 2.3.9.2.6-.2.5-.6.3-.9.5-6.4.5-1.8.8-1.3 2.8-2.5.5-.8.4-1.1.2-.7v-1.1l-1.1-7.5V588l.4-.6.8-.1.9.2 4.2 2.1 2.5 1 1.8.4 1.7.1h1l.9-.5.6-.7 1.5-2.6.6-.5.8-.4 1-.1 1.2.2 4.2 1.2 2.1.4 3.6.3 1.5-.1 1.2-.3 4.5-1.7 1-.5.6-.7.3-.8-.1-1.2-.3-1.1-.9-1.8-3.6-6-2.8-4.1-.4-1.6.1-.7.2-.4.8-.7 3.5-1.7.8-.5.7-.8.3-.8.1-.7-.2-2.6.1-1.2.2-.7.4-.7 1-.9 2.8-1.4 1.7-1.2 1.7-1.4 2.3-2.7.8-.4 1.2-.1 1.6.4 4.2 1.3 1.2.1h1.2l1.2-.5.9-.7.9-1.1.6-1.2.6-2.2 1.2-6.4.2-1.9-.2-1.5-.4-1.1-.6-.8-.9-.7-3.1-1.9-.3-.4-.2-.8.3-.7.5-.8 3.5-4 .6-1.2.1-.8-.1-.3-.4-.5-2.8-1.9-.6-.6-.5-.7-.3-1.5.2-3.4-.1-.8-.2-.5-.7-.7-1.2-.3-3-.5-2.4-.2-4.3.3-5.3 1.1-.9.1-.4-.2-.3-.3-.3-.6-.1-.8.2-1.5.4-1.1 1.1-1.5 2.9-3.8.4-.7.1-.8-.1-.7-.3-.5-2.4-2.6-1-1.3-.2-1.3.3-1.1.8-1.1 1.2-.9 3.7-2.3 2.6-1.8 3-1.4 1.1-.8 1.5-1.8 1-1.5.2-1.1-.1-.8-.2-.7-.9-1.5-1.3-1.5-4.8-4.3-3.4-3.4-1.8-1.3-1.7-.7-3.1-.5-3.6-.4h-4.5l-.9-.1-.5-.3-.4-.6.1-1.5 1.6-4.9.4-1.8-.2-1.6-.4-.8-.6-1.1-2.1-2.2-2.8-2.1-2.6-1.2-6.9-2.3-.8-.5-.5-.6.2-.8.6-.7 1.2-1.2 1.1-.8 1.7-1 3.8-1.7 5.8-2.9 1.6-1.1.4-.5.3-.6V431l-.7-1.5-.8-1.1-2-2.3-.4-.7-.3-.8v-.6l.1-.5 1.4-1.8.5-1.2.3-1.1.1-1.2-.3-1.8-.5-1.5-.9-1.2-2.1-2.1-.3-.5-.2-.7v-1.1l.5-1.9 1.7-3.4.1-.7-.3-.8-.6-.7-1.4-.8-1.8-.7-1.6-.3-3.5.1-10.5.8-1-.1-.9-.3-.5-.4-.3-.7-.3-.7V395.8l.8-5.7v-1.7l-.1-.5-.3-.6-.8-.5-.9-.1-1.2.2-6.4 2-3.2.7-2.5.2-.9-.3-.4-.2-.2-.5v-.5l.4-1.9 1.1-2.6 2-4.2.9-2.2.4-1.9.1-3.4.2-1.1.4-1.1 1.3-2.6.4-1.2.1-1.1v-2.6l.2-1.5 1.4-6v-1.1l-.3-1.2-.9-1.2-3.9-3.1-3.2-3.5-.8-.8-1.1-.6-1.4-.4-1.8-.3-2.9-.2h-2.2l-2.4.4-1.2.5-2.1 1.1-.6.3h-.6l-.6-.4-.7-.7-.8-1.2-1.5-2.6-.3-.4-.6-.3-.5.2" class="st1"/><path d="M492.7 330.6l-.9.2-1.4.6-4.3 2.5-4 1.5-1.7.4-1.3-.2-1.5-.5-1.4-.8-3.2-2.1-2.3-.9-1.4-.3h-2.1l-7 .3-.9.4-.1.4v.7l.4 1.1 1.6 3 .4 1.5.2 1.5v1.2l-.2 1.1-.3.6-.5.6-.9.3h-.6l-.9-.4-2.1-1.4-1.2-.5-5.1-1-3.9-1.1-1.2-.1-.9.3-.9.6-4.2 4.4-.9.6-1 .4-.6-.1-.9-.5-2.3-2.1-1.2-.7-1-.5-1.2-.3-1.2-.2-.9.2-.9.4-1.5 1.2-.6.1-.6-.1-6.9-3.6-3.6-2.6-1.2-.3-1.2.1-1 .6-1 .9-1.9 2.6-1.2 1.9-1 2.2-1.1 4.2-.7 2.2-.8 1.6-.6.6-.6.1h-.6l-3.1-1.1-1.1-.1-.6.2-.7.4-1.6 1.6-.8.6-.9.4h-.6l-1.5-.6-3.4-2-1.7-.8-1.8-.3-1.8.2-2.9.9-1 .6-.8.6-.8 1.2-2.1 4.7-.6.8-.5.5-1.2.1-3.8-.9-2.5-.1-1.4.3-1.4.6-2.3 1.4-3.1 2.8-1.8 2.3-.8 1.8-1.1 4.6-.4 1.1-.6.8-.7.6-.9.4-3.8.8-.6.4-.5.6-.3.9-.1 1.1.5 4.4v2l-.3 1.5-.6.6-.9.1-2.7.1-1.2.2-1.2.4-2.7 1.5-.9.2h-.9l-1.5-.4-1.9-.7-6.3-3.4-1.7-.9-1.6-.3-.6.1-.6.3-.9 1-.6 1.5-.7 1.9-.3 1.8-.1 2 .2 1.8 1.2 5.3-.1 1.1-.2.7-1 1.1-1.3 1.2-4.9 2.9-1.5 1.1-4.2 4.2-1.2 1.5-2.1 3.6-3.8 5.4-.6 1.1-.4 1.1v1.2l.3 1.5.8 2 .9 1.7 1.8 2 7.4 7.1 1.2 1.4.8 1.5.1.8-.1.3-.6.8-1.2.8-4.2 1.7-1.7 1-1.7 1.4-.4.7-.2.8v.7l.5 1.2 1.5 2.1 2 2 4.3 3.4.7.7.2.4-.3.7-.8.8-3.8 2.3-.8.7-.7.8-.3 1.1.2 2.9-.3 1.1-1 1.2-3 2.1-1.3 1-2.4 3.3-2.3 2.6-.7 1.1-.5 1.1-.1 1.1v1.2l.6 1.9 1.3 2 2.4 2.5 2.5 1.9 1.8 1.1 2.1.7 1.9.2 2.9-.1.5.1.3.4.1.5-.2 1.2-1.3 3-.4 1.5.2 1.4.9 2.3.1.8-.1.3-.4.8-2 2.2-.7 1.1-.5 1.6v.7l.3 1.1.9 1.9 1.4 2.7 1.2 2 1.1 1.2.9.8 1.1.7 2.6 1.3 2.3 1.1.7.4.4.7-.1.7-.9 1.5-.4 1.1-1.1 4.5-.3 1.5v1.6l.1 1.5.6 4.4.4 1.2.8.7 1.5.8 1.8.4 4.9.6 1.1.4.2.4-.1.4-.4.8-3.4 4-1.7 2.3-1.5 2.7-1.1 2.2-.6 2.2-.2 2 .1 1.1.3 1.1.8 1.6.5.6.7.6 1 .4 1.1.3 2.5.1 5.7-.3 1.2.3.9.5.3.8.1 1.1-.8 6v1.1l.1.8.3.7.8.5 4.9 1.1.9.3.7.7.1.8v.8l-1.3 5.1-.1 1.6.1 1.5.5 1.5.8 1.7 1.2 1.5 1.4 1.1 1.2.6 1.1.4 1.2.2 1.3-.1 3-.5 6-1.9 4.9-.8h.8l.3.4v.4l-.6 1.5-.9 1.9-1.9 3.2-1.2 3.1-.3 1.1-.1 1.1.1 1.2.3.8.4.4.5.3 1.4.2 2-.3 3.6-.9.9-.1.4.2.3.5.1.8-.5 4.4.2 2 .3.9.6.8.7.6.9.6 2 .5 2.6.3h2.3l3.7-.6h.6l.5.3.6.6.3 1 .3 5 .4 1.9.3.8.6.8 1.4 1.1 1.9.6 2.7.3 3.3-.4 3-.8 2.2-.8 3.2-1.9 1.9-1.3 2.6-2.5.6-.3.6-.2.3.2.4.4.4 2.1.1 2.3-.1 3.8v1.2l.4 1 .7.6.9.5 1.1.2 2.2-.2 2.4-1 2.7-1.9.6-.3.6-.1.9.3.9.8 2.7 3.2 1.2.9.9.4.9.1h2.4l1.5-.4 1.2-.5 1.1-.8 1-1.1.9-1.5.6-1.4 1-4.9.5-1.4 1-1.3 2.1-2.2.6-.2.2.1.3.3 2.3 4.5 1.2 1.9 3.4 4.3 2.5 3.7 1.2 1.2 1.2.3h.6l.9-.4 3-2.4 1.7-.7 1-.2 1.1.2 4.6 1.2 2.3.3 1.1-.3 1.2-.4 3.1-1.9 1.6-1.4.5-.9.4-.9.2-1.1.1-1.5v-5.3l.2-1 .5-.2 1.5.5 3 1.8 7.5 5.7 2.7 1.7 1.5.8.7.1.6-.1.5-.6.3-.8.9-6.1.3-1.1.6-.8.6-.4.9-.3 4.6-.7 2.7-.7 2.1-1.1 1.6-1.6.7-1.2.5-1.3.1-1.6.1-3.4.2-.8.4-.4.6-.1.9.1 2.1.9 1.8 1.1 3.3 2.8 1.5.9 1.5.3 1.4-.5.7-.6.9-1.1.9-1.9.8-2.3.7-2.9.2-4.5.3-1.1.3-.5.5-.6 2.9-1.4.6-.5.5-.6.3-.9.3-1.2.5-4.3.2-.6.4-.3 1.2.1 3.3 1.4h1.5l1.8-.6 1.6-1.1 1.1-1.2 1.4-2.4.4-.3.6-.2h1.2l5.2 1.3 2 .3h1.5l2.5-.4 4.1-1.7 2.5-.2 1.7.3.9.6.6.8 1.4 3 .8.9.6.5.9.4.8.2 1.3-.1.7-.4.5-.5.3-.7.3-1.9v-3.7l-.5-2.3-.7-1.3-2.3-2.2-1.3-1.7-2.8-6.2-3.3-5-.5-1.2-.1-.7.3-.5 3-2.2.6-.7.3-.8.2-.7-.1-.7-.9-3.4-.1-.8.2-.6.6-.9 2.9-2 2.3-2.6 1.3-.8h1.2l3.3 1.4 1.2.2h1.5l2.1-.2 1.8-.4 1.5-.7 1.2-.8.9-.8.9-1.1 1.5-2.7 2.6-8.2.8-2.6.3-2V533.2l-.3-1.4-.3-.7-.6-.8-.9-.8-2-1.5-.3-.3-.1-.4.5-1.1 2.6-3.4 1.4-2.2.4-1.2.2-1.1v-.7l-.3-.7-.5-.6-.8-.4-1.2-.2-3.4-.2-.8-.2-.8-.5-.3-.6-.3-.8-.2-3.7-.3-1.9-.7-1.5-.8-.7-.6-.3-.8-.1-3.9.3-2.1-.1-2.6-.4-1.4-.8-.3-.5 1.1-2.5.2-.9v-1.1l-.4-1.1-1.3-2.2-.2-.8v-.4l.5-.8 1.1-1.1 1.7-1.1 4.1-2.1 1.4-1.2 1.4-1.6 1.5-2.2.9-1.6.6-1.4 1.1-3.6.9-1.6 1.7-2.7.3-.7.1-.6-.1-.2h-.6l-1.9.7-1.1.3-.9-.1-.8-.3-1-.7-1.7-1.7-.9-.6-1.1-.5-3.2-.7-1.5-.8-1.8-1.7-3-3.8-1.3-1-1.2-.6-5.1-2-2.1-1.1-.3-.4-.2-.7.7-3v-.8l-.3-.7-2-2.5-2-3-2.2-3-1-.9-2-1.1-.8-.8-.1-.4.4-.7 1.7-1.1 2.1-1.1 3.9-1.5.9-.5.7-.6.2-.5.2-.7-.2-1.1-.4-1.1-1-1.5-2.6-3.4-.6-1.1-.2-.8v-.7l.3-.8 2.1-3.4.4-.7v-.8l-.3-1.4-1.7-3.8-.9-1.5-1.5-2.1-.4-.9v-.7l.3-.8 2.2-3.4.3-1.1.1-.8-.2-1.1-.4-.8-.7-1.1-1.6-1.4-1.9-1.2-1.9-.7-2-.4-2.7.1-4.8.8-5.2.6-2.4.5h-1l-.3-.3-.3-.4-.2-.5v-.8l.3-1.5 1.6-5.6.4-3-.1-1.6-.4-.6-.3-.4-.7-.4-1.1-.3h-2.7l-3 .5-6 1.8h-1.3l-.5-.2-.3-.3v-.7l.2-.8 2.1-5.3 1.2-4.5.8-1.7 2.3-3.5.8-1.9.1-.7-.1-.8-.5-2.2v-.7l.3-1.2 1.2-2.1 3-3.9.3-.8.1-.7-.2-.8-.9-1.1-5.3-3.9-2.3-2.1-1.6-1.9-2.4-3.7-1.2-1.3-1.6-1.3-1.8-.7-2-.4-2.5.1-1.8.5-5.7 1.9-2 .4-.7-.2-.6-.9-.4-1-.6-2.7-.6-1.2-.8-.8-1.2-.3-1.5-.1-.9.2" class="st1"/><path d="M460.7 291.2h-.8l-1.2.5-5.1 2.7-3 1.9-1.4.3-3.1.6-1.6.6-1.9 1.1-1.6 1.4-.6 1-.1 1.1.5 1.5 1.4 3.4.4 1.5.2 1.6-.2.5-.3.3-2.5-.2-1.2.2-1 .5-2.4 1.9-.6.2-.6.1-2.1-.9-1.8-.2-.9-.2-2.9-1.3-1.6-1.3-.9-.5-3.6-.8-1.5-.2-1.5.3-2.1 1.3-1.1.3-2.8.5-2.5.5-3.9.4-1.7.5-1.5.9-3.4 2.7-1.8 1.1-2.5 1.1-7.1 2.7-1.2.8-.6.7-.3 1.1-.1 1.1.2 1.7-.1.6-.4.6-1.7 1.6-1.8 2.3-.4.8-.5 1.1-.4.4-2.6.3-8.5 2.4-5.4.6-2.1.5-.7.5-.4.5-.4.8-.8 2.7-.4.6-.6.4h-1.2l-3.6-1.2-1.2-.2-1.5.1-1.2.4-1.2.9-1.7 1.5-1.3 1.6-.7 1.1-.3 1.1-.2 1.1v1.1l.3 2.7v.7l-.4 1.1-.8.8-.9.4-4.6 1.9-4.1 1-2.5 1-1.2.8-1.7 1.8-.7.4-2.7.1-.9.1-1.1.8-1.3 2.1-.6.6-.8.3-3.1.5-3.1 1.2-2.9 1.5-2.7 1.9-1.2 1.1-.9 1.1-3.6 5.8-1.3 1.7-2.5 2.7-.7 1.1v1.1l.3 1.6.8 1.5 1.8 2.9.4 1.2.1.8-.1.7-.1.7-.6 1.2-1.4 1.8-1.5 1.2-1.3.4h-2.7l-1.2.3-1.3.6-1.1 1.1-.7 1.1-.8 1.4-1.1 3-.1 1.4.3 2.6-.3 1.2-.8 1.1-2.6 2-3.5 3.3-2.8 2.2-.9 1-.8 1.3-1.5 4.1-2.5 3.3-1 3.1-1.3 2.2-.3 1.5-.1 3-.4 2.2.1 1.2.6 2.2-.1 1.2-1.3 3.3-1.6 2.2-.6 1.5-.4 1.9-.2 3.4.6 5.6.3 1.1.5.9 2.3 2.2.5.7.2.7-.2.4-.3.4-1.5 1-1 1-.9 1-.6 1.1-.5 1.8-.3 3.1-.3 1.5-1.7 4.7-1.7 3.5-.3 1.5v1.5l.5 1.6.9 1 1.7 1.6.2.3.1.4-.6 1.1-2 2.4-1 2.1-.4 1.2v1.1l.3 1.1.7 2.3 1.2 2.6.1 1.1-1.1 2.3-.4 1.1-.3 3.7-1 3.6-.1 3.1-.3 1.5-.8 2.3-1.2 2.6-.4 1.1-.4 4.9.2 1.9.4 1.9.7 1.9.9 1.8.7.9 1.8 1.8.8 2.2.6 1.1 2.7 3.1.3 1.1v1.9l.5 1 1 1 2.5 1.2 1.5 1.5 1.9 1.6.1.4.1.7-.4 3.1v1.5l.9 3.4.5 1.1.6.9.6.5.6.3 2.2.2.7.4.4.6.7 2.4.5 1 1.5 1.5 1.7 1.3 1.3.6 1.2.3 3.9.1.5.4.9 1.5.7.5 3 .6 1.8.5 1.3.6.6.4.3.3-.1.8-1.7 2.9-.8 2-.4 2.1.1 1.6.4 1.5.8 1.5 1.4 2.6 1.1 1.5 1.5 1.2 3.7 1.5.5.4.1.3-.2.4-2.1 2.6-.2.7v.4l.3.7.4.5 2.1 1.5.3.3v.8l-.6 1.6-1.2 2.1-.5 1.2-.6 2.2v1.5l.2 1.5.5 1.5.7 1.1 1.5 1.8.5.8v1.5l-.9 2.7-.2 1.5.3.9.3.9.6 1.1.9 1.2 1.7 1.6 1.5.7 5.2.2 2.1-.2.6.2.3.4.1.4-.1 3.1.1 1.1.4.8.6.7 5.2 2.4 3.7 1.2 2 1.2 1.8.7.6.3 1.6 1.5 1.2.7 6 2.1 1.1.2 1.2.1 1.2-.3.8-.5.5-.5.1-.5.7-3.1.4-.7.6-.5.3-.2.5.2 2.5 1.5.9.2h.9l1.5-.7 3.3-2.6.9-.4h.6l.7.2.2.5v.8l-1 2.9-.1 1.1v.8l.5 1.5.9 1 .6.4.9.2 1.2-.1 1.2-.2 2.1-.8 4-2.4 1.2-.4h.8l.6.4.3.5.9 2.3.5 1.1.8.9 1 .8 1 .6 1 .3h3.3l.9.3.3.4.1.6-.1 2.4.1.7.5.7.9.4 1.8.3h2.7l1.8-.3 2.4-.6 2.1-.8 1.5-.8 3.6-2.8 1-.4.9.1 2.4.8.5.4.2.4-.1 1.1-.6 3 .1 1.1.4.9 1.9 2.1 1.5 1.4.8.5 2.2.7.6.4 2.1 3.9 1.6 2 1.6 1.4.8.6 1.1.3 3 .3.6.1.5.5.7 1.5.7.9 1.2.7 2 .9 2.4.5 2.7.5 4 .2h1.8l.8-.3 2.5-1.2.9-.2.6.1 1.8.7 1.2.2h2l2.5-.2.9-.3 2.1-1.1 2.3-.7 1-.5.9-.7.8-.9 1.5-2.7 2-2.9.8-.6 1.5-.1.9-.2 1.4-1 1-1 1-1.4 2.4-4.4 2.1-1.6 1.2-1.5.6-.5h.6l3.9 1.1.9-.1 1.8-1 1.8.8.9.3 1.6-.1 1.4-.3 5.5-2 4.9-2.2 1.9-1.4 4.7-4.4.8-.5 1.7-.8 1.6-1.2 2.7-.1.7-.3 1.4-.9.6-.1.6.3 1.4 1.7 1 .8 1.2.3h2.1l.9-.2 1-.4 1.7-1.9.6-.3h.6l2.2.4 1.2-.1 1.1-.4 2.5-1.2 2.7-1.1 1.2-.8 1.8-1.6.9-1 1.5-2 .6-.2 1.8-.1 1.2-.2 1.2-.3.9-.6.9-.9.9-1.7.3-.4.6-.2h1.5l.8-.2 2.5-1.3h2.1l.9-.4.6-.9.7-2.9.6-1 2.2-1.5 2.3-.9 2.7-.9 3.6-3.3.4-.7.8-1.5 1.1-1.9.2-1.1.1-2.2.1-.4.5-.4 1.3-.2 4.2.2 2.4-.4 2.7-1 3-1.7 1.5-1 1.7-1.6 2.8-3.7 1.4-2.3 1.3-2.6.7-2 .5-2 .6-6.8.6-5.3.3-1.4 1.7-2.9 1.9-1.7 1-1.1.6-1.1.5-1.5.6-2.6v-1.1l-.2-.8-.6-1.6-2-2.9-.2-.8.2-.2.9-.6 1.4-.5 5.1-.2 1.4-.4.8-.6.6-.8.4-1.1.5-3 .4-.8.4-.4.6-.4.6-.1 2.4.2.9-.1 1.1-.4.8-.6.6-.8.2-1 .2-3.1.7-4.9 2.6-5.4.6-1.5.3-1.4.1-1.1-.1-1.1-.6-1.2-.9-1.4-.2-1.2.2-.7 1.2-2.5.3-1.7.1-3.7-.3-4.5.2-.8 1.7-2.1.5-1.6 1-7.9v-1.8l-.4-1.9-.6-1.7-1.1-1.8-1.6-2.5-.5-1.1-.2-1.1.1-1.9-.1-1.1-.5-1.2-1.4-2.2-.4-.7-.1-3.8-.3-1.5-.5-1.5-1.1-1.9-2.4-2.4-.4-.6-.3-.7-.1-.4.2-.7 1.3-2.3.6-1.1.3-1.1.2-1.5v-2.7l-.2-2.6-.5-2.2-.7-2.3-1.7-5-.6-1.4-.9-1.2-2.6-2.5-.5-.7-.6-1.2-.4-1.5.1-2.6-.2-1.1-.6-1.1-1.9-3.1.1-.3.6-1.1.3-.9v-1.8l-.3-1.5-.4-1.1-1.3-2.2-1.1-4.2-.9-2.2-1.5-3-.5-2.3-.6-1.2-.7-.8-1.8-1.8-1.4-3.1-1-1.7-1.2-1.2-2.2-1.4-.8-.8-.9-1.2-1.5-2.6-.9-1-1.5-1-1.6-.6-1.1-.1-1.5.3h-.7l-.6-.4-2.8-2.6-1.3-1.6-.5-1.1v-.8l.2-1.1 1.2-3.4.4-1.1v-.7l-.1-.9-.5-1.1-2.9-3.3-3.1-4.5-1.9-1.9-1.1-.6-1.1-.6-3.3-.7-1.1-.4-1-.7-2.1-1.9-2.4-.9-.8-.6-.3-.4-.9-2.3-2.5-4.1-2.5-3.7-.2-1.1.1-4.4-.3-1.2-.7-1.6-.1-.7.2-.7.7-1.8 4.2-6.8 1-1.9.6-1.9v-1.5l-.4-1.1-1-.9-6.5-3.8-3.1-1.4-.7-.6-.2-.8.1-.3.5-.8.9-.9 1.1-.9 2.3-1.2 1.1-.8.3-.7-.2-.7-.6-.6-.9-.5-3.3-1.2-1.5-.6-3.8-2.2-9.6-5.2-2.2-.9-3.3-.8-5.4-.9-1-.4-2.3-1.5-2.3-.7-.4-.3-.2-.5.2-2.5-.2-1.1-.5-1-1.5-1.3-1.7-1.1-1.6-.3-1.2.2-2.6 1.2h-1l-.5-.4-1-1.5-.9-1-4.1-3.4-2.9-3.3-1.1-.9-.9-.3h-.7l-.8.2-1.5 1-1.8 2-2.4 4-1.6 1.7-3.2 2.9-1.2.7-.9.2-1-.3-.9-.9-.7-1-1.3-2.6-.6-.8-2.6-1.7-3.4-3.6-3.3-2.9-1.6-1.2-1.8-.8-1.8-.3h-.7" class="st1"/><path d="M458.2 250.1l-1.1.2-2.6 1-1.4 1.1-.7.9-.3 1.3-.3 1.9-.2 4.3-.4 1.9-.5.7-.8.8-1.1.6-1.3.4-.9-.1-.5-.3-2.1-2-1.3-.9-1.2-.5-1.2-.1-1.7.2-3.4 1.5-2.3.7-2.5.5-1.5-.1-.6-.3-.5-.4-1.8-2.9-1.3-1.4-3.6-2.4-1.5-.8-1.2-.3-1.2-.2-1 .2-2.3 1-1.8 1.4-2.5 2.5-.5.3-.6-.2-.4-.4-1.4-2.2-.6-.6-1-.2-1.2.2-1.4.8-2.2 2-2.1 1-.6.5-1 1.2-.7.5-1.3.3-3.3-.3-1.4.3-1.9.6-3.3 1.9-3.3.8-1.2.6-.4.4-.4.7-.5 2.2-1.4 3.4-.3 1.1v1.5l.6 2.7-.1 1.5-.8 1.8-1.2 1.6-.9.5-1.9.4-.8.3-.8.8-1.3 1.8-.6.5-.6.1-4.8-.4-1.3.3-3.5 2.1-2.2.7-2.1 1.2-3.3 2.6-.6.2-1.8-.4-.9.2-1.2 1-1.1 2-.4.2h-.6l-1.8-.2-1.2.2-3 1.8-3 1.6-3.3 2.3-2.2 2.5-.4.9-.6 2.2-.7 1.6-.8 2.2-.7 1.3-.6.5-.7.2h-.6l-2.5-.9-.7-.1-1.6.4h-.6l-2.4-1.2-.9-.1h-.9l-2.6.3-2.8.8-2.1.8-3.6 1.8-.9.8-1.1 1.8-.5.6-2.7 1.2-3.2 2-.8.8-1.3 1.8-.7.7-2.3 1.1-3.7 2.2-1.2 1.1-1.8 2.5-2.5 1.7-.8.7-.6 1.1-.3 2.6-1.4 1.6-1 2.2-1.3 4.2-.8 4.1-.5.8-1.9 2.5-1.1 2.7-.5.3-1.4.6-1.6 1-1.7.8-.9.6-.8 1.2-.7 3.4-.6.7-.9.4-1.8.2-4.3.8-.9.5-1.1.7-1 1.4-1 2.6-.5.9-.8.5-2.2.4-.7.6-.3.7v3l-.3.8-.2.1h-.3l-1.2-.5-.9-.2-3 .5-.9.4-1.2.9-2.4.9-2.7 2.2-4.2 2.1-.9.7-.6.8-2 4.2-.8 1.1-.6.5h-.6l-1.5-1-1.1-.5-1-.2-.6.2-.8.5-1.6 1.5-1.4.8-1.3.2-3 .2-1.5.3-.9.3-2 1.4-3.6 1.8-.9.8-.9 1.2-.2.5v1.9l-.3.7-1.1 1.9-1.4 3.8-2.2 3.7-.5 1.5-.3 1.5v1.5l.4 3 .3.8.8 1.3.1.5-.7 3 .1 1.1.2.8 1.1 2.1.9 3.1.1.8-.3.7-1.1 2.3-.2.8.1 1.4-.1.8-2.3 1.1-.8.7-1.2 2.3-1.2 1.9-.3.7-.1.8.2.8.6 1.1 1.7 1.5 2.6 2 1.3 1 1.1 1.4.1.5-.1.3-.7.8-.9.4-3.4.2-1.1.3-2.2 1.5-.6.5-.4.8-.1 1.1.6 1.2 4.5 3.7.2.4.1.3-.4.6-.6.5-2.6 1.3-1 .5-.7.9-.6 1.1-.4.8-.1.7.2.4.9 1.1.3.7v.9l-.3.5-.5.2-1.1-.2-.7.2-1.3.7-1.4 1.5-.7 1.1-.8 1.5-2.2 6-.5 2.3-.1 1.1.1 2.3v4.5l-1.4 4.3-.3 1.8v1l.5 2.2v.8l-.5.9-2.4 2.5-.7 1.1-1.3 4.4-.2 1.2-.5 6.4.1 1.8.4 1.2.6.8 1.1.8 1.6.4 2.4.3.3.2.2.5-.2 1.2-.5 1-3 1.9-1.3 1.5-1.4 2.6-.4 1.2-.1 1.4.1 1.9.6 2.3.6 1.5 1.1 2.2.3.7-.1.8-1 2.3-.1.7v.5l.7 1 2.5 2 .7 1v.4l-.3.7-1.2 1.6-.6 1-.3 1.1v1.2l.1 1.5.5 1.1.4.8 1.4 1.5.4 1.1v1.1l-.5 3.8v1.1l.2 1.1.5 1.2.8.9 1.1.9.9.4 1.1.1 1.6-.2 3.6-1.2 1.2-.3.6.1.6.3 1 1.2.2.4-.2.7-.4.8-1.2 1.5-.3.7-.1.4.3.8.8 1.3.4 1 .2 1.4.2 2.3.2.7.5.7 2 1.5.7 1 .6 1.3.1.8-.5 2.6-.1 1.4.5 2.7-.1 2.6.3.8.6.7.7.3h.9l3.7-.9 3.2-.2 1.1-.3 4.6-1.7 1.2-.2.5.1.1.2.1.5-.7 2.2-.3 1.9-.2.8-.9 1.1-2.6 2.2-1.7 1.9-1 1.5-.6 1.9-.2 1.8.9 7.1v2.3l-.3 3 .2.7.3.8.9 1.1 1.5.9 1.7.4h1.7l1.4-.6 2.9-2.4 2.2-1.3 4.6-2 .9-.1.6.3-.3.7-1 2.5-1.6 2.4-1.2 2.2-.3 1.1v1l.3.5.4.5 2.6.6h1.1l2.4-.8.6.2.2.7-.4 1.9.1 1.5.3 1.3.6 1.2-.1.5-2.5 1.8-1.3 1.5-.5 1.1-.5 1.5v2.3l.3.8.5.7 2.5 1.7.6.8 1.2 4.3v2.9l.2.8.5.8 1.1.7 2.6.5.8.3 2.9 1.8.7.8.1.3-.2.8-1.8 2.6-.4 1.1-.2.8.1 1.1.3 1.6.5 1.4.5 1.2 2.9 3.9 1.3 2.4.8.8.7.4 1 .2 3.2-.3.8.3.1.2v.7l-.9 2.6-.1 1.5.4 1.6 1.3 2.9.8 1.1 1.3 1.2 1.1.7 2.7 1.2 1.2.8.5.7 1.9 3.3 2 2 1.7 2.4 1.3 1.5 1.4.8 1.5.3 1.5-.5 2.4-1.7.6.1.3.4.2.8.4 3.6.5 1.7.7 1.5.9.7 1.2.2 2.1-.5.5.3 1 .8.6-.3 1-1.3.6-.5.3-.1.2.2.3.3 3.7 7.4.9 1.6.9 1.1 2.8 2.7.7 1.1v.4l-.1.5-1.4 2.5-.5 1.5-.1 1.5-.2 6.4.2 1.1.2 1.1 1.5 3.6 1 3.9.5 1.1.8 1.5 2.9 4 1.1 1.8.8 1.7.8 2.8.4.7.6.7 1.5 1.1 1.8.7 2.1.3 2.1-.3 1.1-.3.9-.5 1.9-1.8 1.2-1.5.8-1.5.4-1.1.3-1.9.4-.8 2.3-2.2 2.4-3 2.7-2.3 1.9-2 .9-.6 2.1-.8.9-.5 2.7-2.1 1.8-1.2 1.2-1 .6-.1.4.4.1.8-.4 2.7v.7l.2 1 .5.9 1.6 1.5 1.5 2.3 2.1 2.1 2.2 1.7 2 1.5 1.3.6 2.1.6 2.3.3 2.5-.5 1.8-.6.7-.8.5-1 .6-4.4.4-1.5.5-.8.3-.3h.3l.6.8.6 1.3 1 2.6 1.1 3.2.9 1.2.6.3h.3l.3-.2.5-.7 1.4-3.2.4-2.7.4-1.2.9-1.7.4-.4.2-.2.3.2.6 1.1 1 3 1.1 2.3 1.1 1.4 1.1 1 .6.3.8.1.9-.2.9-.4.9-.7.8-.8 1.7-2.5.3-.2.3.1.4.9 1 3.3.6 1 .7.7.8.5 3.6 1.5 1.8 2.3 1.3 1 2.4.8 2.4.4 2.1-.1 3.3-.9.9.2 2.5.9 1.1.3 1.8.2 1.3-.2 1.2-.7 1.2-1.1 3-4 1.5-1.8.6-.5.3.3.1.9-.6 3.8.1 1.1.4.8.6.7.6.5 1.2.3h1.5l2.1-.3 2.1.2.9-.2.9-.4 1.5-1.3.7-.3 2.9.7 1.2-.1 2.7-.7 3.1.6 1.3.1h2.1l2-.3.9-.3.9-.6 2-2 .9-1.4.6-2.1.1-.2.3-.2.3.1.5.4 1.1 1.8.6.9 1.4 1 .9.3 2.1.3 3.6 1.6 1.8.2 6-.4 3.1-.6 3.6-1.1 3-1.3 2.7-1.8.6.2 2.4 1.2 1.8.4 2 .1 2.5-.4 3.3-1 3-1.4 1.2-.9 1.9-2 .9-.5h.6l2.3 1.4 1.3.3 1.8-.2 4.2-1 1.5-.6 1.2-.6 2.9-2.3 3.8-1.6 2.9-1.8 1.2-1 1.1-1.2.8-1 .8-1.7.6-.6 2.5-.4 1.2-.4 4.5-2.4 1.5-1.3 2.4-2.6.6-.9 1.2-2.5.6-.7.6-.2h2.4l1.7-.4 2.3-1 2.3-1.4 1.2-.9.9-.9.6-.9.8-1.7.5-.6.3-.2h.6l2.3 1 2.4.3 2-.2 2-.5 4.8-1.8 1.2-.7.9-1 2.4-3.6.6-.5.6.1 1.3.8 1 .3 1 .2.9-.2 1.2-.7 2.1-1.8.6-.3 1.9-.4.9-.5 4.6-3 1.7-1.5 1.7-1.1 1.9-1.8 4.2-3.3 1-1.2 1.2-2.1.8-1 .7-.5 2-1 1.5-1.2.8-1 1.6-3.5.2-1-.1-1.9.4-.5 2.5-1.1 2.7-.2 1-.3.9-.9.5-1.1.4-1.5.5-.5h.6l2.2.5 1.2-.2 2.6-1.1 2.2-1.8 2.1-.9.7-.6.7-1.2 1.3-3.9.1-1.2-.5-2.7v-.7l.4-.3 3 .9 3.6.9 2.2.1 2.1-.4 1.7-.6 3.9-1.8 4-2.2 1.4-1.5 1.5-2.6 1.1-2.6.6-2.2.5-4.2.1-3.7.3-1.6 1.4-3.3.4-1.9.3-1.9v-3.3l.2-1.5.3-1.1.4-.8.7-.8 3.2-1.5.8-.7.5-.7.4-1.6.3-4.1.7-3-.1-3.3.1-1.2.4-1.3.9-2.1.4-2.6.5-.8 2.8-2.2 1.1-1.6 1.6-3.1 1.3-3.1.7-2.3.8-3 .4-1.9.1-1.8-.1-1.5-.2-1.6-.9-2.3-2.3-4.5-.7-2.1-.1-2.3.5-3.6.2-.5.4-.6 1.8-1.4.8-.8.7-1.4.5-1.8.3-.7 3-2.7 2.7-4.5 1.2-2.2 2.4-2 .8-1.1.5-1.1.4-1.4.5-4 .1-1.7-.1-2.6.1-1.5.7-2.6 1.4-2.6.2-1.6-.4-6.7-.4-1.5-1.4-3.7-.1-1.2.1-1.5.3-.7 1.5-1.3 1.9-2.1.8-1.3.7-1.3.6-1.9.3-1.8.6-2.6.7-4.6.7-1.9.7-2.5 1-2.3.6-2.1 1.3-2.1.6-1.4.9-3.1.3-1.8v-1.9l-.3-4.4-.4-2.6-1.3-3.5-.2-1.1.2-.8 1-2.3.4-1.4.2-1.5v-1.9l-.7-6-.3-5.6-.4-1.8-1.1-3.9-.5-4-.2-1.6-.5-1.6-1-2.5-1-4.1-3.8-9-1-1.5-1.9-1.9-.2-.6-.7-3.1-2.2-4.2-.7-.8-1.6-1.2-.6-.7-.4-1.3v-3.1l-.3-1.5-.8-1.5-2.5-3.1-3.6-6.6-.4-1.5-.4-3.4-.5-1.5-1.8-2.5-2.6-4.2-.9-1-1.9-1.8-3.7-5-1.4-2.7-1.9-2.6-1.3-2.5-1.9-2.4-1.3-3.8-1-2-.9-1.2-2.1-2.2-1.7-2.8-.9-.9-1.8-1.3-1.2-1.5-.6-.5-.9-.4-1.3-.2-.5-.2-.4-.5-.8-2-.6-.7-.6-.5-2.2-1-1.4-.8-.6-.6-1.2-1.7-.7-.6-1.1-.9-2-.8-1.5-1.7-.7-.7-.8-.3-.7-.1-2.4 1-.5-.2-.2-.4-.6-2.4-.3-.7-.5-.6-3-2.5-1.9-.7h-1.4l-1.3.7-1.5 1.8-.3.2h-.3l-.3-.2-.3-.6-.6-2.4-.7-2.1-.5-.7-1.5-1.5-.9-1.9-.5-.8-1-.7-1.9-.6-2.2-1.4-2.1-2.6-.9-2.5-.5-.8-.8-.7-3.7-2.9-2.9-2.5-1.1-.5-1-.2-1 .1-1.5.5h-.3l-1.4-2-.6-.5h-.7l-1.5.2-.4-.3-1.4-1.3-.9-.4-2.2.1-.8-.1-3-2-2.4-.9-.7-.4-.2-.4-.1-.8.6-4.4V299l-.1-1.5-.5-1.3-1.7-2.4-.5-1.2-.4-3.3-1.1-5.4-.9-3.4-.6-1.9-1.2-2.6-2-2.8-2.5-2.7-3.2-2.7-2.9-2-2.8-1.2-3.6-1.1-5.5-.8-1.7-.4-1.5-.6-3.3-1.8-1.5-.6-1.5-.2-2.4.7-2.4-.8-2.4-.6-1.1-.6-.9-.7-2.3-2.8-1.1-1.1-1.2-.7-1.5-.3-2.5.3-6.6 1.4-1.7.3-2.5-.2-1.2.4-.6.5-.6 1-.6 3.5-.3.8-.6.1-1.9-.9-1.1-.3-1.2.3-1.1.5-1.8 1.4-1.7 1.6-1.3 1.8-1.9 3-.9.9h-.3l-.3-.3-1.5-2.6-.7-1-3.2-3.2-.9-.8-1.2-.7-1.3-.5-4.5-1.1-5.8-1.9-.7-.6-.7-.7-1.5-2.7-.9-1.2-1.5-.9-1.8-.5h-1.8l-1.1.2M817.2 383.8l.4-.6 1.1-3.7.8-6-.1-2.6.2-1.6.3-.7 1.5-2.4m0-15.1l-.2-.1-4-2M0 789l.3.1 2.1.1 2.2-.3" class="st1"/><path d="M209 .1l.5.5 3.5 3.6.7 1.1.5 2.3v1.1l-.4 1.7-.7.9-2.5 2.1-1.4 1.8-2 3.1-.9 1.3-.4 1-.7 2.6-.6 1.7-.3 1.6.1 1 .3.8.5.8.8.9 1.6 1.2 1.3.1 2 1.7.7 1.1.1.1 1.3.9 1.9.5.7 1 1.1 1.2 1.1 1.3.6 1.5.4 2v2.9l-.5 2-.7 1-1 .9-1.7 1.7-1.4 2.2-1 2.2-.5 2-.2 2.8.4 4.1.5 1.4-.5 3.7-.7 2.5-.2 1.5-.4 3.2-1 4-.5 4.6-.1 2 .4 8.3.1 1.4.4 1.5 1.1 2.9 1.8 3.4 2.6 3.9.2.3 1.3 1.4 1.6 3.1.4 1.4.1.2 1.3 3.2.7 2.7 1.4 8.2 1.7 7 .3 3.2.1 3.6-.4 2.8-.9 2.9-.7 1.1-2.1 2.5-.6 1.3-.1.8.3.9.4.7 1 1h-.5l-1.4-.3-1.1.1-1.5.5-1.2.7-.8 1-.8 1.2-1.9 4.4-1.8 5.6-.6 2.9-.1 1.9.3 6.4-.1 1.8-.2 1.5-.9 2.7-2.8 5.7-.5 1.7-.1 1.5.3 1.7.7 1.6 1 1.1 3.3 3.1 1.4 1.5 1.3 1.9.9 2.3.5 1.8.1 1.1v2.7l-.7 2-2 3.7-.8 2-.5 2v1.1l.1 1 .4 1 .6 1.1 4.6 5.7 1.2 2 .8 1.9.7 2 .4 2.2.2 1.9.3 5.6.4 2.2.9 2.5 2.3 3.9 1.4 3 1.4 4.1.2 1.2-.1.8-1 4-1 2.7-.5.7-.7.5-1.5.5-4.7 1-2.3.9-1.2.8-1.3 1-1 1.1-.8 1.2-.4 1.3-.4 1.5-.9 6-2.5 9.9-.8 3.9-.8 5.7.1 6-.1 1.1-.6 3.3-.8 3.4-.6 1.1-3.8 4.9-1.5 1.5-3.4 2.9-1.5 1.5-4.3 4.7-2.2 3-.8 1.8-.4 1.9-.1 1.9.1 4.8-.4 2.6-.9 2.6-.6 1.2-.9 1.3-1.7 2.1-2.2 1.7-2.8 2-2.6 1.5-7.2 3.3-7 2.5-10.4 2.9-1.9 1-2.2 1.3-1.6 1.4-1.4 1.6-5 7.5-3.6 5-1.3 1.6-1.7 1.6-4.1 2.9-4.4 2.5-1.4 1-1.4 1.4-1.2 2-.5 1.3-.2 1.2-.1 1.5.2 1.1.5 1.4.7 1.4 4 6.2.5 1.1 1.1 6.4.1 1.4-.2 2.3-.3 1.9-.3 1.1-.6 1.4-.6 1-1.4 1.7-2.9 2.5-1.5 1.5-1.3 1.8-1.1 2-.4 1.2-.4 1.5-.1 1.1.2 1.9-.3 2.3v1.5l.3 1.9 1.4 4.7.9 3.8.9 3.8 1.1 6.5.9 3.3 1.2 2.3 4.3 5.2 2.1 3.1.9 1.8.1 1.1v1.4l-.8 5.3-2 8.5-1.2 3.3-1.5 2.8-5.6 9.2-4.4 8.7-3.7 6.7-4.3 8.2-1.6 4.7-1.9 2.5-2.3 3.5-1.5 2-1.6 1.4-4.5 3.2-1.1.9-.9 1.1-.8 1.3-.4 1.3-.3 1.5.2 1.9.5 3.2 1.6 5.8.6 3.4.5 2.4.6 1.9 1.1 2.3.9 1.5 1.1 1.3 3.8 4.3 2.5 2.1 2.8 1.8.7.7 1.4 2.6 2.4 2.9.6.9 1.8 3.5 3.5 7.2 2.3 4.3 1.7 2.7.3.7 1.5 8.2v2.6l-.2 2-.6 1.4-.7 1.2-1.1 1.4-3.3 3.6-1 1.3-.8 1.5-.6 1.6-.4 1.8-.1 1.9.2 1.8.7 2.3.8 2.1 1.3 2.6 1.1 1.9 5.2 7.4 4.2 5.2 2.1 2.2 1.5 3 3.4 4.1 1 1.4.8 1.4.6 1.8.3 1.9.1 2v6.1l.4 4.2.6 2.6 1.3 3.4 1 3.7 1 2.6.6 3.4.6 1.5.7 1.5 4.8 7.5.8 1.5.5 1.5.4 2.3.1 2.2-.4 1.8-.8 1.9-1.5 2.1-1.7 2-2.8 2.3-3.7 2.9-1.7 1.6-.8 1.1-.6 1.3-.3 1.3v1.2l.3 1.1.5 1.1 2.1 3.1 2.1 2.2 4 2.9 1.5 1.6 1.8 2.5 1.5 3.1.6 2.3.2 2.2-.5 7.8.1 3.5.6 3.7 2.3 10.8.6 2.3.7 1.7 3.2 5.1 1.8 3.7.6 2.2.8 5.5.5 1.6.5 1.2.8.9 1 .9 1.4.9 1.6.8 1.6.6 2 .4 4.2.2.9.5 1.9 1.1 1.7 1.4 1.5 1.5 1.4 1.7 3.7 5.3 1.2 1.4 1.3.9.9.3.9.1 3.3-.8 5.1.1 3.3.5 1.2.6.9.5 1.7 1.6 1.3 2 1 2.4.8 4.6.6 1.5.3.7.6.7 1.2.9 1.3.4 1.2.1 5.7-.2 3 .4 2.4.7 8.3 3.2 4 1.1 3 .2 5.4-.5 1.2.1 4.6 2.1 3.3 2 1.3 1.1 5.2 5 2.1 1.7 2.1 1.5 4.6 2.5 3.7 1.4 2.9 2.3 4 2 2 1.3 6.9 5.3 2.8 2.2 2.7 2.7 2.5 2.9 1.2 1.9 1.4 3.5 1.2 2.5 1.4 4.9.6 1.7.8 1.6 1.6 2.1 3.8 4.2 1.5 1.9 3.1 5 2.3 4.3.9.9 1.8 1.1.1.5-.2.7-.9 2.4-.5 1.3-.3 2.7.1 2.6 1.4 10.2.8 5.5.1 1.5.2 3.8-.1 1.5-.5 1.9-.8 1.8-1.5 2.3-1.5 1.7-1.8 1.5-2.4 1.4-2.1 1-2.2.7-7.5.6-1.8.4-1.5.4-1.8.9-1.5 1.1-.9 1.1-.5 1.2v.7l.1 1.1.3.9.5 1 1.2 1.5 4.9 5.7 2 2.9.5 1" class="st1"/><path d="M531.8.1l-.1 2.5-.2.8-.8 1.8-.4 1.8.2 1.2.7.8.2.7.3 3 .2 1.1 1.1 2.3.2.7.2 4.1.2.8.8 1.9.3 1.5v1.4l-.1 1.9.6 2.7-1 3.7.1.7.4 1.9-.1.8-.7 1.5-1.5 2.3-.8 2-.4 2.1-1.4 4.5-2.4 4.4-1.2 1.8-1.3 1.6-2.4 2.3-1.6 2-4.1 4.7-2.7 4.5-2.7 2.8-.8.9-.6 1.4-.8 2.1v1l.5 2.7.1 3.4 1.6 4.8 1.7 2.6 1.5 1.2 1.8 2.3 3.7 3.3 1.1 1.5 1.2 2.3.7 2.2.5 3.3 1.2 3.8.2 2.6-.1.4-.3.4-1.3.2-.6.2-2.4 1.8-7.2 3.6-3 .7-2.4 1.2-2.6.8-.6.5-.8 1.3-.8.5-1.2.4-3.1.7-.8.3-.5.7-.5 1.9-.5.7-.6.3-2.2.6-1.5 1.4-1.5.9-2.3 1.8-1.8.9-1.9 1.6-4.1 2.8-5.5 3.2-3 2.2-2.1.6-1.8 1.4-1.5.7-2.9 2.5-3.6 3.7-1.5 1.2-1.4 1-1.1.4-3.3.8-3 1.1-2.2-.1-2.3-.9-1.2-.1-4.5 1.1-3.6 1.1-1.6.7-2.4 1.5-3 2.5-4.2 1.2-1.8.7-1.2.7-1.4 1-1.8 1.5-3 3.2-1 .7-10.9 3.7-1.7-.1-1.5.3-1.6.9-2.6 2.2-.6.3h-.3l-.7-.3-2.1-1.9-1.5-1.2-1.1-.4-1.6-.2-4.9.9h-4.8l-3.7.2-3.1.5-6.6 1.9-1.2.6-1.6 1.1-.6.2-.3-.1-4.3-2.1-.9-.9-1.8-2.3-1.1-.8-1.8-.4-3-.2-3.6-.6-.9-.5-2-1.4-2.6-1.3-1.5-.5-2.7-.3-1.2-.4-1.6-1-2.9-2.6-.8-.5-.9.1-.9.6-.6 1.1-2 7.5-.1 1.1.1 1.1.8 4.2.1 2.6.3 2.6v3.7l-.6 4.6-1.4 2.2-.6 2.5-.2.4-.3-.5-.7-2-.1-1.2-.1-2.3-.2-1.4-.4-1.2-1.6-3.3-.9-.9-.9-.3h-.9l-1.7.6h-.5l-.4-.3-.3-.6-.5-3.4-.4-4.9-.7-3.3v-1.2l.5-3.7v-2.2l-.5-2.7-.9-2.7-.9-1.8-1.3-1.7-1.7-1.3-2.1-1-1.2-.4-2.7-.4-7.5-.6-6.5-.7-4-.1-3.9.2-2.1.4-2.2.1-3.8-.6-7.6-.9-.9.2-.7.4-2.4 2.1-1.3.8-6.3 2.6-1.7.4-3.3.2-1.9.3-5.5 1.5-4.4 1.4-2.6.3-1.8-.1-2-.7-1.4-.8-3.7-2.7-1.3-.8-1.5-.6-1.2-.2h-.9l-.9.5-.7.7-.5.9-.9 2.1-2.1 6-.3 1.5-.1 1.5.1 6.8-.1 2.1-.3 1.6-.3 1.7-.7 1.8-2.6 5.5-.2 1.1-.1.8.3 1.1.7.9 3.7 3.8 1.5 1.9 1 1.8.9 2.2.5 2 .4 2.1.2 2.2-.1 1.8-.3 1.2-.5 1.6-2.2 4.7-.3 1.1.1 1.1.2.8.6 1.1 2.6 3.6 1.5 2.2.9 1.5.8 2 .9 2.9.8 3.1.6 5.8.6 2.7.6 1.7 4.8 9.9 1.4 2.5.2.7-.2 1.2-1.4 3.6-1.7 5.8-.3.5-.4.6-2.1 1.5-1.6 1-1.4.4-4.2.9-1.8.7-1.7 1.1-1.1 1.5-.6 1.8-.9 5.9L209 307l-.4 4.8.2 5.6-.9 6v3.1l-.1.6-.7.8-2.9 2.2-3.7 4.1-4.8 4.2-3.2 3.4-2 2.6-.8 1.5-.4 1.5-.3 6.3-.6 3.1-.7 1.8-.8 1.9-.7 1.5-1.1 1.6-3.1 3.5-3.4 2.7-3.6 2.5-3.1 1.7-3.2 1.9-3 1.3-6.4 2.4-4.1 1.2-4.8 1.1-1.6.7-1.2.7-2 1.9-4 5-4.5 6.2-1.6 2.5-1.2 1.3-1.5 1.4-2.2 1.7-4.5 3.1-3.8 2.4-1.1 1.1-.6 1-.4 1.3.1 1.1.6 1.5 1.1 1.9 1.2 1.5.9.8 1 .4 1.7.4.4.3.2.4.1 1.8-.6 4.2.4 3.3v.8l-1 6.3-.6 2-.9 1.9-.8 1.5-.9 1.2-4.2 4-.9 1.1-.6 1.1-.1 1.1.1.7 1.5 2.7.9 2.2.2.8-.4.3-1.5.4-.6.5-.4 1v1.5l1.5 9.1.7 4.8.9 3.9.7 2.1.4 1.1.7 1.1 3.8 5 3.5 5.6.5 1.1v1.5l-.8 3.7-.7 4.9-2 7.8-.7 2.3-1 2.4-1.5 2.8-2.3 3.4-1.1 1.9-5.9 11.5-3.9 6.9-2.6 5.6-1 2.5-.2 1.2-.1 1.5.3 4.5.3 1.9.4 1.1.7 1.4 1.5 2.9 1.5 2.1.1.4-.3.3h-.5l-2.2-.7-3.3-1.5-1.5-.4-1.5-.1-1.5.3-4.5 1.5-2.1 1.2-1.4 1.3-1 1.1-.8 1.2-.5 1.4v1.5l.2 1.5.6 2.6 1.4 4.1.7 4.1.5 1.5.9 1.5.9 1 .9.5.9.2 1.8-.2 1.2.3 1.8 1.4 1.8 1.9.9.5 1.2.3 2.7-.8.6.2.3.3.1.5.3 2.9.3 1.4.6.9.8.9 1.5.3 4-.1.9.3.2.5-.2.7-.8 3-1 3-.3 1.5v1.5l.3 2.3.4 1.9.5 1.4.5.9.6.8 1.8 1.5 1.3.5 2.7.8 3.2 1.2.3.4.1.3-.1.4-.5.7-3.2 2.7-.8 1.1-.5 1.1v1.5l.8 2.7.8 5.2-.1.8-.9 2.4-.9 2.5-.4 1-.6.8-2.8 2.6-1.9 2.2-.9 1.5-.7 2-.3 1.4.1 1.5 1.1 3.9 1.1 2.5 2.2 3.2 2.7 3 2.2 1.7 2 1.1.9.3h1.3l4.1-1 .7.3 2.1 1.9 1.5.8 3.3.4 3 .7h1.2l2.4-.6.4.1.3.4.1.4-.1.8-.3.7-.6.8-1 .9-3.3 1.4-1.1.7-.6.8-.5.7-.7 1.9-.2 1.1v1.5l.1 1.4.3 1.2 1.2 2.8.8 1.5 1.2 1.7.3 1.1v.8l-1.1 1.8-.5 1.4-.1 1.3.3 1.8.9 2.5 1.4 2.8 1.2 2.4.6 1 .6.5.8.4 1.4.3 4.8.2 2.4.3 3.2.9.2.4-.2.4-.9.7-3.2 1.5-5.3 3-.9.8-.4.7-.1.7.1.8.6 2.6.6 3 .4 1.5 1 2.8.4 1.7.1 1.5-.2 5.3.3 4.1-.1 1.1-.5 1.2-3.4 4.1-.7 1.1-.5 1.1v1.1l.5 1.2.6.6.7.5 1.1.5 1.1.2 1.3-.1 3.3-1.1.9.3 1.2 1 2.8 3.2.9 1.5 1 2.1 1.8 6.8.2 1v1.1l-.2 1.1-.5 1.1-.9.8-3.1 1.5-1.1.8-1 1.4-.4 1.2-.4 1.4-.1 1.6v1.1l.4 2 .3.9.6.8 1.6 1.4.2.5-.1.8-.9 1.4-1.1 2.4-.6 1.8-.3 1.5v1.9l.2 1.8.4 1.6.8 1.5 1 .9 1.2.6 1.8.3 1.8-.3 1.1-.4 1.2-.8 3.9-3.5 1.9-1.4 5.1-2h.7l.5.2-.1.7-.4 1.1-1.7 2.8-1.6 3.2-1.8 3-.3 1.3-.1 1.4.2 1.1.5 1.1 3.8 7.6.2 1.4.6 4.5.6 1.9 1.1 2.2 2.1 2.5 1.3 1.2 1.7 1.3 1.2.7.8.1 5.5-1.4 6-1.9.9-.2.4.3.2.4v.4l-2.3 4.1-.5 1.5v.8l.2.3.5.5 2.9.9 1.2.6 1.5 1.3 1.7 1.9 1.6 2.2 1.5 3 .6 1.8.7 3.2.4.8.6.7.9.3 2 .2 5.7-.4 5.7.4 1.2.4 2.8 1.7 2.1.8 2.7.3 5.4.3 1.6-.3 2.6-1.1 1.4-.6 1.7-.3 3.2-.2 1.9-.4 2.7-1 3.6-2.1.9-.3.3.1.3.7v3.4l.3 1.5 1.9 5.2.5 1.2 1.5 1.9 2.2 1.8 1.7.8 1.8.4 1.9-.1 1.2-.8 1.2-1.4 2.4-3.1 1.1-1.1 1-.8 1.2-.5 3-1 3.6-2.3 2.4-1 .7-.1.3.1v.4l-.3.8-1.8 2.3-2.8 5.5-2.1 5.9-1.2 4.6v1.6l.6 1.1 1.2 1.1 1.8.7 3 .5 1.6-.1 1.1-.1 2.1-1 2.8-2.1.9-.4.8-.2 1.8-.1 8.2.4h2.6l1.9-.3 5.7-1.4h1.5l1 .3.6.8.8 1.7 2.1 4.7 2.2 2.9.9.7 1.3.5 4.1 1 1.8.1 4.5-.4 3.1.3 2 .3 3 1.2 1.8.2 1.9-.3 3.2-1.1 5.1-.6 1.9-.6 1.2-.8 1.1-1.2 2.2-2.6 1.5-1.4 1.8-1 1.2-.3.3.1.3.3.9 2 1 1.3 1.7 1.3 2.1 1 3.3.7 5.5.7 4.4.5h5.2l.2.3.1.2-.2.4-.5.7-5.1 5.9-1.7 1.2-4 2.2-1.8 1.1-1.6 1.5-1.9 2.3-1.6 2.6-1.4 3.5-3.2 3.3-2.9 5.5-2.2 3-3.2 5-2 3.7-1 2.6-1 3.1-.4 1.5-.4 6.7.2 1.5.5 2.1.8 2.8 1 1.8.3.8-.1 1.1-.2 2.3v3.3l-.3 6 .2 3-.7 3-.9 4.9v3l-.7 3.8-.1 2.7-.1 1.3-.8 3.1-.9 2.1-1.7 2.2-1 .9-2.2.7-2.4 1.4-2.2 1.2-3.5 1.3-2.3.5" class="st1"/><path d="M65.8 0l.4 1.6.4.9.4.7.8.7 1.3.7 6.2 1.9 7.2 3.9 2 1.3 2.9 1.6 3 2.3 3.5 2.8 1.1 1.2 1.4 2.3.7 2 1.3 2.7.7 2.9.5 1.1.7 1.1 1.2 1 6 2.1 1 .6 3.6 3.3 4.4 1.6 2.1.3 1.8-.2 1.9.1 4.4-.6h2.8l2 .4.9.6 1.1.8 1.4 1.4 1.6 2.1 1.1 1.9 2 4.1 3.4 4.1.9 1.6 1.2 2.6 1.6 4.5 1.6 5.7 3 5.9.6 2 .8 3.1.1 2.8-.4 2.6-1 2.6-1.4 2.4-3.6 5.1-1.4 2.2-4.3 5.7-.8.7-2.1 1.2-1.2 1-2.4 1-.9.6-.3.8-.2 1.5-.6 1.4-3 3.4-2.9 4.9-1.7 4-2 7.6-2.1 4.2-1.4 3.2-1.4 2.3-1.1 1.3-1.3 1-2.2.8-2 .4-4.6 1.6-2.4 1.8-2.3 1.4-1.6.8-3.3 1.1-1.2.6-.6.5-1.3 1.4-3.5 2.4-.6.2-1.5-.2-.7.2-2.8 2-1.3 1.5-.7 1.5-.5 4.5.2 1.8v.8l-1.1 4.1-.1 2.6.1 1.1.6 2v.7l-.2 1.5.2.7 1.6 1.7 3.6 2.7.8 1.3.9 1.8.1.8-.1 1.5v.8l1.2 2.5.5 1.9v3l-.1 3 .7 3 .1 1.9.4 1.9v1.1l-.3 1.9v1l1.2 4.3.5.8 1.2 1 3.6 1.6 1.5 1.2 1.8 1.2 1.2 1.3 2.9 3.7 2.2 1.5 1.3 1.5.7.5 1.6.6 3.3.1 2.3.8 2.3.3 2.3 1.1 2.4 1.5 4.2.8 1.6.5 1.2.6 1.5 1.3 4.5 4.7 3.3 3.3 1.2 1.5 1 1.5.7 1.2.8 2.2 1.9 6.4 1.8 3.5.5 2.2.3 1.8.2 1.9-.2 1.8-.6 3.9-.5 2.1-.6 3.4v3l-.1 1.9.1 1.1.3 1.2 1.2 2.9.2 1.9-.3 1.1-1 3-.1.8.3.4.3.1 1 .1.9-.3 2.1-1.3 1.2-.3.9.3 3 1.7.9.8.9.9.9 1.3.6 1.1.6 1.6.3 1.1.1 1.1-.1 1.1-.3 1.1-.7 1.1-.7.8-.9.6-4.5 1.7-3.1.4h-1.5l-1.2-.1-.9-.3-.6-.5-.4-.7-.5-1.4-.1-2.7-.1-1.9-.4-1.1-.6-.4-.9.1-4 1.4-1.4.4-1.2.1-2.5-.2-2 .1-1.9.8-1.6 1.2-.6.9-.5 2.7-.6 1.5-.9 1.1-1.3 1-.8.3-2.7.3-2.4-.1-.9.4-1.8 1.2-1 .3-4.1-.2-.6.2-.7.4-1.7 2.4-2 1.3-1.2 1.8-2 2-2.7 3.5-1.2 1.3-.9.8-3.4 2.1-.9.8-.6 1-2.2 4.4-.8.9-1 1.1-1.6 1.1-2.1.9-2.4.4-2.1.7-2.5.4-.8.4-1.3 1.8-2.5 4.2-3.9 5.6-3.2 3.4-2.7 2.3-1.5.9-1.5.5-2.5.4-2 .4h-.9l-.9-.2-.5-.3-.3-.4-.9-2.9-.4-.7-1.2-1.6-2.4-2.1-1-.4-.5.1-.2.3-.1.4v1.8l-.3 1.5-.2.7-.6 1.2-2.2 2.7-3.8 3.9-1.5 2-4.9 4.1-5.8 2.8-.9.4-1.5.2-1.7.5-3 .3-1.6.8-1 1-.7 1.3-1.8 3.6-1 3-.6 1.1-1 1.1-3.9 3.8-1.8 1-1.8.5-.7.3M82.4 856.7h-.3l-.6.5-1.8 1.8-.8 1.5-.2 1.5v1.1l.2 1.1 1.4 3.3.4.5.5.4h.9l.6-.6.6-1.3.6-3.8v-.7l-.3-1.9-.1-2.3-.3-.7-.5-.4h-.3M450.6 396.6h-.9l-1.2.2-1.6.7-5.1 3.2-1.8.7-2 .5-1.6.1-1.8-.1-5.1-.9h-1.8l-1.3.3-4.4 1.6-3.6.8-3 .4h-6.3l-2.7.3-4.2 1-10.2 3.2-5.2 1-.9.3-.9.6-.8.8-.7 1.3-1.1 2.7-2.6 7.5-.8 1.5-1 1.4-1.7 1.7-4.4 3.1-4.1 3.2-1.7 1-3.3 1.3-.5.3-.5.3v.8l.2.7 2.9 4.9.9 1.9 1.3 3 .3 1.5-.3 1.1-.6 1.1-4 4.2-1.5 1.8-.9 1.9-.2 1.9.1 1.1.4 1.5 3.1 7.5.6 1.5.2 1.1v1.2l-.1 1.1-1.3 3.3v.7l.2.9.3.7.8 1.1 4.1 4.5.6 1.2 1.2 2.5.8.8 1.2.7 4.1 1.6 4.9 1.4 1.3.7 1.2.7 1.1.9.9 1 4.3 5.7 1.4 1.2 4.2 3.4 1 1.1.5 1.1.3 1.5-.3 1.9-.5 2.2-.8 1.5-1.3 1.6-3.4 2.9-7 6.8-.5.7-.3.8.1 1.1.5.7.7.8 3.6 2.6 1.1 1 .9 1.6.8 2.7.1.3.4.2h1.1l4-1.1 2.3-.4 4.8-.2 4.3-.4h2.3l2.2.2 1.6.5 1.4.9 1.1 1.2.4 1 .2.8.2 1.1.1 1.4-.6 7.6-.7 5.6-.3 3.8-.6 2.4-2.1 5.4-1.2 3.8-.3 1.5v1l.2.8.3.3.6.2.9-.2.6-.4.9-1 5.4-7.8.9-1.9 1.2-3 .8-1.6 1.8-1.9 3.6-2.5 1.6-1.6 1.4-1.8 2.2-3.8 1-1.4 1.1-.9 5.7-3.6 2.2-.8 1.8-.2 1.1.3 1.6.6 1.2.9 1.2 1 1.8 2.3 3.9 6.4 1.2 2.6 1.7 4.9 3.3 7.8 1 3.4 1.2 5.6.7 1.4.8.7 1.2.6 5.2 1.5 1.2-.1.6-.4.6-1.1 2-6.3.7-1.9 1.1-1.9 1.3-1.5 1.2-1 1.5-.7 1.5-.2 4.2.1 1.2-.4.8-.8.5-.7.2-.8.6-4.1.9-3.8.7-1.8.4-.9.7-.8 2.6-2 1.9-2 1.6-1 2.6-1 3.9-1.2 3.4-.7 1.8-.1 2.1.1 5.7 1.1h.9l.6-.3.9-.6 1-1.5 2.3-5.3.6-1.8v-1.2l-.1-1.1-.4-1.4-.7-1.6-1.7-3-3.7-5.6-1.6-2.6-1.3-2.7-.4-1.8V518l.3-1.1.5-1.2.7-1.1 1.5-1.5 3.5-2.3 1.9-1.5 1.2-1.3.7-1.3.1-.7.2-1.2-.3-1.8-1.1-3.9-1.1-2.3-.7-.9-.9-.7-3.5-2.1-1.5-1-1.2-1.3-2.1-2.4-.8-1.4-.5-1.2-.3-3.8-.3-1-.5-.9-1-.8-1.7-.6-8.2-2.6-2.9-.1-6.7.3-2.9-.2-3.1-.4-1.6-.4-.9-.4-.5-.8v-.8l.2-1.1 1.2-2.9 1.5-2.7 2.8-4 .6-1.2.5-1.6.4-1.4.2-1.5v-1.5l-.6-2.7.1-.7.4-1.1 1.2-1.9 1.7-2.4 7.7-9.6.5-1.1v-.5l-.2-.6-.8-1.1-1.4-1.3-2.4-1.8-3.9-2.6-3.1-3-1.2-1-1.8-.9-4.8-1.6-1.2-.7-1.4-.9-1.4-1.5-2.9-3.9-1.6-1.7-2.1-1.7-5-3.3-1.7-1.5-1.2-1.6-1.8-3.7-1.4-1.7-1.1-.9-1-.5-2.8-.9-3.8-.5-.9.1M366.3 1012.2l.3-.1 3.6-.5 1.2-.5 3-2.8 2.8-3 3.8-3.3 2.2-1.6 3.2-1.9 2.8-2.3 4.8-3.6 3.3-2 1.2-1.1 3.7-4.1 4.5-2.9 1.2-.5 4.5-.6 2.4-.7 1.8-.9 2.7-1.6 3.6-1.3 6.8-3.6 4.9-2.2 3.2-2.2 4.2-3.3 3.5-2.3 4.3-3 4-4.1 1.3-1.6 1.6-1.3 3.8-2.2 6-2.1 3.8-1.7 3.2-2.3 2.1-2.3 2.7-2.5 1.3-.9 1.5-.9 2.6-1.2 3.7-1 2.6-.9.4.1.3.4 1 2.6 1 1.4 1.5 1.4 2.5 1.5 2.1.8 3 .5.6-.1 1.2-.8.6-.1h1.2l1 .6 1.6 1.5 1.3 2 1.7 1.9 1.6 3 2 1.8 1.6 2.4 2 2.3 3.5.9 5.7-.7 2.3.2 1 .5 1.6 1.2.3 1 .1.9-.3.8-1.4 1.8-.4 1.1-.2.9.2 2.2-.2.7-.3.4-.4.2-2 .5-.7.6-.8 1.7-.1 1.7-.2.6-1.3 1.4-1.4 3.1-1.5 2.3-1.7 3-4.3 5.9-1.8 2.6-1.8 2-1.4 2-2 2-1.9 2.3-5.6 5-.7 1-1.1 1.8-.9 1.1-1 1" class="st1"/><path d="M456.6 320.8l-.6.1-.8.4-.5.9-.5 1.2-.4 1.9-.3 2.3v1.8l.6 4.9-.1.5-.2.5-.5.2-.9.1-2.1-.5-1.9-1.1-3.5-2.8-.9-.4h-1.2l-1.6.5-1.4 1.2-.6.9-1.2 2.4-.5 1.1-.8.7-.6.3-.9-.3-2.9-1.4-2.8-.8-3.3-1.1-1.9-.1-2.6.6-1.2-.2-1-.5-1.2-.8-1.3-1.2-2.2-2.5-.9-.6-.9-.4-1.2-.2h-1.3l-2.7.5-1.3.6-1.4.9-1.5 1.2-.9 1.1-.5 1.2-1 3-1.8 4.8-.9 2-.9 1.1-.8.1-2.2-.7-.6-.1-.6.1-.4.3-.5.6-1.5 2.5-.6.5-.6.2-.9-.1-3-1.2-2.4-.4-3-.1-2.7.6-5.2 1.7-1.4.9-.4.3-.4.8-.3 2.3-.2 1-.3.5-.5.5-1.6.3-7.9.9-1.4.3-.9.5-.8.9-2.1 2.9-3 2.8-.9 1.3-.8 1.9-1 3.7-.7 1.2-.6.5-.9.2-4.2.1-.7.2-.5.5-.5.8-.3 1.1-.9 6.4-.4.8-.6.5-1.3.3-4.8.7-2.9.1-2.2-.5-4.7-2.4-2.5-.8-1.2-.2-1.2.1-.9.3-.9.6-1.4 1.6-1.7 2.2-1.1 1.9-.4 1.1v.8l.1 1.1 2.2 9.3v1.6l-.5 1.1-.5.7-1.2 1.1-1.4 1.1-3.8 2.3-4.4 4.1-.9 1.2-1.5 3.1-1.5 2.5-1.2 1.5-4 4.1-.8 1.1-.5 1.1-.2 1.1.1 1.6.3 1.1.9 2.6.7 3 .3.9 1 1.7 3.4 3.5.5.7.2.7-.1.8-.4.7-1.4 1.6-1.6 2.2-2.5 2.8-.4.9-.3 1.1.2 1.5.5 1.6 1.2 2 1.8 2.8.6 1.2.3 1.1v1.1l-.2.7-1.5 1.9-.3 1v1.3l.6 2.2v.7l-.2.8-.8 1.1-2.6 2.7-2.1 2.9-3 2.7-1.1 1.3-.6 1.7-.7 3-1 3.3-.2 1.2v1.1l.2.7.4.6.6.6 2.7 1.7 4.8 3.8 1 .5 2.4 1 .7.5.2.4v.7l-1.1 2.2-.2.8.1.7 1.2 1.9.2 1.1-.1 1.2-.9 2.9-.1 2 .3 1.4.6 1.9 2.3 5.6.4 3.1.6 2.2-.3.7-1.3 1.5-.7 1.1-.1 1.6.3 1.5 1.9 4.2.7.7 1.8 1.8 1.2 2.1 1.7 2.2.4 1.1.4 2.8.3 1.5.6 1.8.6 1.2.6.7.8.6 1 .3 2.1.6.6.5-.3.7-1.5 2.2-.8 1.6-.6 1.5-.5 1.8-.2 2.3.1 2.2.5 1.9.7 2 1.1 1.7 1 1.2 1.3 1 1.7.7 2 .5 2.1.4h1.8l3.6-.5.8.1.5.4.3.7v1.2l-.3 1.9-1 3.7v1.9l.4.7.8.5 1.1.4 3.3.5.5.1.5.5.1.3-.1.7-.7 3.4-.2 1.9.2 2 .8 2 1.3 2 3.1 3.8.7.7.7.5 1.5.4 4.9-.2 1.2.1.9.3v.4l-1.5 1.9-.8 1.4-.3 1.2v.7l.3.7 1.1 1.6 2.6 4.9 1.5 2 1.6 1.7 1.3 1.1 1.2.7.9.5 1 .1.8-.1.6-.4 2.1-2.1.6-.1h.3l.6.6.9 1.1 3.2 4.8.7.7.9.5 1.2.1h1.2l5.2-1.1h1.1l1 .3.5.4.2.6.1 4.1.2 1.3.6 1 1 1.3 1.3 1 1.4.9 1.6.6 2.4.5 2.1-.2 4.8-1.4 8.1-2.1 1.1-.1.3.4-.3.8-2.4 4.4-.5 1.1v.8l.1.4.8.5h1.5l3.4-.6 1.4-.1 1.3.1 3 .7h1.7l1.9-.5 3.6-1.9 1.2-.3.6.2.6.6 2.1 4 .9 1.2 1.2.7 1.5.2 3.1-.3 4.1-.6 3.3-.8 3.4-1.2h.8l1.6.3h.8l1.3-.6 1.6-1.4.8-.2.9.8 2.4 3.3 1.3 1.1 1.4.7 1.8.7 1.3.2h1.1l1.1-.6 1-1 .9-1.5 1.7-3.5.4-.6.6-.5.6-.1.9.1 3.9 1.2 3.1.6 1.7-.1 1.2-.4 3.4-2.8 3.7-2 1.5-1.1.5-.7.4-.8.4-1.3.4-1.8.1-.4.3-.2.8.2 6.3 5.7 1.5 1 1.5.9 1.8.6 1.5.2 1.5-.2 1.3-.4 1.2-1.1.5-.9.4-.9.2-2.3-.1-4.5.2-1 .5-.6.6-.4.9-.1 5.4-.2 1.3-.3.9-.3.9-.8.6-.7 2.4-4.2.9-.9h.3l.6.1 2.8 2.2 1.1.4 1.5.4 1.8.2h1.5l1.5-.4 1.1-.6 1-.8 1-1 2.1-3.4 1.4-2.6 2.3-4.8 1.1-3.5 1.4-2.2.9-.7.7-.2.6.3 1.2 1.5.6.5h.6l.9-.3 3.6-3.7.4-.8.3-1.8.4-.8.7-.6 2.4-1.5.6-.7 1-1.6.8-.5h1.1l4.4.5h1.5l1.1-.4 2.4-1.6 1-.1.6.2.7.9 1.7 3.5.5.8.7.7 1 .5 4.3 1.3 3.4.5h1.2l1.2-.3.9-.3.9-.6.8-.8.5-1 .4-1.1.3-1.6.1-2.2v-3l-.5-6.4-.6-3.3-.5-1.7-.8-1.3-2.4-2.7-2.5-5.2v-.8l.2-.5 2.7-3.5.5-.9.3-1.1-.1-.7-.4-1.1-2.4-3.7-.2-.8.1-.8.3-.6.4-.4 1.1-.5h5.1l6.7-.7 2.3-.5 1.1-.4 1-.7.8-.8.9-1.1 3.6-5.9 1.5-3 1.6-3.7 1.3-4.5.4-1.5.2-1.5-.1-2.7-.3-1.5-1.4-4.2-1.1-2.5-.1-.7.3-.8.6-.7 2.6-1.7.5-.6.6-1.1.3-1.5-.1-2.2-.5-2-.9-2-1.4-1.8-1.4-1.1-1.7-.6-1.9-.1-3.7.2-1.2-.2-.4-.5-.3-.6-1-4.1-.5-1.1-.6-1-1.5-1.6-2.8-1.6-.8-.7-.1-.4.1-.7.3-.8.6-.8.9-.8 2.7-1.8 1-1.2.7-2.9 1.2-3.4.8-3.7.5-1.5 1-1.5 2.9-3.4 1-1.9.5-1.8.3-1.9v-1.9l-.2-1.5-.4-1.5-.8-1.2-.9-.9-1.2-.6h-1.5l-1.5.3-1.5.7-2.4 1.4-1.2.4-.9-.1-2.7-1.3-3-.5-1-.4-.9-.6-.5-.7-1.5-3.3-1.4-2.4-1.7-2.4-.2-.8-.1-1.8-.2-1.1-1.3-3.8-.7-1-1.6-1.6-1.1-2.3-2.1-1.5-.6-.7.1-.8.4-.7 1.8-2.1.5-.9.3-1.2-.1-.7-.3-.7-.6-1.1-.7-.8-3.6-2.7-.7-.9-.3-.9v-.8l.2-.3 1.6-1.9.7-1.2.5-1.4.2-1.5-.2-1.1-.4-.8-2.7-2.9-1-1.2-1.2-1.9-.5-1.5-.1-.7.2-.8 1.7-3.4.6-1.8v-1.2l-.2-1.5-.4-1.1-.5-1.2-.6-1-.9-1.1-2.4-2-2.9-1.6-2.8-1.1-2.2-.4-1.7-.1-1.8.2-4.8 1-1.9.1-.9-.3-.4-.6v-.9l.9-4.9.2-1.5-.1-1.9-.1-1.5-.3-1.1-.5-.7-.7-.6-.8-.4-.9-.1-6.3-.2-1.8.1-3 .6-.6-.2-.3-.3v-.8l.2-1.1 1.2-2.6 2.1-3.4 2.7-3.4.9-1.5.2-1.1-.4-2.2.2-1.2 1-1.3 3.8-3.1 2.1-2.3.9-1.2.3-.7.1-.7-.2-.8-.7-.7-.9-.8-7.5-4.3-1.9-1.5-1.1-1.3-1-1.5-.4-1.2-.6-2.5-.5-1.2-.9-.9-1.5-.9-3.8-1.2-8.7-2-2.2-.3h-1.2l-1.1.2-1.1.5-2.3 1.2-.9.3h-.6l-.5-.3-.4-.3-1.5-2.6-.5-.9-.7-.5-.7-.4-1.5-.5-2.3-.3h-1.8l-3.5.1-1.6-.1-3.1-1.1-.6-.5-.6-1-.5-.2h-.6l-.6.2-3.1 1.8-1.4.3-1.2-.2-3.7-1.6-1.7-.5-10.9-1.5h-2.1l-.6.1" class="st1"/><path d="M431.3 424.2l-1.8.3-12.1 3-8.4 2.5-9.6 1.9-2.7.9-1.2.8-.9.8-.9 1-.8 1.2-2.2 4.2-2.3 5.3-3 7.8-1.3 3-1 1.5-2.7 3-.8 1.1-.2.7-.1.8.3 2.2 1 4.5.5 1.5.5 1.1 1 1.4 2.9 2.9 2.4 3.7 1.2 1.1 4 3 2 1.9 3.4 3.8 2.8 3.4.9 1 1.1 1 3.8 2.3 1.7 1.5 1.4 1.6 1.4 2.1.9 2 .7 1.9.3 1.5.1 1.4-.2 1.9-.9 4.2-1.9 5.9-.1 1.2.3.9.5.4.9.4 5.6 1.1 4.2 1 3.1 1.1 2.6 1.2 1.3.9 2 1.7 1.3.5 1.2-.1 3.6-1.1 3.5-.8 4.3-1.3 2-.3h1.9l2.1.4 2.1.6 2.4 1 1.5.8 1.2.9 1.2 1.1.9 1.2 5.4 8.6 6.3 10.8.6.6.7.4.6.1.9-.2 2.3-1.3 1.9-1.5.9-1.4 1.5-3.8 1.4-2.2 1.3-1.5 4.5-4.4 2.3-1.7 2.8-1.6 2.1-1 4.6-1.8 1.1-.8.4-.6.2-.5v-.7l-.3-1.5-1.4-2.3-3.4-4.4-.6-1.5-.1-1.6.3-1.5.6-1.8 5.5-10.2.8-1.8.3-1.5-.3-1.1-.9-1.6-2.5-3-2.5-3.4-.9-.8-1.1-.7-1.3-.4-1.5-.2-6-.5h-3l-6.1.5-2.6-.2-1.5-.4-3.6-1.4-4.5-1.5-1.3-.7-.6-.8-.5-1.1v-1.1l.1-1.1.4-1.5 1.5-4.1 4.2-9.4.9-2.7.6-2.2v-1.5l-.2-1.1-.5-1-1.9-3.2-.4-1-.2-1.2.1-.7.3-1.2 1.7-3.3.3-1.1.1-.8-.1-.8-.4-1.1-1-1.1-1.5-1.1-10.7-5.6-5.6-3.4-3.5-2.9-3.2-3.8-1.5-1.3-1.3-.7-1.7-.7-2.1-.7-1.6-.3-2.6-.1-1.9.3M817.2 542.4l.8 1.1 1.7 1.5 1.7 1.4M4.8 490.6l.8 1.7.9 1.3.5.6.6.2.7-.3.6-.6 3.3-4.5.6-1.1.2-1.1v-4.6l.6-2.9.3-.9.6-.5 1-.6 1.8-1.5 1.8-1.2.5-.7.6-1.8.4-.8.8-.6 1.7-.9 1.1-.5 2.1-.5 2.5-.2 3.9.6L36 471l2.4.7 1.1.1 1.3-.2 3.3-1.3 2.4-.4 2.1-.7 4.2-.9h2.7l2.7.6 1.6.7 2.1.5 3.1 1.5.6.7 1.9 2.4 2.5 2.6.6 1 .9 2.4.4 3.1.2 3-.1 2.6.1 1.1.5 2 1.2 3.3.6 1.8.4 2.6.2 2.3-.3 3-.6 2.2-1.7 3.2-.9 1.4-.9 1-1.6 1.2-1.5.7-4.6 1.1-1.8.7-1.8 1.3-.8 1.1-.7 2.6-.6 3-.8 2.2-.7 4.2.1 1.4.6 2.3.1 2.7.7 2.6.8 5.7v1.2l-.2.9-.4 1.1-.6.9-1.9 1.6-2.4 1.4-1.3.3-2 .3-2.1.9-1.7.1-2.2-.4-1.8-.5-4-2.6-1.9-.3-1.7-1.7-.9-.1-.5.3-.4.6-3.1 5.2-.4 3-1.3 3.8-.7 2.6-.2 1.5.2 1.3.5 1.7.5 2.6.5 1.2.8.9.3.6v.7l-.1 1.1.1.8 1.5 2.3 1.8 3.3.4 1.1.1 1.5.4 1 .5.6 1.5.8.7.6 1.7 3.4 1.4 3.4.6 2.6.4 1.5.1 1.1-.2 1.5-.3.7-1.1 1.7-.9.6-2.1.7-2.4 1.4-3.9 1.8-3.1 1.1-1.4.3-2.5-.2-2.1-.5-1.4-.7-4.9-2.5-4.2-1.6-1.5-.3-2.4-.2-1.1-.6M247.2 1012.1l-.1-.1v-1.1l.2-.8 1.1-1.9.7-1.6 1.7-3.6 1.7-2.7 2-1.9.3-.8.5-2.9-.3-3.8-1.6-5.5-.3-2.3-.6-3-.1-3-.2-1.4-1.8-4.9-2.5-2.9-.6-.6-.7-.3-5.9-1.9-1.9-1-5.9-5.9-2.2-2.9-.3-.7-.3-.7.3-.5.6-.4 4-.7 8.7-1 4.2-.6 2-.9 1.7-1 1.2-1 3.5-3.1 1.1-.5 2.3-.3 9.7-.2 2.6-.3.9-.3 1.8-1 .4-.4.2-.5.2-1.2v-1.1l-.5-2.2-.8-1.9-.6-.9-3.3-3.7-2.7-2.6-3.3-3.7-.9-1.5-3.4-7.1-1.3-1.9-1.5-1.4-4.3-2.9-.6-.7-1.3-2.1-1.3-1.5-3.6-2.9-5.9-4.8-.8-.8-1-1.6-.7-.8-.8-.5-1.8-.8-.7-.4-.5-1-.7-1.8-.6-.7-.7-.4-2.1-.7-.8-.4-.6-.4-.8-1.5-1.2-.8-6.3-2.2-4.9-1.6-2.5-.3-4.4.3h-2.5l-1.8-.2-1.9-.7-1.9-1.1-1.4-1.2-1-1.3-1.6-3.1-.6-.9-.9-.9-1-.3-1.4-.3-1.8.2-1.2.3-1 .6-.8.7-.5 1.1-.5 1.9-.2 1.9-.3.4-.3.1-.6-.3-1.5-1.3-5.6-4-1.4-1.3-.7-.9-.3-1v-2.6l-.6-4.1-.7-3.4-.7-1.8-.9-2-1.1-1.8-.9-1.1-1.3-1.1-1.2-.6-7.9-2.3-1.8-.8-2.3-1.3-2.3-1.7-1.5-1.4-1.4-1.6-2.6-3.5-1.6-1.3-1.2-.4h-2.4l-1.8-.4-3.9-1.3-3-1.5-1.2-.3-2.7-.4-1.7.2-1.4.8-1.5 1.2-1 1.4-.8 1.6-.5 1.6v1.1l.3 5.3v.8l-.3.4-.6.1-1.7-.5-.8-.5-.7-1-.5-1.2-.2-1.6-.1-1.8.1-1.9.4-1.5.8-1.9.8-1.5.8-1.1 1.5-1.1 1.4-1 3-1.4 2.1-.4 4.8-.4 2.4-.6.6-.4.8-.7.3-.7.1-.8-.1-1.3-1.1-3.6-.9-4.5-1.2-3.7-.5-2-.2-6.2-.2-1.2-.7-1.9-.1-.7.2-2.7v-3l-.4-4.5.3-3.7v-1.1l-.3-1.1-.6-1.6-.8-1.1-3.2-3.4-4.9-5.7-2.5-5.1-.4-1.1-.2-1.1V763l.7-4.1.9-8.9.7-2.3 1.4-2.6.3-1.1.2-1.2-.2-1.8-1.2-3.1-.5-2.6.2-10.1-.3-3.8.4-3.3.1-1.5-.3-7.6-.3-3.7-.5-2.2-1.2-2.6-.9-2.5-.6-1.3-2.6-3.9-1.9-4-1.3-2.2-1.4-1.9-2.6-2.7-.3-.7-.6-1.5-.6-1.1-2.3-3.4-2.3-3.3-2-4.3-.6-1.9-.5-3.6-.1-2.6.4-3 .8-4.7.7-2.6 1.1-2.3 3.8-6.1.6-1.2.1-.7.1-1.1-.1-1.2-.4-1.2-1.2-2.8-3-6.2-1.2-1.8-2-2.3-1.6-3-.9-1-6.6-5-1.7-1.6-1.5-2.2-2.9-4.7-3-3.8-.5-1.6-.7-4.4-1.5-8.6-.8-2.6-2.2-4.9-.4-1.5v-1.6l1.2-5.3.8-2.5 1-2.1 1-1.6 1.4-1.7 2.9-3.1 2.9-2.7 3.1-3.5.9-1.1 1.2-1.9 10.9-19.3 2.3-4.7 2.5-4.1 5.2-9.3 1.2-3 1.4-4.9.4-2.2.2-1.8.1-1.6-.1-1.5-.3-1.1-.9-1.8-2.9-4-1.1-2-1.6-3.2-1-2.5-.8-2.6-1.5-5.2-.8-4.9-2.3-7.2-.6-3.4-.2-3.1.2-3.2.5-3.4.9-3.1 1.5-3.5 1.7-3.3 1.2-1.9 4.2-5.8.6-1.1.3-1.5-.3-1.9-.7-2.1-1.2-2.2-2.4-4.2-1-2-.5-1.9-.9-4.5-.6-1.6-.8-1.7-.1-.4.3-.4 2.1-1 1.5-1.2 3.8-4.7 1.9-1.8 3.8-2.7 3.8-2.1 1.5-1.1 1.8-2.1 2.9-4.1 2.2-2.8 2.8-4.3 2.2-2.9 1.8-1.9 2.4-2 3.2-1.9 4.5-1.9 3-.9 8.9-1.8 5.8-2.1 3.6-1.7 3.4-1.8 2.7-1.8 1.4-1.4.8-1.3.3-1.5V353l-.2-3.8.2-3 .6-2.3.9-2.2 2.5-3.8 2.6-3.4 3-3.4 5-5.2 1.5-1.7 2.1-3.2 1.2-2.5.4-1.1.2-1.5.1-7.1.2-1.9.4-2.5 1.6-6.3 1.6-5.1 1.2-4.4.6-2.6.7-4.8.9-2.6 1.3-2.3 1.6-1.7 1.4-1.3 3.7-2.8 3.7-2.2.6-.7.4-1.2-.1-1.5-.4-1.8-.6-1.5-1.9-4-1.1-3-.5-2.1-.5-4.4-.4-2.6-.6-1.9-.9-2-.6-2.2-.8-1.5-2.3-2.8-1.3-1.8-1-2.3-.7-2.7-.2-1.3v-1.5l.4-4.3.6-2.6 1.7-4.3.2-1.5-.2-1.1-.7-1.5-.8-1.1-.9-1.1-2.6-2.4-1.5-1.9-.9-1.6-.5-1.5-.4-1.5-.1-1.4v-2l.3-2 .4-2 .8-2.8 1.9-4.4 1.4-1.5.4-1.3.2-1.9-.4-4.8.1-2.3.7-3.6 1.6-5.5 3.2-9.2.6-1.1 2.3-2.7 2.3-3.9 2.2-3.3.8-1.8.3-1.8v-2.3l-.2-2.3-1.1-5-1.3-8.5-.5-2.2-.7-1.9-1.2-2.5-6.1-10.5-.9-1.8-.5-1.6-.4-1.6-.6-4.5-.3-6.7.3-5.8.6-3.8 1.6-6.7.7-5.1-.1-2.6-.6-4.9.1-1.9.4-1.9 1.1-3.6 2.1-4.9.4-1.5.4-1.6.1-1.1-.4-1.1-.5-.8-5.3-3.6-1.5-1.1-1.3-1.4-1.1-1.6-.9-1.5-.7-1.7-.4-1.8-.5-4.5.1-1.5.2-1.3 1.3-3.7 2-4.6 2.3-4.2.2-.8-.2-.8-.5-.7-1-.5-2.8-1-1.7-.4-8.1-.2-1.2.2-2.1.9-1.2.1-.9-.1-.9-.3-.8-.4-.5-.5-.7-1.4-.5-2-.2-.6M322.4 901.4h-.7l-1.2.9-.7 1.1-.6 2.5-.2 1.2.2.7.4.8 1 .6 1.4.2h1.6l1.7-.6 1.4-.8.4-.6.2-.6.1-.5-.1-.8-.2-.7-.6-.8-1.7-1.6-1.8-1h-.6" class="st1"/><path d="M482.1 364.7l-1.1.2-3.4.8-12 3.8-2.7.5-2.2.1-1.7-.2-5.7-1.1-1.5-.8-3-2.3-1.3-.4h-1.4l-2.4.6-2.3 1.2-1.6 1.3-3.1 3.5-1.5 1.6-2 1.4-1.6.4-.9-.1-1-.6-3.8-3.7-1.3-1-1.4-.9-1.5-.6-1.2-.3h-1.2l-1.2.2-1.5.8-1.5 1.2-1.5 2-2.4 4.3-.9.8-.9.4-1.2.3-1.5.2-5.4-.2-2.8-.4-4.2-1.2-1.5-.1-1.8.2-1.5.5-1.4.9-1 1-2.1 2.8-1.2 1.2-1.3 1.1-1.4.8-1.6.5-1.4.3-1.8.1-3.6-.3-.9.1-.6.3-.7.5-.8 1.1-3 4.3-1.2 2.3-1 2.8-1 5.6-.8 2.2-1.3 1.8-2.2 2.1-1 .6-1.1.5-2.8.7-2.7.3-6 .1-1.8.3-1.8.5-2.1 1-3.1 2.7-1.7 1.1-1.8.8-5.4 1.9-1.4.8-1.3 1-1.4 1.9-1.3 2.2-.3 1.5.3 1.2.4.7.7.7 4.4 3.7 3.1 3.1 6.5 7.8 1.1 1.5.6 1.1 1.5 4.6v.7l-.5 1.1-.7 1.2-2.2 2.6-.3 1.1.2 1.1 2.1 4 1 2.8.2 1.5.1 1.1-.2 1.2-.3 1.1-.6.7-1.1.7-6.5 2.6-2.2 1.1-2.1 1.2-1.4 1.2-1 1-.7 1.2-.4 1.2v.7l.1.7 1 1 8.6 5.5 7.2 3.6.8.5.4.6.1.9-.2.7-.7 1.1-1 1.1-2.7 2.7-4.7 3.6-1.2 1.2-.4.8-.2 1.1.1 1.2.3 1.1.5.7.6.5.7.2 1.3.2 8.3.1 2.5-.2 4.2-.7 1.5-.1 5.1.7 4.8.3 4 .7 2 .5 1.4.8.5.7-.2.8-.4.8-5.2 5.5-2.1 1.9-4.2 3-1.8 1.6-1.2 1.2-2.8 3.5-3.5 3.1-.9 1.2v.7l.3.7.9.7.9.4 1.8.4 3.9.3 2.4.4 3.3.8 2.1.7 1.1.7.8.9.6 1.1.4 1.1-.1 1.1-.6 1.1-1.1 1.1-3.2 2.4-1.7 1.7-1.1 1.6-2.3 4.1-2.9 3.5-.8 1.1-.3.7-.1.8.1 1.4.5 2.3.9 1.4 2.9 3.2 1.8 2.1.9.6h.9l2.1-.5 5.7-2.5 6-1.7 1.8-.3h3.7l2.4-.6 3.6-1.4 5.1-3 2.4-1.3 1.8-.5.9.2.4.6.2.8v1.1l-.3 1.8-1.5 6.3-1.5 5-.9 2.2-1 1.9-1.1 1.5-3.5 4.5-.7 1.1-.3 1.1v.8l.2.3.7.8.8.5 2.5.9 1.2.6 1.2 1 .9 1.3.5 1.3.2 1.1-.2 4.5v1.6l.3 1.4.5 1.2.7 1.2 1 .6.9.3 1.2-.2 1.8-1 4.1-3.6 2.2-1.5 2.2-.9 1.2-.2.9.1 2.1.9 2.2 1.5 2 2 4.8 5.4.6.5.6.2.6-.1.3-.3.6-1.2.4-1.3.9-4.3 2.6-8.3 2-5.3 1.4-4 .7-1.6 1.2-1.8 2.7-2.6 1.3-1.5 3.6-5.4.9-.6h.6l1 .7.6 1.1 1.6 4.9.6 2.6.3 5.7.4 2.3.6 2.2 2.4 6.1 1.3 2.5 3.2 4.9 2.5 4.2.6.8.6.3.6-.3.6-.8 2.3-4.7 1.4-2.1 1.4-1.3 1.5-.4 2.1.2 3.3 1.1 5.2 2.2 5.1 2.6 1.8.8 1.2.3.9.1.9-.3.7-.3 1.2-1.2.5-.6.2-.8.1-1.4.1-5.2.2-1.5.4-1.5 2.2-6.2.7-.9.9-.6 1.3-.1 1.4.4 1.8.8 4.8 2.6 2.8 1 1.2.1 1.2-.1 1.1-.3 1.2-.6.9-.7.6-1 .3-.8.1-1.1-.4-2.2-2-6.8-.6-3.4-.2-1.8v-1.1l.3-1.2.5-.7.8-.5 1.9-.6.9-.4.7-.9 1-2.1.4-.8.8-.5 1-.2 2.1.2 2.4.5 7.5 3.2 2.2.7 1.7.4 1.8.2 1.9-.2 1.8-.5 1.7-.8.9-.7.4-.8.6-3.8 1.1-3.3.1-1.5-.3-3.4.3-1.1.4-1.1.5-.7.8-.9 4.8-3.1 5.6-5.1 1.1-1.1.7-1 .4-.9.3-1.1.3-3.4.8-2.6v-1.2l-.5-1.4-2-3-.8-1.5-.4-1.6-.4-2.2-.3-.7-.7-.8-1.3-.9-1.5-.6-4.5-1.3-.9-.6-.3-.3-.1-.4.2-.8 3.9-5.6.8-1.5.2-1.1-.7-2.7v-1.4l.3-1.9 1.2-3.4.2-1.1-.1-.8-.4-1.1-2.1-2.9-.9-1.6-.3-1.3.2-1.3.5-1.1.7-1.1 3.4-3.4 1.7-2.2 1-1.9.1-.8-.1-.8-.2-.3-.4-.2h-1l-6.2 1.5-2 .2H543l-2.1-.2-2.2-.6-1.5-.6-.8-.9-.3-.4-.2-.7.1-.7.1-.8.6-1.1 2.3-3.8.4-1.4.3-1.9.6-4.1.1-2.6-.3-1.2-.8-.8-.9-.3-1.4-.3-3.9-.2-3.1.2-5.1.9h-2.7l-2.9-.6-8.1-2.1-.9-.5-.3-.4-.1-.7.4-1.2.6-1.1 1-1.2 1.4-1.1 4.4-2.6 2.1-1.6 2.3-2.1 3.4-3.7 3.6-3.2 2.1-2.1 2.1-2.7 1.4-2.2.7-1.5.1-1.5-.6-3-.2-3.3-.3-2-1.2-3.6-.4-.8-.5-.6-.8-.5-.9-.3-5.6-1-1.3-.5-.8-.6-.9-.8-.6-1.1-1.9-4.9-.5-.8-.7-.6-1.2-.3-1.9-.3-8.6-.6-1.6-.2-1.5-.8-1.8-1.5-2.5-1.8-.7-.8-.2-.4-.1-.8.2-.7.3-.7 1-1.5 3-3.4.7-1.1.6-1.2.9-3 1-4.4.1-1.6-.2-1.5-2.2-7.1-.9-1.9-.6-.7-.6-.5-1.6-.5-2.4-.1-4.8.4h-2.1l-1.8-.4-3.3-1.4-2.4-.2-1 .1" class="st1"/><path d="M510.6 265.4l-1.1.1-1.5.5-1 .8-.6 1.2-.6 2.2-.2.4-.6.4-3 .1-1.4-.2-1.2-.5-1.6-1.6-.6-.4-.6-.1-.9.5-1.2 1.2-1.8 2.6-5.1 8.4-1.2 1.5-.9.4-.7-.3-.8-1.2-.3-1.1-.3-3.3-.3-.8-.6-.8-2.1-1.4-2.2-1.7-2.3-1.4-1.9-1.3-.9-.5-.9-.2-3.9.2-2.7-.2-1.5-.1-2.7-.7h-1.5l-2.1.5-4.3 1.8-3.2.7-2.5 1.2-1.2.2-1.4-.2-1.4-.3-2.6-1.4-1.2-.2-1.1.1-2.5.6-2.7.3-2.7.3-5.4.1-1.4-.5-2.2-2.2-.5-.2h-.4l-.6.3-.9.8-.7.9-.3.8v1.5l1.1 5-.1.7-.3.3h-1.2l-2.7-.8-1.2-.2-1.5.1-2.8.6-2.9-.3-1.8-.6-1.8-.8-1.8-1.1-2.8-1.9-1.5-.8-1-.2h-1l-1 .2-.7.4-.9.9-.7 1.5-.4 1.5-.8 3.7-.7 1.9-1.5 3-2.5 3-2.7 5.6-.4 1.2-.1 1.1.1 1.2.3 2.2-.1.5-.4.1h-2l-1.5.3-3.9 1.7-4.8 1.5-1.8.7-2.4.4-.9.4-1.2.9-3 3.2-.4.7-.8 1.7-.3.6-1.9 1-.5.5-1.1 2.2-.3.4-.8.4H354l-4.8-.6-.9.1-.9.4-.6.5-.5.8-.7 2-.3.4-.5.2-1.9.2-.8.3-2.5 1.4-1.3 1-.6.8-.6 1.1-.9 3-.3.6-.5.4-.9.3h-1.2l-7.3-.5-1.5.2-1.2.4-1.1.5-.5.6-.3.9-.2 1.5-.3.5h-2.7l-.9.2-.6.4-1.4 1.1-.7.4-.9.2h-1.8l-.9.2-.9.5-1.9 1.7-.8.6-5.7 2.1-1.3.6-1.2 1.3-1.1 1.9-.3 1.4-.2 2.6-.1.5-.3.3-1.2.7-.7.8-.4.7-.5 1.8-.6.7-.6.5-1.4.6-.6.3-.8 1-.6 1.3-.7 2.5-.3 3-.2 4.2.7 4-.1.8-.3.7-.7.5-2.4 1.2-1.6.9-1 1-1.6 2.1-1.6.7-.9.5-1.2 1.6-2.4 4.2-.6.8-.7.6-2.3 1.1-1.3.9-.6.8-1.2 2.2-2.3 1.9-1.7 2.4-1.4.4h-2.6l-.9.2-1.1.5-4.1 2.4-3 .8-1.5.6-4.4 2.6-2.2 2-1.3 1.5-.5.8-.3.7-.5 2.7-.3.7-.4.5-2.3 1.4-1.9 2.6-2.4 2.3-.7 1.1-.3 1.2-.1 1.8-.7 2.1-.2 3-.4.7-1.2 1.7-.4.7-.2 1.2-.1 2.3-.1.7-1.7 3-2.1 7.1-.1 1.1.5 2.3-.2.5-1 1.7-.3 1.1v1.1l.6 2.7.1 1.1-.1 1.5-.6 3.4-.1 1.1.1 3 .3.7.7 1.2.1.8-.2 1.4-.8 2.3-.1.7.3 1.1 1.3 2.7.2.8-.3.4-2.8.4-1.2.6-.7.8-.9 1.4-2.1 2-1.1 1.3-.7 1.6v1.5l.5 1.6 1.1 1.8.1.4.1.4-.7 1.1-1.7 1.5-.9 1.2-1.4 2.2-.6 1.5-.4 3-.2 3-1.3 7.1-.1 2.6.1 1.9.6 2.2.7 1.5 1.2 1.9.1.4-.2.4-1.7 1.5-.7.7-.4.7-.8 2.6-.2 1.5.5 2.7-.3 3.4.3 3-.2 1.1-.8 2.3-.2 1.8v1.9l.3 2.6v3l.6 6 .2.8.6 1.1 2.2 1.9 1 1.1 2.2 4.1 1 2.3.8.7 1.4 1 .5.5.1.4v.7l-.4 3.2.1 1 .4.7.5.5.6.4 2.7.5.6.5.4.6.5 2 .4.6.9 1.1.3.6v1.1l-.7 3v.8l.3.6.6.4.9.1 1.2-.3 3-1.3h1.2l.7.5.1.3v.8l-1.7 5.2-.2 1.5.1 1.1.7 2.3.6 1.1.6.7 1.4.9.6.8.3.7.7 3.3.4 1.1.8 1.2 1.2 1.1 1.5.6 1 .1 2.7-.4.8.1.4.2.2.3.7 2 .3.4.5.4 3.5 1.2 3.8.2.7.4.5.5.2.3-.2.8-.9 1.5-2.7 3.4-.5 1.1-.2.7.3 1.5.6 2.7.5 2.2.6 1 1.4 1.2.3.4-.1.7-.7 1.7-.4 1.4-.1 1.8.3 1.5.5 1.1.4.8 2.1 2.3.1.3v.4l-.6 1.9v.7l.1.8 1 2.2 2.1 2.8.7 3.6 1.3 3 .8 1.5 1 .9 1.2.9 2.4 1.2.3.4.2.7-.2 2.2.2 1.6.4 1.1.9 1.9.9 2.6.5.9.6.6 2.3 1.2.8.6.3.7.6 1.9.5.7.6.5 1.7.9 1.7 1.8 2.3 1.5.5.5.7 1.4.7.6.8.5 2.6.9.9.4.4.5 1 1.5.6.5.6.3.6-.1 2.7-1.1h.6l.2.2.3.7.9 2.6.7 1.1.9.8 2.4 1.5 1.5 2.2 1.1.9 1.7.9 2.9.9 1.5.3h2.4l.3.7.3 2 .3.6.6.6 1.2.6 2.8.4 1.2.5 1.2.9 2.4 2.3 1.8.9 2.4.5 2.4.2 5.4-.5h3.6l3-.3 1.6.3 2 1.1 1.2.4 1.6.2h1.8l4.2-.9 1-.4 1.2-1 2-2.5.6-.5.6-.1.3.7.1 1.1-.3 3.4v1.4l.2 1 .6.8.9.6.9.3 1.2.2.9-.1 1.5-.5 3-1.6.9-.1.5.5.5.9.7 2.9.4.9.7.5 1.1.3 1.5-.3 2.1-.5 4.6-2.3.6-.4.5-.8 2.2-4 .6-.8.3-.1.3.4v3l.3 3.1-.1 1.3-.5 2.8v.7l.4.7.7.5 2.3.9 1.4 1 .9.5h1.2l2.1-.3.6.1.4.6.8 2.1.8 1 3.2 1.9 2.4 1.7 1.2.7 2.3.8 2.5.4 2.6.1 2.2-.4.9-.2.9-.5.9-1 1.5-2.2.6-.4h.3l.6.5.6.6 2.4 2.8 1.2.7 3 .4 3.6-.2 3.1.6h2.7l3.6 1 1.2-.1.8-.5 1.6-1.5.8-.4.7.2 2.4 1.3 1.5.2.8-.2 1.3-.8 2.1-.7 2.6-1.1 1-.3.9.2 1.8 1.1.9.4 1.5.2 1.9-.2 2-.3 4-1.3 3.9-.5 3.3-.7 4.5-.5.9-.3 2.1-1.2 2.4-.2 1.3-.4 1.1-.8.5-1.1.1-1.1-.4-3.1.1-.7.3-.1.6.1 2.4 1.6 1.3.6 1.2.1 1.1-.5 10.3-9.2.6-.9.3-1v-1.1l-.3-1.6v-.4h.2l1.3-.6 1.8.1.9-.2.7-.6.8-1.7.6-.6 1.5-.5 3.6-.4.9-.6 1.3-1.5.7-.2 2.3-.1 1.1-.3 2.6-1.2 1-.7.5-.6.3-.7v-.8l-.3-2.6.1-.8.4-.2 2.4.3.8.3 1 .7 1.2 1.5.9.5.6-.5.2-.7.4-1.9.3-.4.3-.1h.6l.6.2 1.8 1.1.9.1.6-.3 2.2-1.6 2.6-.9.9.3 1.8 1.4.9.2h1.2l1.2-.3.8-.6.5-.6.9-2.2.6-.7h.5l2.7 1.2 2.5.5 2.3-.2 2.3-.7 1-.6 1-.8 2.1-2.3.6-.5 2.8-.6 1.1-.4 3.9-2.4 1.2-.8 1.5-1.4 1.1-1.3 2-3.3.9-1.9.6-.7.8-.7 2.7-1.2 2.3-2 2.4-1.4 1.2-1.1.8-1.1.4-1.1.8-3 .5-2.3 1.3-2.3.3-1.1.2-2.3.3-.7.3-.1.7.2 3 2 1.5.5.6-.1.8-.4 2.2-2 .7-.8 1.2-2.1 1.2-1.3 1.4-2 6-7.7 1.3-2.2 1.5-2.3.4-1.1.4-1.9.5-.6.7-.3h.6l.6.2.6.4 1.6 1.6 1.8 3.1.8 1.2 1.3 1 1.8 1 1.5.6h1.8l1.7-.5 1.3-.8.6-.7.5-.7.6-1.8.3-3.7 1-3.8v-1.5l-.3-1.1-.6-1.2-1.4-2-1.2-1.5-1-1-1.3-.8-1.4-.6-3.5-.6-.9-.3-.7-.6-.1-.4v-.8l.9-1.8.4-1.9.3-.7 2.3-3 .8-1.7 1.1-1.6.5-1 1.8-6.3.5-2.9.4-.8 1.3-1.5.3-.7.2-1.2-.3-2.2-.1-1.1.4-1.9.4-1.2.6-.3 2.4.1 1.2-.1 2.8-1.4 1.2-.9.7-.7.6-1 4.2-8.3.3-1.6.1-3.3 1.1-6 .2-1.9-.2-1.9-.3-1.9-.8-1.8-1-1.4-2-2-.3-.8.1-.7.6-1.1 2.1-2.2.5-.9.3-1.1.1-2.4.2-.9.5-.5 1.8-.8 4.8-1.2 2.3-.9.9-.8 1-1.1.6-1.1.4-1.1v-1.9l-.4-3.7.1-.8.9-2.3.3-1.1.2-1.1-.2-1.1-.6-2.2-1.2-2.9-.9-1.7-2.6-3.4-.3-.7-.2-1.5.1-.7 1-1.9 1.5-3.4 2.9-3.3.5-.8.3-.8v-1.5l-.4-3 .6-4.8-.1-3.4.2-2.7-.1-1.4-1.1-3.8-.6-4.8-.5-2.3-.7-1.9-1.9-3.3-1.6-6.8-1.4-4.1-.6-1.1-.5-.8-3.6-4-.9-1.2v-1.2l.6-2.6v-1.8l-.3-1.6-.5-1.4-.6-1.2-1-1.5-.3-.8-.2-6.7-.8-5.3v-2.2l-.3-3-.6-1.6-1.6-2.9-.7-1-1.7-1.9-.7-1.2-.3-1.1-.5-3-.9-3-.7-1-1.6-1.6-1.6-1.9-5.7-4.7-.9-.9-.2-.8.3-1.1v-1.2l-.2-2-1.6-3.9-.9-1.6-1.4-1.3-6.3-4.7-1.1-1.3-.8-1.6-.5-.8-2.9-2.6-1.3-.9-2-.8-2.6-2.6-.9-.6-1.1-.6-5.8-1.6-1.6-.3-1.4.2-2.7 1.2-.9.3-.5-.3-.7-1.1-.4-.4-2-.6-.9-.6-.3-1.1v-2.2l.1-2.6-.3-1.5-1.5-3.6-.6-2.4-.4-1.2-2.8-4.8-1.4-1.9-.2-.7-.1-2.3-.3-1.1-3.4-4.5-.6-.3-.6-.1-2 .9-.7-.2-1.9-2.9-2.6-2.1-.8-.9-.2-.4-.1-.7 1.5-3 .2-.8v-1.1l-.8-1.9-2.9-5.1-1-1-1.3-.6-6.2-1.3-3.3-.3-1.6-.4-1.8-.9-.6-.5-.3-.3v-.5l.5-.7 2.4-2.1 3.1-2.7 1.2-1.6.5-1.1.3-1.1v-1.1l-.2-1.2-.5-1.1-1.6-3-.6-1.5-1.5-4.9-.6-4.1-.3-1.5-.7-1.9-.8-1.5-.9-1.2-1.1-1.1-5.2-4.4-2.5-1.5-2.9-1.2-3.4-.8-6.3-.5-1.8.4-.9.5-1.5 1.1-.6.1-.6-.3-1.8-2-.9-.8-6-3.1-1.8-.5-4.3-.7-2.3-.1-1.1.1" class="st1"/><path d="M817.2 383.9l-.2.2-1.6 1.6-.8.6-1.5.6-1.2.2-4.2-.5-1.2.1-.6.2-1.6 1.2-1.2.6-2.6.6-1.5.5-1 .3-4.8.3-11.7-1-3 .4-3.3.1-.9-.1-1.5-.5-1.5-.2-2.4-.6h-8.8l-5.4-1.4-1.1-.5-4.4-3.5-2.3-2.3-2.1-1.5-2.2-1.9-3.2-1.9-3.7-3.1-2.2-1.5-1.3-1.4-1.4-2.3-1.7-1.9-1.6-1.6-1.7-1.2-3.6-1.9-.7-.5-.4-.5-.3-.6-.3-2.7-.6-1.4-.6-1.2-1.3-1.1-.9-.7-1.8-1.1-1.5-.6-1.8-.6-3.5-.5-1.8-.7-2.8-2.9-3.8-2.7-.5-.6-1.5-2.3-1.5-1.9-1.1-1.2-1.3-.7-2.5-.6-1-.5-1-.9-1.1-2.5-1.4-1.5-3.8-2.9-1.8-1-2.4-1.5-.5-.5-1.2-2.3-3-3.2-1-1.8-.9-2.5-1.1-1.5-1.3-1.2-1.5-1-1.2-.6-1.8-.6-.7-.3-.4-.5-2.2-4-1-.8-2-.5-.7-.5-1.8-3.1-1.6-2.3-.5-.3-.9-.3-2.1-.1-.5-.2-.4-.2-.9-1.4-.6-.4h-.9l-1.8.5-.6-.1-.7-.7-1.7-2.4-.2-.9-.4-2.9-.4-.7-.8-.3-2.4.1-.6-.3-1.3-1.2-.5-.4-.6-.2-2.1-.2-.5-.2-.7-.7-1.1-2.2-.6-.5h-.8l-.8.6-2.9 3.3-1.7 2.5-.3.1h-.6l-.4-.4-.3-.6-.5-2.8-.8-2.2-.7-2.6-.6-1.1-.6-.6-1.5-.9-2.1-.8-3.3-.1-2.1-.4-2-1-1.1-.3-1.1-.1-2.8.1-.8-.1-3.1-1.4-.5-.4-.5-.6-1.3-2.4-.9-.8-1-.7-2.1-1.1-3.3-1.3-3.6-1-1.5-.1-1.2.2-.9.4-1.8 1.1-3.3 1.5-.6.1h-.6l-1.7-1.3-5.6-5.4-3.7-2.4-3.7-1.9-2.8-2.2-2.4-1.6-6.8-2.4-3.2-.9-2-.8-3.6-2.1-2.4-1.7-.9-.4-2-.4-1.3-1.2-1.2-.6-1.9-.5-3.2.4-1.3-.1-2.6-1.2-3.5-1.8-2.8-1-1.6-.2-4.7.2-3.4.5-2-1-1.9-1.3-1.1-.5-2.5-.4-2.4-.1-3.3.7-4.5 2-5.1.6-1.3.3-1.8.8-2.3 1.1-2.5 1-2.6 1.5-.6-.1-3.1-1.8-1.1-.4h-4.3l-4.9-.5-3.2-.8-2.1-.1-1.5.2-1.9.4-4.4 1.6-2.8.7-1.7.7-2.8.3-4.8 2.3-1.5.4-.6-.2-.3-.3-.8-1.6-.6-2.2-.8-5.3-.6-1.4-.9-1.2-1.4-.9-2.1-.2-.6-.3-.4-.4-.8-1.6-.9-.6-2.7-1.2-1.8-.5-2.4-1.4-3-1.2-2.4-.6-2.2-.4-1.4.2-2.4.8-1.6-.1-2.6-.6-2.4.1-6.1 1.4-5.1 2.2-4.5 1.3-1.8 1-2.1 1.6-.8.8-.7 1-1.1 2.2-1.1 1.5-1.5 1.5-1.3 2.5-1.2 1.1-.4.6-.3 1.1.2 2.6-.2.8-.9 2.3-.1 1.1.1 1.8-.2.8-.4.4-2.1 1.4-1.8 2-.6.5-.6.1h-.6l-3.1-.6-.6.2-.6.4-.7.9-.4 1.1-.3 1.4-.2 2.3-.1.6-.3.3-.7.2-.3-.3-.8-2.7-1.6-2.7-.9-1.3-.8-.5-1.6-.2-3.3 1-4.1-.1-1.9.1-4.8 1.3-3 1-1.2.6-.9.8-1.5 1.7-1.5 1-.9.7-1.8 2.7-.7.3-2.1.3-.8.4-.9 1.1-1.3 1.9-.3.4-.6.1-2.1-.3-1.2.2-1.1.4-1.9 1.2-2.7.7-1.6.7-1.1.8-2.1 1.9-1.8 1-1.1.8-2.2 2.3-1.5 1.9-2.8 2.1-5 4.8-2.6 2.9-3.1 2.4-2.2.5-1.5.7-3.9 3-4.8 4.2-2.4 1.5-.6.7-1 1.9-2.8 3.1-2.3 2.1-1.7 2.6-.6.8-2.7 1.8-1.9.2-.9.2-3.1 1.6-3.8 2.3-.8.8-1.3 1.4-2.4 1.5-.9 1.1-.6 1.5-.3 1.8.2 2.9-.2.5-.1.2-.5.2-1.8.4-1 .3-1.9 1.1-2.5 1.9-3.3 1.1-.9.6-.9.7-2.1 2.6-.6 1-.4 1.1-.3 1.8.2 3.1v3.9l-.3.8-1.6 1.9-.3.1-.6-.4-2.4-3.7-1.8-1.5-1-1.5-1.8-1.8-1.2-.8-1.8-.5-2.3-.2-2.5.5-1.7.7-4 2.5-3.7 1-1.8.8-2.3 1.6-1.5 1.4-3 3.4-2.7 3.9-1.5 1.9-1.4 1.5-4.1 3.9-4.3 3.7-5.8 4.4-6.6 4-1.3 1.1-2.3 3-2.6 2.2-.8 1.1-.3 1-.2 1 .2 2.9-.3.8-.3.3-.8.6-3.2 1.3-2.5 1.3-1.5 1.2-2 2.1-1.3 1.7-.7 1.3-.6 1.8-.3 1.9v1.1l.5 1.5 2.3 5.4 1 1.1 3.1 1.7 4.1 1.8 1.6.3 2-.6.5.2 4.4 4.4.3.7.2 1.3.4 1.7v.4l-.6.1-2.7-.9-2.5-.4-3.6.6-5.3-.5-1 .3-.4.4v.4l.1.7.5.8.7.7 1.6 1.2 4 2 1 .9.2.4.1.4-.2.4-.6.5-3.9 2.3-.9.2-2.8.2-1.8.8-.7.5-.7.7-.1.4.1.7.6.7.6.5 3.2 1.6 2.4 1.7 2.7.6 1.9.9.6.5 1.4 1.8-.3.3-.2.1-2.8.2-2.4.6-3 .5-1 .5-1.1 1.5-.4.4-6.5 2.3-1.5.7-1.1.8-.6.7-.5.8-.4 1.1-.3 1.1.2 1.5 1.5 3.7v.4l-.3.8-1.1 1.4-.7.9-4.7 3.9-2 1.5-1 1.3-.3 1.1v.8l.2.7 2.2 3.6 1.7 3.6.6 1 .7.8.7.6.9.2.6-.1 3.1-.8h.9l1.3.3 1.4.5 1 .6.6 1 .1.7-.2.4-.4.2-3.2.5-1.8.8-4.3 2.9-1.1 1.3-.6 1.3-.5 2-.5 2.3-.4 3.5-.3 1.3-3.7 9.1-1.1 2.4-2.3 3.5-1.8 3.4-2.4 5.4-1 3.5-.3.6-2 2.5-.9 1.5-.7 1.4-.3 1.5.2.8.5.9 1.2 1.4 1.2 1.1 1.5.8 1.5.7 1.5.3 1.8.3 1.5-.1 1.2-.4.9-.4 2.4-1.6 3-1h1l.3.3.6 1.1.5.3h.3l.9-.3 1.9-1.5 1.5-.7 1.1-.3 2.7-.1 1.9-.7.6.1.4.6.2.7v.4l-.5.7-1 1.1-2.5 2.1-2.3 2.8-2.5 1.9-1 1.1-.7 1.5-1.4 3.6-.9 2-.2.8.1.7.3.4 1.1.7 1 .3 1.2.2 3-.2 3.2.8h4.5l.3.1.4.4.1.7-.5 1.1-1.7 2.7-.8 1.5-.7 2.6-.5.7-2.3 2.2-1.3 2-.4 1.1-.3.9.1.9.2.8.5.8.5.4 1.3.6 8.2 2.1 1.5.2.6.3.7 1.2.2.7-.5 2.7.1.8.3 1.2.6 2.1.3.8.6.8.8.5 1.4.6.9.1.6-.1 1.9-1.1 1.1-.3 1.8-.2.6.2.5.3.2.3.2 1.5 1.1 1.5.1.4v.7l-1 2.5-.5 2.8.1.7.2.8.3.6.6.5 1.4.8 2.8.8 3.6 1.3 4.5 2.1 2.1.4h3.4l2.2.6.2.3-.2.5-2 1-1.4 1.8-.7.4-.9.3-3.3.5-2.4.7-2.1.3-1.5.5-1.8 1.2-3.6 2.6-7.2 3.4-.9.9-1.4 1.9-.9.6-1.7.5-2.9.3-1.9.7-.6.3-.6.7-1.3 2.2-1.8 2.4-.3.7.1.4.1.2.9.2 4.1-1.1 3.9-.5 4.9.5 4.2-.2 1 .3.8.6.1.4-.3.7-2.9 2.9-1.5 1-3.5 1.9-1 .7-.6 1-.3.7.2 1.2 1.1 2.6.6 2.2.3.4.4.3.8.2 1.2-.3 5-2.1 1.6-.5 6.3-1.4 1.5-.2 1.2.1 1 .2.6.4.1.4-.6 1.8v1.2l.5 1.1 1.4 1.1 1.2.5 1.5.2 1.9-.2 3.2-.5h1.2l1.4.5 2.7 1.7-.5.8-1.3 2.8-.5.8-1.5 1.6-3.1 3.2-9 11.1-1.2 1.8-.3.9v.7l.3.7 2 1.7.6 1.1.3 1.3-.1 3.1.1.7.3.3.5.2h1.5l1.5-.5 1.2-.8 1-1.1 2-2.7.7-.9 5.5-4.1 4.7-2.9 1.8-.7 1.2-.1.2.2-.2.7-3 4.5-.8 1.5-.3 1.1v1.6l1.1 2.6.4 2.6.5 1.2.2.4.6.5 1.3.3 8.1-2.1.6-.1.3.1v.9l-1.7 3.5-2.3 2.4-3.1 3.8-1.1 1.5-.7 1.4-1.1 2.7-2.4 3.7-.8 1.6-.5 1.5v1.1l.5 1.1.6.7 2 1.6.6.7.3.8.3 1.1-.1 1.1-.6 3-.1 1.1.2.9.6 1 1.2 1.1 1.3.5h1.7l2.2-.4 2.7-1 1.8-.9 6.3-4.6 1.5-.6 1.8-.4.1.3v.4l-.9 3.7v1.5l.2.8 1 2.1.9 3.1.5 1.1.8 1.2.4.7-.3 1.1-1.4 4-.7 2-.3 1.9.1 1.4.5 1.6 3.5 5.6 1 1 1.3.5h1.2l2-.2 2.1.3 1.3-.1 2-.6 7.3-3.3.5-.1.2.2-.1.9-.6 1.4-2.7 4-2.3 3.9-.9 1.9-.4 1.5-.1 2.2.3 1.6.4 1 .6 1.1.9 1.2.7.8.8.4 1.4.4 1.6.1 1.5-.2 1.5-.5 1.8-1.3 3.2-3.2 3.1-2 2.1-1.7 1-.5.6.2.3 1 .2 1.3-.1 2.9.2 1.4.3.6.5.4.3.3.6.1.9-.1.8-.4 2.7-2.4 4.7-3.1 2.7-.8 2.7-.9.8-.1.4.1.1.5-.3.7-1.8 3-.8 1.9-1.4 6.8-.1 1.8.1 1.9 1.2 3.8.1.7-1.3 5.9-1.2 3.4v1.1l.6.6.8.3h1.3l4.9-1.4 5.9-.8 2.1-.4 5.2-1.9 3.6-.8 2.4-1.6 1.3-.7 3.2-1h.5l.3.1v.2l-.5.7-2.7 2.7-1.7 2.8-.7 1-2.8 2.9-2.9 3.4-.9 1.2-.6 1.4-.4 1.5-.1 1.5.2 3.6.2 1.6.6 1.5.6 1.5.8 1.1.6.5 1.7.9 1.2.1 1.4-.7 3.1-1.9 1.8-1.3 1.5-1.4 7.1-8.3 1.5-1.4 1.5-1.2 1.6-1.1 1.5-.7.9-.2.4.3v.7l-.5 1.5-1.9 3.8-.6 1.5-.5 2.3v1.8l.2.8.5.7 3.4 2.6 1.2.7.8.1 1.2-.2 2.2-.8 1.5-.9 2.8-2.2.9-1.2 1.5-2.1.7-.7.8-.4 1.1-.3.6.1.5.3 1.3 1.6.6.3.9.1 1.2-.3 1-.4 1.2-.8 2.4-2 .3-.1.3.1.2.6v1l-.3 1.2-.6 1.5-1.7 2.7-3.5 4.4-.9 1.8-.3 1.6.2 1 .2.9.3.4.6.4 1.8.6 4.2.6 5.2-.1 1.8.2 3.2.1 2.2-.3 1.1-.6.9-.6.7-.7 2.4-3.8 3.9-7.6 1.3-2 .5-.4.6-.2 2.4-.1 1.8-.6.8-.8 1.6-2 .6-.5.6-.1 1.9.7 1.2.8.7 1.3 1.9 4.7.6 1.1.9.9.7.2.9.3 1.5-.3 1.4-.4 5.5-2.9 1.6-1 1.8-.8 1.1-.9 1.2-2 .3-.3.3-.1.3.2.2.4.2 1 .1 2.4-.1 2.5.2 1.2.6 1.6.6.6.6.5 1.6.6 1.2-.1 1.1-.7 1.5-1.8.8-.5 1.4-.5 1.4.1 1 .6 2.1 2.3.9.8 2.6 1.5 2.2 1.7.9.3.9.3h1.2l.9-.3.9-.6.6-.6 1.2-2.1 1.6-4.3.8-1 .6-.3.9-.2h.9l.6.3 1.3 1.2 1.2.7 1.7.6h1.8l1.3-.2 1.2-.5 1.5-1 1.8-1.6.3.1.2.4 1.1 2.1 1.1 1.3 6.9 4 2.4 1.2 1.2.3 1.6.2h2.3l4-.6 1.7-.7 2.1-1.6.7-.2.9.2 2.6 1.2 1.3.4 5.4.5 3.3-.2 2.8-.7 3.3-1.3 1.5-.9 1.9-1.7.9-.4h2.6l4.5.9h3l1.8-.3 1.5-.5.9-.6 1.2-1.2.6-.3h.6l1.5.7 1.2.2 2.1-.1 2.3-.4 3.4-1.2 2.4-1.2 2.2-1.3 2-1.9.8-.4.8.1 2.7.9 1.8.3h2.1l2.2-.5 1.9-.8 5.8-3.5 4.6-1.3 2.6-1.3 2.5-1.8 1.8-.8 3.3-1.2 2.4-1.7 1.7-1 3.7-1.6 2.7-.6 2.2-.7 3.8-1.7 4.2-2.5 1.5-1.3 1.6-1.5 1.7-2.4 1.8-5 .6-1.2.6-.8.7-.4 2.1.1.9-.1.9-.3.8-.6 1.7-1.8 2.3-4.4.8-1 .7-.6 3.9-1.6 2.7-.4 2.8-.9 2.3-1.3 4.6-3.3 2.2-2.1 4.1-4.6 2.3-2.3 2.8-1.8 2.1-1.9 2.8-1.4 1.8-1.5 7.7-7.9 3.1-3.5.9-.6 2.5-1.5 1.5-1.5.7-1 .5-1 .8-2.6.3-.5.6-.5 1.8-.9.9-.7.7-.8 1.2-2.1 3-3 1.7-2 .9-1.4.8-1.7 1.7-4 .5-2.3.6-4.1.3-.8 1.4-3 .3-1.1v-1.1l-.3-1.1-.5-.8-3.5-2.7-.9-1.1-.1-.7.4-.4.6-.2 2.3-.1 1.2-.3 1.8-1.2 3.2-2.7.6-.7.5-1.2 1.6-4.5 1-3.5 1-2 .7-.9 1-.7 2.1-1.3 3.7-1.1 1.9-.9 2.3-1.6 2.9-2.4 3.1-2.2 1.2-.4 3.6-1 3-1.3 2.7-.8 1.7-.9 2.8-1.9 1.7-1.2 1.2-1.4 4.4-6.7 2.1-2.6 1.8-2.7 1.4-2.7 1.7-3.3.9-2.6 1.3-3.8.5-1.8.3-1.9.6-6.5.5-2.4 1.1-2.7 3.8-8.6 1.1-3.7 2-5.3.5-1.7.6-2.8.3-2.2v-3.5l-.3-3.7-.6-4.5.2-1.8.5-2.7 1.8-4.1 1.4-4 2.6-5.5 1.1-3.4 2.5-9.2 2.8-7.2 1.1-2.2 2.2-3.8.8-1.8.8-1.2 1-1 .8-.6 5.7-2.9.8-.6 2-2 3.2-1.7 1.4-.3h2.6l3.4-.3 2.6-.8 2.4-.3.7-.3.7-.7.4-1.3.4-.7 1.2-1.3.9-.6 4.8.3 2.7 1h1.8l2.1.5 3 1.1 8.8 1.1 1.5.4 2.4 1.6.6.5.6.9 1.5 3 1.4 1.7.3.7.4 2.2 2.4 4.9.1.2M817.1 268.8l-1.4 1.7-2 3.7-.3 1.1-.3 1.9v1.1l.4 3.7 1.3 6.1.5 1.7 1.2 2.3.6.5M817.1 323.3l-1.1-.8-2-2.2-1.1-1.9-1.4-1.7-.4-.3-.5-.2-.6.4-1.2 1.5-.7.6-1.3.6-1.5.3h-7.9l-3.6.4-3.3.7-4.8.7-4.8.3h-2.4l-2.7-.2-.7.1-.6.6-1.6 3.2-.5 1.6-.8 3.5.2 1.1.9 1.1 1.7 1.1 1.4.7 1.8.4 3.3.2 3.3.8h3.6l1.5.1 2.1.7 4.2 1.8 4.1 1.4.7.5.6.5.8 1.1 1 2.1.9.7 4.8 2.2 1.5 1.1.9.1 2.2-.5 1.5.2 2.4 1 .2.1" class="st1"/><path d="M200.5 382.7l-.8.2-2.4.9-1.9 1-1.1.8-.7.8-.6 1.1-.2 1.1-.1 1.5.2 1.4.6 1.2.9 1.3 1.9 1.8 1.6 1 1.5.6 1.2-.1.6-.3.8-.7 2.9-3.8 1-1.8.6-1.8v-1.8l-.3-1.1-.4-.8-.7-.9-.9-1-.8-.4-.7-.3h-1.5l-.7.1M428.6 476.7h-.3l-.4.3-.3.3-.5 1.8-.1 1.8.1 4.8-.2 1.9-.9 3.7v1.6l.3 2.2 1.1 4.2.4 2.1.8 7.2.3 2.2.4 1.2.7.9.7.8 1.3.6 1.5.6 1.4.3 1.5.1 1.6-.3 5.7-2.2 1.5-.3 2.9-.3.4-.2.2-.4-.3-.4-.3-.4-2.6-1.6-2.1-1.8-2.5-2.6-.9-1.1-.3-.7-.3-.8v-1.1l1-4.1.3-1.9.1-1.9-.2-1.9-.3-1.1-.5-1.2-2-3.3-2.3-4.4-1.2-1.9-1.4-1.2-3.3-1.4-.7-.2-.3.1" class="st1"/><path d="M420 454.6h-1l-1.9.7-1.4 1.1-1.5 1.6-1.6 2.3-1.5 2.9-1.2 2.6-.5 2v1.1l.3.8 1.6 4.1.5 1.8-.1 2.6-.6 4.5v1.5l.3 1.1.8 1.2.9.8 3.4 2.3 2 1.9 1.6 2.2 1.6 3.3 1.6 4 1 3.8.6 5.3v4.9l.2.6.3.5.5.5.8.4 3.7 1.5 3.1 1 2 .4 1.9-.1 1.8-.3 4.5-1.5 2.1-.4 3.3-.1 3.9.3 3.6.8 3.3.9 3.1 1.3 4.1 2.2.6.2.7-.2.3-.5v-.7l.1-2.7.2-1.5 1-4.2v-.8l-.3-.8-.6-.6-1-.4-4.5-1-2.8-.8-2.1-1-1.5-.9-2.5-2.3-2.6-3-2.3-3.5-1.4-2.8-.5-1.5-.3-1.6-.1-2-.1-2 .2-1.9 1.7-8.6.1-1.5-.1-1.5-.3-1.6-.7-1.6-1.1-1.7-2-3-.7-1.5-.4-1.9-.6-4.7-.3-1.3-.5-.7-.9-.8-1.2-.6-2-.6-2.5-.3-2.9-.2-5.8.3-6.3-.3-1.1.2M287.4 1012.2l-2.6-4.1-3.3-4.3-1.1-1.9-.7-1.9-.4-1.9-.1-1.8.1-2 .6-1.8 1-1.7 1.6-1.7 1.9-1.4 2.1-1.1 2.4-.9 2.1-.5 5.1-.8 2-.7 1.5-.7 1.4-1 .9-1.1.7-1 .9-2.8 1.1-2.2.4-1.5.5-2.3.1-2.9.1-10.6-.1-3.7-.6-3.1-1.8-4.9-1.1-2.1-1.4-2-1.7-2.3-4.1-4.6-1.1-1.7-.9-1.4-1.3-3-3.7-11.1-.7-1.7-.9-1.5-1.5-1.9-3.7-4-2-1.7-4.1-3.2-2.6-1.6-4.2-1.9-2.2-1.1-7.2-4.5-4.3-3.3-7.4-6.5-2.1-1.5-1.8-.9-1.6-.5-1.7-.2-5.5.2-1.8-.2-6.3-1.9-5.1-2.2-2.4-.7-5.4-1-4.8.3-2.2-.1-2.1-.5-1.5-.6-1.8-1.4-1.2-1.7-.6-1.4-.6-1.7-.9-4.1-.3-1.4-.8-1.5-1-1-1.7-.8-2.2-.3-2.7.2-4.2 1.1-1.2-.1-.9-.4-2.7-1.8-2.1-1.8-1.6-1.9-3.1-4.8-1.1-1.3-1-.8-1.4-.9-1.5-.6-6-1.4-2.7-1.1-2.1-1.2-2.1-1.5-1.1-1.1-1.1-1.5-3.6-7.5-.2-1.1.1-2.7-.1-.8-.3-1-.9-1.5-3-3.9-.6-1.1-.4-1.4-1.4-6.7-.8-4.2-1.2-5.6-.8-4.6-.1-3.3.5-6.4-.2-1.8-.5-1.5-.8-1.6-1.3-1.7-2-1.7-3.7-2.9-1.8-2-3.3-4.9-.8-1.7-.5-1.9-.1-1.5.2-1.9.5-1.9.8-1.4 1-1.6 1.4-1.5 7.2-6.1 2-2.1.7-1.1.4-1.1v-1.5l-.2-1.6-.5-1.5-.8-1.6-5-7.8-.9-1.8-.5-1.5-3.4-14.6-.4-3.4-.8-8.3-.3-1.4-.6-1.5-1.7-3.2-3.7-5-3.5-5.5-1.5-1.9-2.6-2.8-1.6-3.2-4.9-7.7-1.3-3-.8-2.6-.3-2.3v-1.8l.3-2.7.6-3 .7-2.2 1.1-2.2 1.5-2.3 2.9-3.7.9-1.6.4-1.2v-1.4l-.1-1.4-.5-2-.6-1.9-.6-1.7-4-8.2-2.1-3.7-2.1-3.5-2.8-3.6-2.1-2.3-1.5-1.3-3.4-2.5-1.5-1.5-3.2-4.2-1.9-3-1-2.3-.8-2.4-.6-2.4-1.2-6.9-.7-2.5-1.6-4.5-.4-1.9.1-2.2.4-2.3.9-2.3 1.1-1.8 1.4-1.7L85 564l4.9-3.9 1.4-1.3 1.5-1.6 1.1-1.9 3.4-6.3 9.2-16.6 2.6-4.9 7.8-14 .9-1.9.7-1.9.9-3.3.6-2.4.2-2.2.1-1.9-.3-2-.5-2-.6-1.6-.7-1.3-2.8-3.9-1.2-1.8-.9-1.7-1-2.2-.9-3.1-2-9.7-1-3.6-2-5.7-.5-3-.1-3 .3-3 .6-2.2 1.2-3 1.2-2.5 1.8-2.7 4.1-4.8 1.2-1.5.8-1.6.4-2v-1.4l-.1-1.5-.3-1.5-.5-1.7-1.9-4-2.5-4.1-1-2.2-.3-1.5-.3-2.3v-1.5l.3-1.1.7-1.1 2.8-3.8 2-2.2 3.1-2.2 4.9-2.9 1.4-1.2 1.4-1.4 2-2.3 3.2-4.6 3.6-5.6 1.5-2.1 1.8-2.1 2.3-1.9 3.2-1.8 3.5-1.5 2.8-.7 9.2-2 6.8-2.7 4.3-1.9 3.9-2.2 2.2-1.5 1.6-1.7 1.1-1.6.6-1.8.1-1.9-.3-4.5.2-2.3.5-2.2 1-2.2 1.8-3 2.8-3.4 3.8-4.1 4-4 1.6-1.9 2.4-3.8 1.4-2.8.4-1.6.4-2.4.2-7.1.8-5.3 1.2-5.2 3.1-10.1.4-2.1.4-4.3.3-1.2.3-.7 1.6-2.3 1.1-1.1 1-.7 2.6-1.9 1.5-.8 1.6-.7 2.6-.8 1-.7 1-1.1.3-.8.3-1v-1.2l-.1-1.5-.2-1.2-.6-1.7-1-2.1-2.7-4.8-.8-1.8-.4-2.6-.5-7.7-.3-2.1-.6-1.7-.8-1.9-1-1.4-1.2-1.5-2.2-2.2-1.1-1.5-.8-1.4-.6-1.9-.1-2.3.3-2.2.9-3.4 1.8-4.1.5-1.5.3-1.9-.2-1.6-.9-2-1.5-2.1-1.8-1.9-3.1-2.9-.9-1-.3-.5-.5-.6-.5-1.6.1-1.1v-.1l.2-2.6.7-2.6.9-1.8 1.9-3 1-2.3.5-1.4.2-1.2v-1.7l-.4-5.1v-2.2l.7-3.3 1.8-6.1 1.8-4.5 1.5-3.4 4-5.6 2.7-3.3.8-1.2.8-2 .3-2.5v-2.7l-.3-2.9-1.4-7.2-.9-7.3-.8-2.9-1.8-5.1-.3-.6-1.1-2v-.1l-1.6-1.6-1.4-1.8-.6-1.3-.4-1.8-.5-.9-1.9-2.3-.8-2.4-.2-3.6.2-1.5.3-.9-.3-3-.6-1.8.6-3v-.3l.2-1-.1-2.9.3-1.9 2.1-5 .9-5v-3.3l-.8-2.1-.2-5.8.8-3 1.1-2.7 3-3.9.5-1 .6-1.2.4-1.7v-1.8l-.4-1.4-.6-1.2-.6-.9-.9-.9-1.2-1.1-5.4-3.4-1.8-.4-1.3-1-1.4-1.7-1.2-2.2-.1-1.1.3-1.4 1.4-2.3v-.2l.6-1.7 1.2-2.3.5-.9 1-2.1.7-1.1 1.6-1.8.7-1 2.1-3.7.3-.7V7l-.3-.7-.8-1.5-1.2-1.5-1.7-.7-2.2-1.5-1.9-1" class="st1"/><path d="M512.3 276.7l-.3.1-1 .6-1.5 1.8-1.2 2.2-1.1 3.6-.3.5-.3.2-.7-.1-2.4-1.5-1.5-.4-7.2-.2-1.2.2-1.2.5-.9.7-1.3 1.4-6.6 8.6-.8.9-.6.3-.5-.2-.4-.8-.8-3.6-.4-1-.7-.7-1.3-.6-.6-.5-.4-.9-.6-2-.3-.6-.6-.6-1.6-.8-4.8-1.4-4.5-2.1-1.8-.6-2-.2H459l-1.8.3-1.7.5-1.9.9-.6.4-.6.7-1.2 2.6-.8 1.1-.8.7-1.4.6-1.6.2-3.2-.8-2.2-.1-4.6.6-1.6.4-.8.4-.7.6-.5.6-1 2-.6 1.5-.2 1.5-.3 3.3-.3.6-.5.2-.6-.2-.6-.3-1.2-1.1-.6-1-1.4-3.1-.6-1-.8-.7-1.7-1-3.8-.9-1.6-.2H416l-4.8 1.4-3.9.2-6 .9-1.9.5-.6.5-.7.8-.5.8-.3 1-.2 1.9.4 3.8-.1 1.1-.4 1.1-1.7 3-1.6 3-1 1.1-1.1 1.1-1.8 1-3.4.8-3.5 1.5-3.3 1-5 3-1.3 1-.7 1-.5.9-.3 1.5-.3.4-2.3 1.8-1.8 2.7-1 .9-.9.5-1.5.5h-3.7l-3.9.6-1.2.6-1.7 1.8-.6.3-5.2.5-1.2.4-.9.5-3.9 3.4-3.9 2.3-1 .8-.8 1.1-1 2.6-1.1 1.2-1.5.8-2.8.9-3.3 1.5-.9.6-1.5 1.1-.6.2-2.1-.8h-.9l-.9.4-3.3 1.8-2.7 2.1-2.2 1.5-.5.6-.6 1.6-.4.7-2.8 1.7-3.6 4-1.6 1.4-1.8 1.3-2.7 1.2-.7.4-.6.9-.1 1.5.3 1.9 1 2.6v1.1l-.2.8-.6.8-1.1 1-2.8 2.4-.7 1-.5.8-.2.7-.1 1.1.5 3.5v1.1l-.2 1.1-.3.7-.9.8-3.9 2-1.6 1.4-1.6 2.1-3.2 5-2.7 3.3-.4.8-.3 1.2.1 1.1.5 1.8v.8l-.2.5-.5.6-1.6.9-3.9 1.2-4.2.9-2.8.2-.9.3-1.7 1-1.7 1.5-.6 1.1-.7 2.3-.4.7-1 1.1-2.3 2.2-.8 1.2-.1 1.2.2 2.2-.9 3.7-.3 3V440.5l-.6.8-2.1 1.3-.8.7-.8 1.2-.4 1.3-.2.9v1.1l.9 3.4.3 2.3-.3 1.1-1.1 2.3-.6 1.8-.6 3v1.2l.3 1.6 1.1 2.5v.7l-.2 2.3.3 1.8.5 1.2 1.6 1.8.5 1.2-.1.7-.6 2.6v3.4l-.3 1.2-.5.9-1.8 2-1.4 2.2-1.7 2-.4.7-.2.8.3 1.4-.1.8-2.3 2.7-.5.7-.2.7v1.1l.5 3.8-.1 1.1-1 2.1-2 2.8-.6 1.5v1.5l.9 2.2.3 2 .6 2.2.2.7v1.1l-.4 1.9-1.3 2.3-.6 1.6-.3.6-1.8 2.2-.5.8-.3 1.2-.1 1.1-.2 2.9-.9 3.1-.1 1.1.2 1.1 1.4 2.2.2.8-.2 1-1 2-.2.7-.1 1.2.2 1.4.6 1.6 2.3 2.7.2.6.5 1.9.4.7.8.5.9.3 4.1 1.2.7.3.3.4.1.4-.3.7-1.1 1-1.8 1.3-.7.8-.2.7.1 1.1.6 1 .9.9 2.5 1 .8.5.5.8.4 1.7.6.6 1.7 1.2 1.4 1.2 2.1.8.8.5.3.9.3 2.8-.3 3.3.3 3.5.3 1.2.3.9 1 1.5 2.1 2.3 1.8 1.5 1.1 2 .5.8 1.7 1.2 1.8 1 1.7.5 1.3.1 2.1-.1.7.1 1.9 1.3 1.7.9 2 1.3.7.2 2-.1.7.1 1.8 2 .6.7.1.6v.5l-1.1 2.7.1 1.5-.1.7-1.6 2.6-.3 1.1.4 2.7-.5 2.6.1.7.3.6.5.5 1.9 1.2.2.4.1.4-1 5.6-.9 3.3-.1 1.2.1 1.4.6 2.3.8 1.5.9.8 1.9 1 .5.4-.1.8-1.1 2.7.1 1.1.5.8 2.1 1.5.6.6.3.9v1.8l.1.7.6.9 1.8 1.4.6.7.2.8v1.9l.5 1.1.6.6 4.7 2.7 1.1.8.8 1 1.4 2.8.6.6.6.5.9.3.6-.1.9-.3 1.8-1 .6-.1.4.1.3.3.8 3.1.9 1.6.9 1 2 1.4 4 1.8 1.3.5h1.5l2.6-.6 1 .1 2.1 2.2 2.1 1.2 1.4 2 1.2 1.1 1.9 1 2.1.7 2.1.2 3-.4 4.3 1.4 4.1.7 1.7-.1 2.6-1 .5.1 2.8 1.2 1.2.1 1.4-.2 1-.5.9-.7 1.2-1.4 1.2-1.8.9-1.9.9-1.9.1-.7v-1.9l.2-.8.3-.1h.3l.6.4.6.9 1.5 4.8.2.5.4.4.3.1 1.2-.2.6.2.6 1.1.8 3.6.6 1.3.7 1 1 1.1 2 1.5 2.7 1.1 5.1 1.2 5.4 2.2 1.6.2.9-.3.9-.7 2.1-3.1 1.2-1.3 1.2-.8.6-.3h.6l.4.3.2.7v2.6l.2.9.6.6 1.4.8.4.4.1.3-.3 1-1.3 2.4-.2.7v.8l.1.7.3.6 1.5 1.2 5.6 3.2 4.9 3.3 1.5.7 1.8.4 1.2-.1.9-.4 1.7-1.6 1-.3.9.5 2.2 2.6 1.4.9 5.4 1.5 3.3 1.8 1.6.5 3.2.5h1.6l1.2-.2 1.2-.6 1.4-1.5.6-.5 1 .1 2.7 1.3h1.5l1.8-.4 1.8-.7 3-2.1.9-.4.6.3 1.8 1.9.7.3.8.3h2.4l3.4-.9 1.4-.7 1.5-1 2.6-2.4 2.5-.8 1-.4.6-.7.7-1.9.3-.3.8-.2 2.7-.2 1.2-.3 1.7-.8 1.9-1.3 1.1-1 .7-1 2.2-4.7.5-.5 1.8-1.2.4-.7.5-1 .3-.3h.6l2.2 1h1.7l.9-.3 1.8-1 3.3-.7 2.3-.9 7.5-4.1.8-.9 1.2-1.8 2-1.2.7-.5 1.9-2.8.5-.7.6-.3.3-.1.6.1 2.7 2.2.9.4 1 .1 2.6-.3 1.5-.4 1-.7 1.5-1.8h.3l1.7 1 1 .1.9-.2 6.3-2.9.9-.6 1.5-1.5.6-.5 2.4-.8.7-.7 1.4-1.7.6-.4.6.1.9.7.9.5h1.5l7.6-2.3 3.5-1.8.9-.7.4-.7.2-1.1v-2.3l.2-.6.4-.3 1.3-.1 3.3.2.9-.1.5-.3.7-.9.6-1.9.4-.7.9-.5 2-.3.7-.4.2-.9v-2.2l.4-1 1-.6 1.8-.9.7-.4 1.5-1.8 1.4-1.3.4-.8.3-2.2.3-.8.6-.4 1.2-.5.5-.6.3-3.1.4-.9.3-.2.6-.1 2.5 1.1 1.1.1.9-.4.9-.9 1-1.7.5-1.4.4-2.2.3-3 .4-1.5 3.1-5 2.6-3.6 2-4.3 2-3.2 1.3-3 .7-.7 1.4-1.3 3.6-2.1.6-.8.7-1.9.8-.7 1.8-1.4.8-1 1.6-5.1.7-3.8v-1.1l-.2-2.2.5-2.3v-.8l-.6-2.2v-.7l.1-.8.3-.8.5-.7.8-.4 2.7-.5 4.3-1.2 1.5-.8 1.6-1.2 1.3-1.3.8-1.3.9-2.3 1.3-3.7.1-1.1v-.9l-.3-1-.8-1.9-.1-.8v-1l.3-1.1 1.4-1.6.5-1.2.5-2.8.2-3.2-.1-2.6-.3-2.2-.3-1.5-.9-2.3-.1-.7.1-.5.3-.6 1.2-1.3 1-1.5 1.9-1.6.3-.9.3-1.1.2-3-.1-2.3-.4-1.4-1.2-3.1-.1-1.1.1-1.5 1.1-3.8.3-2.5-.2-2.6-1.2-4.6V504l.2-.7.5-.4 1.3-.4.3-.3.4-.7.1-2.3.4-2.7v-2.6l.3-2.2v-1.2l-.3-1.8-1.4-3.7-.9-3.8-2.8-6.8-.4-.7-.5-.6-1.9-1.1-.5-.5-.8-2.1-2-2.4-1.4-2.6-.4-1.2-.5-3v-4.4l-.4-3.5-.6-3.7.1-.8.6-1.7.3-2.4v-1.1l-.2-2.3v-2.6l-.3-1.5-.5-1.5-.7-1.5-1.7-2.9-.6-1.6v-.7l.6-3.8v-.7l-.1-.7-.6-1.2-2.1-2-.7-1-.4-.7-.5-1.5-.6-1.1-1.4-1.6-1.3-1.6-1.7-1.7-1.3-3.7-1.5-2.3-.8-1.9-.5-.8-1.2-1-4.2-2.3-2.2-1.9-1.7-2.1-1.6-1.7-1.7-2.6-1.5-1.5-1.1-.9-.9-.4h-.7l-1.9.2h-.8l-.4-.2-1.3-1.5-1-.6-5.4-.9-1.5-.5-.5-.4-.3-.7-.5-2.7-.3-1.1-.6-1.1-.9-1.1-1.4-1.2-1.4-.9-1.2-.4-2.8-.7-1-.6-.2-.5-.1-.6-.2-3.4-.2-.7-.9-1.6-.2-.7.2-2.2-.3-1.5-1.1-2.7-1.3-2.2-.5-2.2-.3-.8-1.9-2.3-.4-.7v-.8l.4-1.1 1.5-3 .6-1.6.4-1.8.3-1.8-.2-1.9-.5-1.2-.9-.7-2.7-1.5-.6-.6-.2-.5v-.7l.4-1.6 2.3-5.2.1-.8-.3-.7-.5-.8-1.2-1.1-1.1-.8-1.4-.8-1.8-.8-9.6-3-2.3-1.1-4.3-3.1-.4-.6-1.8-2.9-2.2-2.2-.6-.8v-.3l.3-.8.5-.5.7-.5 1.5-.2 3.9-.2 1.1-.5.6-.8v-.7l-.2-2.6.1-1.6.1-1.1 1.1-3.6.1-1.2v-1.2l-.2-1.5-.6-1.4-.9-1.1-.9-.6-.9-.2h-.9l-1.2.3-1 .4-1.7 1.2-3.3 2.8-1.5.8-1.8.1-2.7-.6-1.2-.5-1.2-.6-2.3-2-2.8-3.4-2.8-4.5-1.1-1.3-1.4-.8-2-1-2.1-.7-1.4-.3-.3.1M4.8 490.8l-.1-.3-1.8-1.5-.5-.8-.4-1.4-.4-3-1-3V477l-.2-1.8-.2-.9-.2-.3m0-76.1l.8-.1 2.1-.1 1-.1 1-.4" class="st1"/><path d="M430.4 432.2h-1.2l-4.5.7-5.6 1.5-7.3 2.4-8.2 1.8-1.5.6-1.1.8-1 1.4-2.7 5.8-2.6 4.2-3.1 5.8-2 3.2-3.3 4-.7 1.1-.6 1.5v1.5l.3 1 .5.9 2.8 2.6 1.1 1.2 3.9 5.9 4.8 5 5.8 6.8 1.5 1.4 4 2.6 1.9 1.3 1.2 1.3 1.1 1.4 1.2 2.3 1.1 3.1.8 2.6.4 2.2v1.5l-.2 1.5-1.8 6.3v1.2l.3.9.6.6 1.1.5 9.2 2.8 2 .9 3 1.5 1.6.5h1.7l4.3-.6 1.7-.5 4-1.2 2.7-.2h2.1l1.8.4 6.3 2.1 2.4 1.5 2.1 2 1.5 2.3 1.9 3.7 1.1 1.9 5.7 7.8 1 1.1.6.5.6.2.6-.1.6-.4.6-.7 2.6-4.7 2-2.7 4-4.4 5-4.5.7-1.1v-1.1l-.9-2.3-.5-1.5v-2.9l.7-3.8 2.2-6.8.8-2.9.4-3.4-.1-3-.5-1.9-.9-1.5-1.2-1.1-1.9-.9-1.6-.5-1.8-.2h-9l-2.1-.1-2-.4-7.1-1.9-3-1.1-1.8-.9-.8-.8-.5-.7-.8-1.9-.4-2.6-.1-2.6.3-2.3.9-2.1 2.6-4 1.7-3.3 1.5-3.3.3-1.1.1-1.2v-1.1l-.3-.8-3.3-4-1-2-.6-1.5-.2-1.1V455l.9-3.4.2-1.1-.2-1.1-.4-.8-1.6-1.4-3.2-2.3-17-10.8-2.5-1.2-2.4-.6-2.1-.2-1.2.1M817.1 323.2l.1.1 3.8 1 .4.1m0-29.9l-1.1-.2-1.6-.5-.9-.4-.7-.7m0-23.9l1.5-1.9 2.8-2.4m0-57.5l-3.2-2.3-.8-.4-.4-.1" class="st1"/></svg>